SplineFontDB: 3.0
FontName: MuktamsiddhamT
FullName: MuktamsiddhamT
FamilyName: MuktamsiddhamT
Weight: Medium
Copyright: Copyright (c) 2010, MihailJP (http://twitter.com/MihailJP)
UComments: "Font preparation:+AAoA-1. Select all and expand their strokes.+AAoA     Elliptical, width 100:40,+AAoA     Angle -30, square cap, round join.+AAoA-2. Add extrema and round to int.+AAoA-3. Simplify and round to int.+AAoA-4. Remove overlaps and round to int.+AAoA-5. Redo 3.+AAoA-6. Redo 2." 
Version: 0.1.1
StrokeWidth: 70
ItalicAngle: 0
UnderlinePosition: -204.8
UnderlineWidth: 102.4
Ascent: 1638
Descent: 410
LayerCount: 2
Layer: 0 0 "Background"  1
Layer: 1 0 "Foreground"  0
NeedsXUIDChange: 1
XUID: [1021 631 1514651636 13251322]
FSType: 8
OS2Version: 4
OS2_WeightWidthSlopeOnly: 0
OS2_UseTypoMetrics: 1
CreationTime: 1272671396
ModificationTime: 1288038821
PfmFamily: 17
TTFWeight: 500
TTFWidth: 5
LineGap: 184
VLineGap: 0
OS2TypoAscent: 0
OS2TypoAOffset: 1
OS2TypoDescent: 0
OS2TypoDOffset: 1
OS2TypoLinegap: 184
OS2WinAscent: 410
OS2WinAOffset: 1
OS2WinDescent: 410
OS2WinDOffset: 1
HheadAscent: 0
HheadAOffset: 1
HheadDescent: 0
HheadDOffset: 1
OS2Vendor: 'PfEd'
Lookup: 2 0 0 "RRT oT auT Decomposition"  {"RRT oT auT Decomposition-1"  } [' RQD' ('deva' <'dflt' > ) 'ccmp' ('deva' <'dflt' > ) ]
Lookup: 4 0 0 "kSa"  {"kSa-1"  } ['akhn' ('deva' <'dflt' > ) ]
Lookup: 4 0 0 "repha"  {"repha-1"  } ['rphf' ('deva' <'dflt' > ) ]
Lookup: 4 0 0 "raphala"  {"raphala-1"  } ['blwf' ('deva' <'dflt' > ) ]
Lookup: 4 0 0 "ravattu Conjunction"  {"ravattu Conjunction-1"  } ['vatu' ('deva' <'dflt' > ) ]
Lookup: 5 0 0 "iT Contextual Forms"  {"iT Contextual Forms-1"  } ['pres' ('deva' <'dflt' > ) ]
Lookup: 5 0 0 "uT UT RT Contextual Forms"  {"uT UT RT Contextual Forms-1"  } ['blws' ('deva' <'dflt' > ) ]
Lookup: 4 0 0 "RT RRT Exceptional Forms"  {"RT RRT Exceptional Forms-1"  } ['blws' ('deva' <'dflt' > ) ]

StartChar: akAra
Encoding: 0 2309 0
Width: 1687
VWidth: 0
Flags: W
HStem: -6 123<339.177 549.27> 1077 197<749.232 927.303>
VStem: 156 182<123.163 227.5> 655 181<244.651 739.569> 1126 181<153.181 510 674 1086.83>
AnchorPoint: "bindu" 834 1516 basechar 0
LayerCount: 2
Fore
SplineSet
836 1274 m 0
 889 1274 987 1210 987 1169 c 0
 987 1161 985 1155 981 1153 c 0
 924 1112 876 1104 823 1077 c 0
 813 1073 802 1067 788 1063 c 1
 759 1047 739 1026 725 995 c 1
 897 938 1028 807 1124 674 c 1
 1124 821 1127 962 1141 1155 c 0
 1143 1208 1174 1231 1192 1268 c 2
 1210 1303 l 1
 1389 1202 l 1
 1372 1165 l 1
 1347 1118 1323 1104 1321 1069 c 0
 1307 868 1305 721 1305 565 c 2
 1307 211 l 1
 1307 195 l 2
 1307 160 1309 127 1309 102 c 0
 1309 26 1302 -8 1245 -8 c 1
 1321 -76 1362 -105 1460 -160 c 2
 1550 -209 l 1
 1518 -285 l 1
 1427 -233 l 1
 1282 -153 1194 -88 1077 18 c 0
 987 102 967 160 920 223 c 0
 916 229 909 242 909 252 c 0
 909 262 916 268 934 270 c 1
 938 270 l 2
 963 270 1018 256 1063 213 c 0
 1088 190 1106 168 1120 152 c 1
 1124 177 1126 215 1126 276 c 2
 1126 293 l 1
 1124 510 l 1
 1077 522 l 1
 1044 582 l 1
 929 779 805 877 764 887 c 0
 758 889 747 891 735 891 c 2
 729 891 l 2
 715 891 702 887 692 881 c 1
 807 827 l 1
 807 782 l 2
 807 632 836 518 836 393 c 0
 836 330 830 263 807 193 c 0
 766 62 682 -6 557 -6 c 2
 539 -6 l 1
 490 -4 411 0 317 43 c 0
 292 53 268 70 250 82 c 0
 172 135 156 184 156 217 c 0
 156 250 168 282 195 317 c 2
 221 350 l 1
 395 244 l 1
 371 211 l 2
 346 178 336 153 336 135 c 1
 336 135 338 131 338 129 c 0
 363 123 395 119 422 117 c 1
 434 117 l 2
 506 117 588 164 627 287 c 0
 647 353 655 414 655 475 c 0
 655 559 641 645 633 743 c 1
 617 706 602 680 590 662 c 0
 561 621 533 612 506 600 c 1
 473 569 430 537 383 508 c 0
 379 506 372 504 362 504 c 0
 342 504 311 510 272 535 c 0
 245 551 209 583 209 606 c 0
 209 610 211 614 215 618 c 0
 244 649 270 672 293 688 c 0
 309 698 324 709 338 715 c 1
 391 766 416 809 436 850 c 0
 450 881 461 909 473 932 c 1
 442 944 385 977 371 1012 c 2
 264 1270 l 1
 432 1214 l 1
 446 1214 418 1212 418 1212 c 1
 486 1212 563 1167 565 1167 c 2
 575 1167 l 1
 595 1171 617 1176 631 1182 c 1
 651 1194 675 1204 700 1212 c 1
 737 1230 774 1252 819 1270 c 0
 825 1272 830 1274 836 1274 c 0
522 1028 m 1
 530 1055 l 2
 532 1063 539 1075 543 1085 c 1
 543 1085 541 1085 537 1087 c 1
 527 1085 510 1075 510 1067 c 0
 510 1059 514 1048 522 1028 c 1
EndSplineSet
EndChar

StartChar: AkAra
Encoding: 1 2310 1
Width: 1841
VWidth: 0
Flags: W
HStem: -6 123<339.177 549.27> 1077 197<749.232 927.303>
VStem: 156 182<123.163 227.5> 655 181<244.651 739.569> 1126 181<153.181 510 674 777.117>
AnchorPoint: "bindu" 922 1516 basechar 0
LayerCount: 2
Fore
SplineSet
1497 1137 m 1
 1632 1012 l 1
 1571 1008 l 1
 1430 996 1366 999 1366 901 c 2
 1366 887 l 1
 1370 821 1489 743 1602 688 c 2
 1694 643 l 1
 1679 557 l 1
 1589 602 l 2
 1517 639 1397 706 1307 784 c 1
 1305 708 1305 637 1305 565 c 2
 1307 211 l 1
 1307 195 l 2
 1307 160 1309 127 1309 102 c 0
 1309 26 1302 -8 1245 -8 c 1
 1321 -76 1362 -105 1460 -160 c 2
 1550 -209 l 1
 1518 -285 l 1
 1427 -233 l 1
 1282 -153 1194 -88 1077 18 c 0
 987 102 967 160 920 223 c 0
 916 229 909 242 909 252 c 0
 909 262 916 268 934 270 c 1
 938 270 l 2
 963 270 1018 256 1063 213 c 0
 1088 190 1106 168 1120 152 c 1
 1124 177 1126 215 1126 276 c 2
 1126 293 l 1
 1124 510 l 1
 1077 522 l 1
 1044 582 l 1
 929 779 805 877 764 887 c 0
 758 889 747 891 735 891 c 2
 729 891 l 2
 715 891 702 887 692 881 c 1
 807 827 l 1
 807 782 l 2
 807 632 836 518 836 393 c 0
 836 330 830 263 807 193 c 0
 766 62 682 -6 557 -6 c 2
 539 -6 l 1
 490 -4 411 0 317 43 c 0
 292 53 268 70 250 82 c 0
 172 135 156 184 156 217 c 0
 156 250 168 282 195 317 c 2
 221 350 l 1
 395 244 l 1
 371 211 l 2
 346 178 336 153 336 135 c 1
 336 135 338 131 338 129 c 0
 363 123 395 119 422 117 c 1
 434 117 l 2
 506 117 588 164 627 287 c 0
 647 353 655 414 655 475 c 0
 655 559 641 645 633 743 c 1
 617 706 602 680 590 662 c 0
 561 621 533 612 506 600 c 1
 473 569 430 537 383 508 c 0
 379 506 372 504 362 504 c 0
 342 504 311 510 272 535 c 0
 245 551 209 583 209 606 c 0
 209 610 211 614 215 618 c 0
 244 649 270 672 293 688 c 0
 309 698 324 709 338 715 c 1
 391 766 416 809 436 850 c 0
 450 881 461 909 473 932 c 1
 442 944 385 977 371 1012 c 2
 264 1270 l 1
 432 1214 l 1
 446 1214 418 1212 418 1212 c 1
 486 1212 563 1167 565 1167 c 2
 575 1167 l 1
 595 1171 617 1176 631 1182 c 1
 651 1194 675 1204 700 1212 c 1
 737 1230 774 1252 819 1270 c 0
 825 1272 830 1274 836 1274 c 0
 889 1274 987 1210 987 1169 c 0
 987 1161 985 1155 981 1153 c 0
 924 1112 876 1104 823 1077 c 0
 813 1073 802 1067 788 1063 c 1
 759 1047 739 1026 725 995 c 1
 897 938 1028 807 1124 674 c 1
 1124 821 1127 962 1141 1155 c 0
 1143 1208 1174 1231 1192 1268 c 2
 1210 1303 l 1
 1389 1202 l 1
 1372 1165 l 2
 1362 1147 1351 1132 1343 1120 c 1
 1372 1124 1403 1126 1436 1130 c 2
 1497 1137 l 1
522 1028 m 1
 530 1055 l 2
 532 1063 539 1075 543 1085 c 1
 543 1085 541 1085 537 1087 c 1
 527 1085 510 1075 510 1067 c 0
 510 1059 514 1048 522 1028 c 1
EndSplineSet
EndChar

StartChar: it
Encoding: 2 2311 2
Width: 1726
VWidth: 0
Flags: W
HStem: -63 124<723.594 936.517> 489 123<846.038 1027.84> 672 123<472.209 645.594 1142.21 1331.85>
VStem: 287 180<810.134 931.865> 598 180<353.892 420.656> 721 180<863.538 979.695> 956 181<797.793 919.057> 1085 181<246.665 425.793> 1391 180<853.415 967.695>
AnchorPoint: "bindu" 905 1516 basechar 0
LayerCount: 2
Fore
SplineSet
629 672 m 0xf480
 584 672 530 680 469 709 c 0
 449 719 432 729 418 737 c 0
 312 803 287 871 287 926 c 0
 287 1055 456 1124 526 1237 c 0
 530 1245 541 1249 553 1249 c 0
 578 1249 612 1233 635 1221 c 0
 678 1196 696 1169 700 1161 c 0
 735 1095 901 985 901 866 c 0
 901 841 893 820 881 797 c 0
 832 715 735 672 629 672 c 0xf480
506 795 m 0
 574 795 662 829 705 899 c 0
 715 915 721 934 721 948 c 0
 721 985 698 1010 647 1063 c 1
 567 979 467 914 467 844 c 0
 467 826 471 809 477 799 c 1
 483 797 494 795 506 795 c 0
915 207 m 1
 758 236 l 1
 713 297 l 1
 713 297 598 368 598 436 c 0
 598 450 602 461 606 469 c 0
 655 557 725 612 838 612 c 0
 865 612 881 610 891 608 c 1
 897 608 l 1
 944 600 996 584 1047 559 c 0
 1188 493 1266 395 1266 313 c 0
 1266 305 1266 293 1264 287 c 0
 1235 115 1143 -63 946 -63 c 0
 911 -63 867 -57 840 -51 c 0
 510 10 344 213 166 463 c 1
 123 524 l 1
 283 494 l 1
 326 434 l 2
 523 164 576 103 754 70 c 0
 768 68 785 63 805 61 c 1
 811 61 l 1
 811 61 813 59 823 59 c 0
 944 59 1056 209 1083 377 c 0
 1085 383 1085 385 1085 395 c 0
 1085 456 1055 465 1049 467 c 0
 1037 473 990 489 961 489 c 0
 900 489 829 449 782 367 c 0
 780 363 778 358 778 354 c 1xf980
 788 346 837 315 872 268 c 2
 915 207 l 1
1298 659 m 0
 1253 659 1200 667 1139 696 c 0
 1119 706 1101 717 1087 725 c 0
 981 791 956 858 956 913 c 0xf280
 956 1042 1126 1112 1196 1225 c 0
 1200 1233 1211 1237 1223 1237 c 0
 1248 1237 1282 1220 1305 1208 c 0
 1348 1183 1366 1157 1370 1149 c 0
 1405 1083 1571 973 1571 854 c 0
 1571 829 1562 807 1550 784 c 0
 1501 702 1404 659 1298 659 c 0
1176 782 m 0
 1242 782 1331 817 1374 887 c 0
 1384 903 1391 922 1391 936 c 0
 1391 973 1368 998 1317 1051 c 1
 1237 967 1137 901 1137 831 c 0
 1137 813 1141 796 1147 786 c 1
 1153 784 1164 782 1176 782 c 0
EndSplineSet
EndChar

StartChar: It
Encoding: 3 2312 3
Width: 1595
VWidth: 0
Flags: W
HStem: 483 119<723.439 892.53> 666 122<341.209 513.161 1011.21 1198.49>
VStem: 156 180<804.134 925.865> 590 180<859.416 973.695> 805 180<10.516 160.5> 825 181<791.793 912.865> 965 180<186.5 336.209> 965 161<301 381.264> 1260 180<847.415 962.352>
AnchorPoint: "bindu" 811 1516 basechar 0
LayerCount: 2
Fore
SplineSet
494 666 m 0xf080
 449 666 399 673 338 702 c 0
 318 712 301 723 287 731 c 0
 181 797 156 865 156 920 c 0
 156 1049 325 1118 395 1231 c 0
 399 1239 410 1243 422 1243 c 0
 447 1243 481 1226 504 1214 c 0
 547 1189 565 1163 569 1155 c 0
 604 1089 770 979 770 860 c 0
 770 835 762 814 750 791 c 0
 701 709 600 666 494 666 c 0xf080
375 788 m 0
 443 788 530 823 573 893 c 0
 583 909 590 928 590 942 c 0
 590 979 567 1004 516 1057 c 1
 436 973 336 908 336 838 c 0
 336 820 340 803 346 793 c 1
 352 791 363 788 375 788 c 0
870 475 m 1
 866 475 835 483 831 483 c 0
 772 483 702 438 651 360 c 1
 651 360 651 358 649 354 c 1
 661 346 700 320 729 281 c 2
 774 221 l 1
 614 248 l 1
 571 307 l 2
 569 309 516 342 485 383 c 0
 467 408 467 422 467 432 c 0
 467 444 469 455 475 463 c 0
 528 545 596 606 709 606 c 0
 734 606 750 604 760 602 c 1
 766 602 l 1
 780 600 789 596 795 594 c 0
 836 584 876 567 911 547 c 0
 1050 467 1087 371 1126 303 c 0xf180
 1126 301 1128 301 1128 301 c 1
 1138 278 1145 258 1145 242 c 0xf280
 1145 131 985 86 985 25 c 0
 985 0 994 -34 1225 -145 c 1
 1315 -190 l 1
 1309 -279 l 1
 1217 -236 l 1
 953 -109 805 14 805 106 c 0xf880
 805 215 965 261 965 324 c 0xf280
 965 355 884 463 870 475 c 1
1167 653 m 0
 1122 653 1069 661 1008 690 c 0
 988 700 970 711 956 719 c 0
 850 785 825 852 825 907 c 0xf480
 825 1036 995 1106 1065 1219 c 0
 1069 1227 1080 1231 1092 1231 c 0
 1117 1231 1151 1214 1174 1202 c 0
 1217 1177 1235 1151 1239 1143 c 0
 1274 1077 1440 967 1440 848 c 0
 1440 823 1431 801 1419 778 c 0
 1370 696 1273 653 1167 653 c 0
1044 776 m 0
 1112 776 1200 811 1243 881 c 0
 1253 897 1260 916 1260 930 c 0
 1260 967 1237 991 1186 1044 c 1
 1106 960 1006 895 1006 825 c 0
 1006 807 1010 790 1016 780 c 1
 1022 778 1032 776 1044 776 c 0
EndSplineSet
EndChar

StartChar: ut
Encoding: 4 2313 4
Width: 1566
VWidth: 0
Flags: W
HStem: -31 123<758.204 1006.84> 893 305<658.941 796.902>
VStem: 1231 180<315.816 556.524>
AnchorPoint: "bindu" 887 1516 basechar 0
LayerCount: 2
Fore
SplineSet
1231 1237 m 0
 1284 1237 1380 1174 1380 1133 c 0
 1380 1125 1376 1120 1374 1118 c 0
 1247 1018 1172 972 1057 866 c 0
 1032 843 1011 825 995 807 c 1
 1034 797 1073 780 1112 762 c 0
 1288 680 1411 549 1411 416 c 0
 1411 174 1231 -29 971 -31 c 1
 967 -31 l 2
 602 -31 346 342 215 426 c 2
 129 481 l 1
 190 539 l 1
 276 483 l 2
 653 241 598 92 844 92 c 2
 848 92 l 1
 1043 94 1231 277 1231 498 c 0
 1231 607 1159 650 1112 670 c 0
 1069 690 1008 707 965 707 c 0
 873 707 844 602 735 520 c 0
 731 516 721 516 711 516 c 0
 691 516 660 522 623 547 c 0
 596 563 559 595 559 618 c 0
 559 622 561 627 565 631 c 0
 688 764 750 850 885 977 c 1
 924 1012 l 1
 916 1016 875 1030 840 1061 c 1
 826 1036 824 973 797 903 c 0
 795 897 787 885 750 893 c 0
 719 899 658 926 627 969 c 2
 455 1212 l 1
 616 1182 l 1
 649 1133 l 1
 657 1164 670 1198 731 1198 c 0
 815 1198 867 1172 918 1133 c 1
 1020 1151 1091 1198 1214 1235 c 0
 1218 1237 1225 1237 1231 1237 c 0
EndSplineSet
EndChar

StartChar: Ut
Encoding: 5 2314 5
Width: 1898
VWidth: 0
Flags: W
HStem: -31 123<758.204 1005.63>
AnchorPoint: "bindu" 887 1516 basechar 0
LayerCount: 2
Fore
SplineSet
1231 1237 m 0
 1284 1237 1380 1174 1380 1133 c 0
 1380 1125 1376 1120 1374 1118 c 0
 1247 1018 1172 972 1057 866 c 0
 1032 843 1011 825 995 807 c 1
 1173 760 1352 625 1397 494 c 1
 1426 482 1473 461 1491 449 c 0
 1612 373 1655 313 1706 270 c 2
 1780 209 l 1
 1671 184 l 1
 1599 246 l 2
 1513 318 1483 354 1440 383 c 0
 1436 385 1427 385 1411 389 c 1
 1399 160 1221 -29 971 -31 c 1
 967 -31 l 2
 602 -31 346 342 215 426 c 2
 129 481 l 1
 190 539 l 1
 276 483 l 2
 653 241 598 92 844 92 c 2
 848 92 l 1
 1041 94 1229 275 1231 494 c 1
 1206 543 l 1
 1227 537 l 1
 1213 617 1153 652 1112 670 c 0
 1069 690 1008 707 965 707 c 0
 873 707 844 602 735 520 c 0
 731 516 721 516 711 516 c 0
 691 516 660 522 623 547 c 0
 596 563 559 595 559 618 c 0
 559 622 561 627 565 631 c 0
 696 772 772 881 924 1012 c 1
 920 1014 887 1024 842 1063 c 1
 824 1036 826 973 797 903 c 0
 795 897 787 885 750 893 c 0
 719 899 658 926 627 969 c 2
 455 1212 l 1
 616 1182 l 1
 649 1133 l 1
 659 1168 684 1200 745 1204 c 1
 764 1204 l 2
 799 1204 875 1192 936 1137 c 1
 1028 1157 1099 1200 1214 1235 c 0
 1218 1237 1225 1237 1231 1237 c 0
EndSplineSet
EndChar

StartChar: Rt
Encoding: 6 2315 6
Width: 1357
VWidth: 0
Flags: W
HStem: 635 106<676 800.892> 639 125<297.891 492> 891 20G<1042 1124.24> 983 266<274.468 394.903>
VStem: 494 180<252.285 635 764 1033.65>
AnchorPoint: "bindu" 647 1516 basechar 0
LayerCount: 2
Fore
SplineSet
221 375 m 0xb8
 221 387 236 393 252 393 c 0
 275 393 311 385 352 356 c 0
 403 319 448 281 487 252 c 1
 489 258 494 269 494 287 c 2
 492 639 l 1
 445 635 397 629 354 621 c 2
 297 610 l 1
 156 733 l 1
 211 743 l 2
 283 755 365 764 449 764 c 2
 494 764 l 1x78
 500 1051 l 1
 500 1059 l 1
 484 1065 457 1080 430 1100 c 1
 420 1077 418 1034 395 993 c 0
 393 989 387 983 367 983 c 0
 357 983 346 985 330 989 c 0
 297 999 235 1034 219 1073 c 2
 135 1276 l 1
 274 1231 l 1
 284 1239 293 1241 303 1245 c 0
 321 1253 330 1249 332 1249 c 0
 398 1249 478 1189 496 1171 c 1
 584 1183 649 1224 762 1253 c 0
 766 1255 772 1255 776 1255 c 0
 829 1255 926 1196 926 1151 c 0
 926 1143 922 1137 920 1135 c 0
 809 1053 684 1063 680 965 c 1
 676 741 l 1
 705 735 731 731 758 723 c 0
 778 717 799 711 801 709 c 1
 801 717 l 2
 801 897 999 897 1042 903 c 2
 1102 911 l 1
 1241 786 l 1
 1182 780 l 2
 1129 774 981 778 981 635 c 0
 981 518 1009 588 1081 455 c 0
 1085 445 1096 422 1065 418 c 0
 1063 418 1061 418 1059 418 c 0
 1034 418 981 430 936 471 c 0
 868 530 837 585 817 608 c 1
 772 620 723 629 674 635 c 1
 672 559 l 1
 674 205 l 2
 674 154 661 123 614 119 c 1
 670 76 l 1
 762 10 819 -8 956 -88 c 2
 1044 -139 l 1
 999 -209 l 1
 911 -158 l 2
 817 -103 725 -67 584 35 c 0
 434 144 371 224 256 324 c 0
 244 336 221 359 221 375 c 0xb8
EndSplineSet
EndChar

StartChar: RRt
Encoding: 7 2400 7
Width: 1626
VWidth: 0
Flags: W
HStem: 629 106<676 800.892> 633 125<297.891 492> 877 20G<1020.5 1078.5> 977 272<281.67 394.903>
VStem: 494 180<246.285 629 758 1026.65>
AnchorPoint: "bindu" 588 1516 basechar 0
LayerCount: 2
Fore
SplineSet
221 369 m 0xb8
 221 381 236 387 252 387 c 0
 275 387 311 379 352 350 c 0
 403 313 448 275 487 246 c 1
 489 252 494 263 494 281 c 2
 492 633 l 1
 445 629 397 622 354 614 c 2
 297 604 l 1
 156 727 l 1
 211 737 l 2
 283 749 365 758 449 758 c 2
 494 758 l 1x78
 500 1044 l 1
 500 1055 l 1
 496 1057 475 1063 438 1090 c 1
 426 1065 420 1026 395 987 c 0
 393 983 387 977 369 977 c 0
 359 977 346 977 330 983 c 0
 297 993 235 1028 219 1067 c 2
 135 1270 l 1
 281 1223 l 1
 295 1239 328 1249 348 1249 c 0
 418 1249 498 1181 510 1167 c 1
 592 1179 658 1220 762 1247 c 0
 766 1249 772 1249 776 1249 c 0
 829 1249 926 1190 926 1145 c 0
 926 1137 922 1130 920 1128 c 0
 809 1046 684 1056 680 958 c 1
 676 735 l 1
 705 729 731 725 758 717 c 0
 778 711 799 704 801 702 c 1
 801 711 l 2
 801 891 999 891 1042 897 c 1
 1065 897 l 2
 1092 897 1120 895 1157 885 c 0
 1245 858 1313 791 1331 752 c 0
 1423 559 1429 439 1470 242 c 2
 1481 193 l 1
 1300 264 l 1
 1290 315 l 1
 1249 503 1244 614 1174 772 c 1
 1119 766 981 766 981 629 c 0
 981 512 1009 582 1081 449 c 0
 1085 439 1096 416 1065 412 c 0
 1063 412 1061 412 1059 412 c 0
 1034 412 981 424 936 465 c 0
 868 524 837 579 817 602 c 1
 772 614 723 623 674 629 c 1
 672 553 l 1
 674 199 l 2
 674 148 661 117 614 113 c 1
 670 70 l 1
 762 4 819 -14 956 -94 c 2
 1044 -145 l 1
 999 -215 l 1
 911 -164 l 2
 817 -109 725 -73 584 29 c 0
 434 138 371 217 256 317 c 0
 244 329 221 353 221 369 c 0xb8
EndSplineSet
EndChar

StartChar: Lt
Encoding: 8 2316 8
Width: 1421
VWidth: 0
Flags: W
HStem: 1163 123<459.424 615.59>
VStem: 156 180<851.701 1017.36> 772 180<53.6589 667.099> 815 180<258.808 882.201>
AnchorPoint: "bindu" 559 1516 basechar 0
LayerCount: 2
Fore
SplineSet
455 633 m 1xd0
 276 696 l 1
 258 750 l 2
 235 816 156 885 156 977 c 0
 156 995 158 1016 164 1032 c 0
 207 1157 274 1286 430 1286 c 0
 487 1286 539 1271 582 1255 c 0
 828 1165 920 985 965 840 c 0
 990 764 995 694 995 633 c 0xd0
 995 481 952 352 952 211 c 0
 952 154 961 92 977 33 c 0
 1012 -94 1049 -23 1237 -197 c 1
 1305 -260 l 1
 1182 -270 l 1
 1114 -209 l 2
 1081 -178 844 -72 797 102 c 0
 779 170 772 232 772 293 c 0xe0
 772 443 815 572 815 715 c 0
 815 772 807 837 784 905 c 0
 733 1073 661 1133 616 1149 c 0
 606 1153 592 1157 569 1161 c 0
 567 1161 565 1163 553 1163 c 0
 473 1163 387 1059 344 934 c 0
 340 922 336 909 336 895 c 0
 336 838 395 799 434 688 c 2
 455 633 l 1xd0
EndSplineSet
EndChar

StartChar: LLt
Encoding: 9 2401 9
Width: 1482
VWidth: 0
Flags: W
HStem: 1163 123<459.424 615.59>
VStem: 156 180<851.701 1017.36> 772 180<53.6589 582.739>
AnchorPoint: "bindu" 559 1516 basechar 0
LayerCount: 2
Fore
SplineSet
455 633 m 1
 276 696 l 1
 258 750 l 2
 235 816 156 885 156 977 c 0
 156 995 158 1016 164 1032 c 0
 207 1157 274 1286 430 1286 c 0
 487 1286 539 1271 582 1255 c 0
 828 1165 920 985 965 840 c 0
 983 785 989 733 993 686 c 1
 1020 680 1061 655 1075 645 c 0
 1196 569 1239 510 1290 467 c 2
 1364 406 l 1
 1255 381 l 1
 1184 442 l 2
 1098 514 1067 551 1024 580 c 0
 1020 582 1009 582 993 586 c 1
 985 455 952 338 952 211 c 0
 952 154 961 92 977 33 c 0
 1012 -94 1049 -23 1237 -197 c 1
 1305 -260 l 1
 1182 -270 l 1
 1114 -209 l 2
 1081 -178 844 -72 797 102 c 0
 779 170 772 232 772 293 c 0
 772 434 811 557 815 690 c 1
 791 739 l 1
 815 733 l 1
 813 786 804 844 784 905 c 0
 733 1073 661 1133 616 1149 c 0
 606 1153 592 1157 569 1161 c 0
 567 1161 565 1163 553 1163 c 0
 473 1163 387 1059 344 934 c 0
 340 922 336 909 336 895 c 0
 336 838 395 799 434 688 c 2
 455 633 l 1
EndSplineSet
EndChar

StartChar: et
Encoding: 10 2319 10
Width: 1861
VWidth: 0
Flags: W
HStem: 928 125<999.518 1218.52>
AnchorPoint: "bindu" 948 1516 basechar 0
LayerCount: 2
Fore
SplineSet
1362 973 m 1
 1313 957 1231 928 1151 928 c 0
 1118 928 1063 932 993 975 c 0
 956 998 930 1020 907 1049 c 1
 751 1035 823 944 770 852 c 0
 768 848 759 842 741 842 c 0
 731 842 718 844 700 850 c 0
 667 862 608 895 594 934 c 2
 500 1198 l 1
 662 1141 l 1
 689 1164 725 1170 788 1174 c 1
 829 1174 l 1
 858 1170 889 1159 918 1147 c 0
 1000 1108 1032 1063 1040 1053 c 1
 1052 1053 1067 1055 1077 1057 c 0
 1286 1102 1354 1161 1538 1233 c 0
 1544 1235 1550 1237 1556 1237 c 0
 1611 1237 1706 1173 1706 1130 c 0
 1706 1126 1704 1124 1704 1122 c 0
 1548 868 1434 743 1313 479 c 0
 1225 286 1226 162 1171 -47 c 0
 1169 -57 1159 -63 1145 -63 c 0
 1122 -63 1091 -51 1071 -41 c 0
 1030 -18 1008 6 1004 12 c 0
 852 205 820 301 662 451 c 0
 558 551 404 633 203 778 c 2
 123 836 l 1
 207 879 l 1
 289 819 l 2
 453 700 632 609 788 459 c 0
 899 353 963 266 1022 180 c 1
 1049 313 1063 426 1133 578 c 0
 1209 742 1280 852 1362 973 c 1
EndSplineSet
EndChar

StartChar: ait
Encoding: 11 2320 11
Width: 1861
VWidth: 0
Flags: W
HStem: 778 125<1006.93 1067> 1247 123<1005.78 1135.76>
VStem: 795 180<1144.8 1240>
AnchorPoint: "bindu" 948 1516 basechar 0
LayerCount: 2
Fore
SplineSet
1214 958 m 1
 1325 1024 1395 1135 1532 1231 c 0
 1538 1235 1546 1237 1554 1237 c 0
 1585 1237 1628 1216 1653 1200 c 0
 1696 1171 1706 1144 1706 1130 c 0
 1706 1126 1706 1124 1704 1122 c 0
 1548 868 1434 743 1313 479 c 0
 1225 286 1226 162 1171 -47 c 0
 1169 -57 1159 -63 1145 -63 c 0
 1122 -63 1091 -51 1071 -41 c 0
 1030 -18 1008 6 1004 12 c 0
 852 205 820 301 662 451 c 0
 558 551 404 633 203 778 c 2
 123 836 l 1
 207 879 l 1
 289 819 l 2
 453 700 632 609 788 459 c 0
 899 353 963 266 1022 180 c 1
 1049 313 1063 426 1133 578 c 0
 1166 650 1200 711 1233 770 c 1
 1208 782 l 1
 1194 780 1175 778 1159 778 c 0
 1128 778 1078 780 1010 821 c 0
 977 841 952 863 934 883 c 1
 840 869 827 783 782 705 c 0
 780 701 772 694 754 694 c 0
 744 694 731 696 713 702 c 0
 680 714 620 747 606 786 c 2
 512 1051 l 1
 690 987 l 1
 698 967 l 1
 725 992 756 1004 811 1008 c 1
 836 1008 l 2
 865 1008 895 1003 930 989 c 0
 1006 958 1045 913 1053 903 c 1
 1059 903 1063 905 1067 905 c 1
 1051 1005 1050 1008 1034 1022 c 1
 1003 1028 934 1053 885 1100 c 0
 858 1125 795 1180 795 1233 c 0
 795 1247 797 1260 801 1268 c 0
 834 1336 891 1370 977 1370 c 2
 985 1370 l 1
 1126 1366 1264 1237 1284 1221 c 2
 1360 1161 l 1
 1266 1126 l 1
 1188 1186 l 2
 1120 1239 1120 1247 1104 1247 c 2
 1100 1247 l 2
 1057 1247 1010 1224 981 1165 c 0
 979 1159 975 1155 975 1151 c 0
 975 1143 979 1139 981 1137 c 0
 989 1135 1045 1122 1100 1079 c 0
 1163 1030 1196 993 1214 958 c 1
EndSplineSet
EndChar

StartChar: ot
Encoding: 12 2323 12
Width: 1566
VWidth: 0
Flags: W
HStem: -31 123<758.204 1004.3> 973 125<747.293 994.49> 1038 123<638.644 721>
VStem: 1231 180<340.139 553.91>
AnchorPoint: "bindu" 887 1516 basechar 0
LayerCount: 2
Fore
SplineSet
1026 989 m 1xd0
 997 983 932 973 893 973 c 0
 889 973 885 973 881 973 c 0xd0
 858 973 823 975 768 1006 c 0
 756 1012 741 1020 721 1036 c 1
 707 1038 l 1
 631 1038 647 1002 606 891 c 0
 604 885 596 873 559 881 c 0
 528 887 467 913 436 956 c 2
 264 1200 l 1
 426 1169 l 1
 467 1112 l 1
 485 1145 521 1161 584 1161 c 0xb0
 643 1161 706 1157 782 1106 c 0
 786 1104 789 1100 793 1098 c 1
 801 1098 807 1098 815 1100 c 0
 1036 1131 1048 1178 1212 1233 c 0
 1216 1235 1225 1237 1231 1237 c 0
 1284 1237 1380 1173 1380 1130 c 0
 1380 1126 1380 1122 1378 1120 c 0
 1280 993 1233 912 1124 795 c 0
 1104 772 1083 751 1067 735 c 1
 1108 725 1145 712 1184 694 c 0
 1331 626 1411 524 1411 434 c 2
 1411 418 l 1
 1391 176 1235 -29 971 -31 c 1
 967 -31 l 2
 602 -31 346 342 215 426 c 2
 129 481 l 1
 190 539 l 1
 276 483 l 2
 653 241 598 92 844 92 c 2
 848 92 l 1
 1045 94 1211 277 1231 504 c 1
 1231 516 l 2
 1231 586 1196 596 1184 602 c 0
 1153 616 1085 633 1032 633 c 0
 934 633 903 552 788 489 c 0
 784 487 778 485 768 485 c 0
 748 485 715 491 676 518 c 0
 651 534 614 565 614 588 c 0
 614 594 617 598 621 602 c 0
 773 739 897 825 1026 989 c 1xd0
EndSplineSet
EndChar

StartChar: aut
Encoding: 13 2324 13
Width: 1898
VWidth: 0
Flags: W
HStem: -31 123<758.204 1006.04> 881 280<465.929 605.902> 1038 123<632.799 760.765>
AnchorPoint: "bindu" 887 1516 basechar 0
LayerCount: 2
Fore
SplineSet
1026 989 m 1xc0
 995 983 940 973 895 973 c 2
 887 973 l 2
 864 973 827 975 772 1004 c 0
 731 1027 723 1038 719 1038 c 2
 696 1038 l 1xa0
 612 1034 649 1004 606 891 c 0
 604 885 596 873 559 881 c 0
 528 887 467 913 436 956 c 2
 264 1200 l 1
 426 1169 l 1
 461 1118 l 1
 477 1145 512 1159 567 1161 c 1
 596 1161 l 2
 645 1161 704 1155 770 1112 c 0
 786 1102 788 1098 788 1098 c 1
 817 1100 l 1
 1036 1131 1048 1178 1212 1233 c 0
 1216 1235 1225 1237 1231 1237 c 0
 1284 1237 1380 1173 1380 1130 c 0
 1380 1126 1380 1122 1378 1120 c 0
 1280 993 1233 912 1124 795 c 0
 1104 772 1083 751 1067 735 c 1
 1108 725 1145 712 1184 694 c 0
 1301 641 1374 568 1401 494 c 1
 1428 484 1473 461 1491 449 c 0
 1612 373 1655 313 1706 270 c 2
 1780 209 l 1
 1671 184 l 1
 1599 246 l 2
 1513 318 1483 354 1440 383 c 0
 1436 385 1423 385 1407 389 c 1
 1376 160 1225 -29 971 -31 c 1
 967 -31 l 2
 602 -31 346 342 215 426 c 2
 129 481 l 1
 190 539 l 1
 276 483 l 2
 653 241 598 92 844 92 c 2
 848 92 l 1
 1043 94 1206 271 1231 494 c 1
 1206 543 l 1
 1229 537 l 1
 1223 588 1194 596 1184 602 c 0
 1153 616 1085 633 1032 633 c 0
 934 633 903 552 788 489 c 0
 784 487 778 485 768 485 c 0
 748 485 715 491 676 518 c 0
 651 534 614 565 614 588 c 0
 614 594 617 598 621 602 c 0
 773 739 897 825 1026 989 c 1xc0
EndSplineSet
EndChar

StartChar: anusvAra
Encoding: 14 2306 14
Width: 0
VWidth: 0
GlyphClass: 4
Flags: W
HStem: 1362 285<-541.727 -370.392> 1384 285<-591.731 -421.272>
VStem: -664 365<1452.06 1578.94>
AnchorPoint: "bindumark" -481 1516 mark 0
AnchorPoint: "bindu" -481 1516 mark 0
LayerCount: 2
Fore
SplineSet
-442 1647 m 0xa0
 -307 1586 -299 1506 -299 1475 c 0
 -299 1412 -340 1362 -420 1362 c 0xa0
 -447 1362 -483 1368 -520 1384 c 0
 -655 1445 -664 1525 -664 1556 c 0
 -664 1619 -623 1669 -543 1669 c 0x60
 -516 1669 -479 1663 -442 1647 c 0xa0
EndSplineSet
EndChar

StartChar: visarga
Encoding: 16 2307 16
Width: 430
VWidth: 0
GlyphClass: 4
Flags: W
HStem: 236 284<32.2722 202.608> 258 285<-18.6079 152.727> 799 284<32.2722 202.608> 821 285<-18.6079 152.727>
VStem: -90 364<325.1 452.943 888.1 1015.94>
LayerCount: 2
Fore
SplineSet
31 543 m 0x48
 58 543 94 536 131 520 c 0
 266 459 274 379 274 348 c 0
 274 285 234 236 154 236 c 0x88
 127 236 90 242 53 258 c 0
 -82 319 -90 399 -90 430 c 0
 -90 493 -49 543 31 543 c 0x48
31 1106 m 0x18
 58 1106 94 1099 131 1083 c 0
 266 1022 274 942 274 911 c 0
 274 848 234 799 154 799 c 0x28
 127 799 90 805 53 821 c 0
 -82 882 -90 962 -90 993 c 0
 -90 1056 -49 1106 31 1106 c 0x18
EndSplineSet
EndChar

StartChar: ka
Encoding: 17 2325 17
Width: 1554
VWidth: 0
Flags: W
HStem: 762 92<748.233 790.227>
VStem: 156 180<160.312 418.346> 520 180<120.391 614.945> 537 182<113 519.393> 881 186<105.001 574.217>
AnchorPoint: "virama" 696 -246 basechar 0
AnchorPoint: "repha" 608 1057 basechar 0
AnchorPoint: "aakaara" 1020 1180 basechar 0
AnchorPoint: "iikaara" 1020 1180 basechar 0
AnchorPoint: "ekaara" 319 1124 basechar 0
AnchorPoint: "bindu" 696 1516 basechar 0
LayerCount: 2
Fore
SplineSet
520 618 m 1xe8
 405 509 336 377 336 199 c 0
 336 185 338 170 342 160 c 1
 381 150 451 142 537 113 c 1xd8
 539 164 l 1
 539 326 520 463 520 608 c 2
 520 618 l 1xe8
961 1243 m 0
 1014 1243 1110 1180 1110 1139 c 0
 1110 1131 1108 1124 1104 1122 c 0
 954 1020 809 1034 760 891 c 0
 756 877 752 866 748 856 c 1
 750 854 752 854 754 854 c 0
 916 778 981 650 1020 578 c 0
 1063 498 1067 434 1067 373 c 0
 1067 320 1061 270 1061 223 c 0
 1061 166 1071 112 1096 59 c 0
 1151 -62 1202 -33 1372 -193 c 2
 1438 -254 l 1
 1311 -262 l 1
 1245 -201 l 2
 1186 -144 1000 -59 920 113 c 0
 889 183 881 244 881 305 c 0
 881 356 887 406 887 455 c 0
 887 512 877 572 848 627 c 0
 819 682 777 739 752 762 c 1
 750 762 l 2
 744 762 735 760 723 756 c 1
 707 684 700 606 700 526 c 0xe8
 700 385 719 248 719 82 c 0
 719 49 719 21 717 -12 c 0
 717 -26 706 -31 690 -31 c 0
 663 -31 632 -18 612 -8 c 0
 577 10 473 4 326 72 c 0
 303 82 280 94 264 106 c 0
 166 172 156 232 156 281 c 0
 156 555 318 751 539 862 c 1
 545 866 l 1
 553 909 566 944 580 989 c 0
 580 991 582 993 584 999 c 1
 580 999 573 1000 553 1006 c 1
 555 1004 559 991 559 979 c 0
 559 954 532 915 487 915 c 0
 483 915 479 915 475 915 c 0
 446 919 385 946 352 989 c 2
 195 1198 l 1
 332 1176 l 1
 342 1184 352 1180 358 1180 c 0
 383 1182 394 1182 406 1182 c 2
 422 1182 l 2
 424 1182 428 1184 436 1184 c 0
 463 1184 523 1177 584 1120 c 1
 711 1130 794 1196 944 1241 c 0
 948 1243 955 1243 961 1243 c 0
EndSplineSet
Substitution2: "Contextual Form 0001-1" ka.0001
EndChar

StartChar: kha
Encoding: 18 2326 18
Width: 1830
VWidth: 0
Flags: W
VStem: 383 180<913.041 1025.39> 504 180<134.198 527.867> 793 180<361.458 675.125> 1159 180<415.607 865.462> 1182 180<438.138 896.027>
AnchorPoint: "virama" 893 -246 basechar 0
AnchorPoint: "repha" 934 989 basechar 0
AnchorPoint: "aakaara" 1567 1210 basechar 0
AnchorPoint: "iikaara" 1567 1210 basechar 0
AnchorPoint: "ekaara" 541 1100 basechar 0
AnchorPoint: "bindu" 893 1516 basechar 0
LayerCount: 2
Fore
SplineSet
582 932 m 1xb0
 754 823 l 1
 725 793 l 1
 715 782 l 1
 735 758 l 1
 698 762 l 1
 667 727 644 692 621 659 c 1
 623 657 l 1
 676 573 684 468 684 362 c 0
 684 196 655 33 616 -16 c 2
 590 -49 l 1
 416 57 l 1
 440 90 l 2
 467 123 504 286 504 444 c 0x60
 504 473 502 501 500 530 c 1
 455 501 397 479 315 467 c 2
 258 459 l 1
 117 582 l 1
 176 590 l 2
 315 610 369 667 426 743 c 1
 420 754 l 1
 432 752 l 1
 450 777 469 802 492 831 c 1
 490 833 485 836 483 838 c 0
 383 910 383 969 383 1006 c 0
 383 1088 426 1182 539 1182 c 0
 564 1182 589 1177 612 1169 c 0
 825 1099 751 1051 872 1051 c 0
 1046 1051 1317 1143 1483 1268 c 1
 1518 1292 l 1
 1686 1180 l 1
 1651 1153 l 2
 1581 1100 1495 1055 1405 1018 c 1
 1399 981 l 2
 1385 893 1364 848 1362 768 c 0xa8
 1360 598 1339 473 1339 346 c 2
 1339 330 l 1
 1348 324 l 1
 1339 322 l 1
 1341 236 1353 145 1386 47 c 0
 1423 -68 1437 16 1640 -156 c 2
 1712 -217 l 1
 1602 -238 l 1
 1530 -176 l 2
 1512 -160 1259 -57 1206 113 c 0
 1192 162 1182 207 1174 250 c 1
 1147 240 1114 233 1073 233 c 2
 1061 233 l 1
 1030 235 987 237 924 272 c 0
 897 286 867 309 844 334 c 0
 797 385 793 450 793 532 c 0
 793 618 811 695 844 793 c 1
 869 859 905 893 944 932 c 1
 813 952 692 1036 657 1059 c 1
 618 1055 563 987 563 924 c 2
 563 913 l 1
 582 932 l 1xb0
1192 950 m 1
 1182 948 1169 946 1159 944 c 1x30
 1188 928 l 1
 1190 936 1190 942 1192 950 c 1
979 360 m 1
 1028 370 1087 407 1159 432 c 1x30
 1159 563 1180 690 1182 854 c 0x28
 1182 870 1182 885 1184 899 c 1
 1176 887 l 1
 1113 807 1055 778 1024 694 c 0
 991 598 973 531 973 451 c 0
 973 422 975 389 979 360 c 1
EndSplineSet
Substitution2: "Contextual Form 0001-1" kha.0001
EndChar

StartChar: ga
Encoding: 19 2327 19
Width: 1830
VWidth: 0
Flags: W
HStem: 928 123<812.078 1128.65>
VStem: 383 180<913.041 1025.39> 504 180<134.198 527.867> 1159 180<122.78 885.606> 1182 180<434.23 948.641>
AnchorPoint: "virama" 893 -246 basechar 0
AnchorPoint: "repha" 934 989 basechar 0
AnchorPoint: "aakaara" 1567 1210 basechar 0
AnchorPoint: "iikaara" 1567 1210 basechar 0
AnchorPoint: "ekaara" 541 1100 basechar 0
AnchorPoint: "bindu" 893 1516 basechar 0
LayerCount: 2
Fore
SplineSet
582 932 m 1xc8
 754 823 l 1
 725 793 l 1
 715 782 l 1
 735 758 l 1
 698 762 l 1
 667 727 644 692 621 659 c 1
 623 657 l 1
 676 573 684 468 684 362 c 0
 684 196 655 33 616 -16 c 2
 590 -49 l 1
 416 57 l 1
 440 90 l 2
 467 123 504 286 504 444 c 0xa0
 504 473 502 501 500 530 c 1
 455 501 397 479 315 467 c 2
 258 459 l 1
 117 582 l 1
 176 590 l 2
 315 610 369 667 426 743 c 1
 420 754 l 1
 432 752 l 1
 450 777 469 802 492 831 c 1
 490 833 485 836 483 838 c 0
 383 910 383 969 383 1006 c 0
 383 1088 426 1182 539 1182 c 0
 564 1182 589 1177 612 1169 c 0
 825 1099 751 1051 872 1051 c 0
 1046 1051 1317 1143 1483 1268 c 1
 1518 1292 l 1
 1686 1180 l 1
 1651 1153 l 2
 1581 1100 1495 1055 1405 1018 c 1
 1399 981 l 2
 1385 893 1364 848 1362 768 c 0xc8
 1360 598 1339 473 1339 346 c 0
 1339 252 1351 156 1386 47 c 0
 1423 -68 1437 16 1640 -156 c 2
 1712 -217 l 1
 1602 -238 l 1
 1530 -176 l 2
 1512 -160 1259 -57 1206 113 c 0
 1169 230 1159 330 1159 428 c 0x90
 1159 561 1180 688 1182 854 c 0
 1182 893 1186 921 1192 950 c 1
 1124 936 1056 928 995 928 c 0
 845 928 696 1034 657 1059 c 1
 618 1055 563 987 563 924 c 2
 563 913 l 1
 582 932 l 1xc8
EndSplineSet
Substitution2: "Contextual Form 0001-1" ga.0001
EndChar

StartChar: gha
Encoding: 20 2328 20
Width: 1732
VWidth: 0
Flags: W
HStem: 215 125<956.365 1111.94> 362 125<492.306 634.372>
VStem: 293 180<494.674 919.942> 733 178<627.086 1055.67> 1169 181<1.60641 213 400.751 1075>
AnchorPoint: "virama" 856 -246 basechar 0
AnchorPoint: "repha" 958 1167 basechar 0
AnchorPoint: "aakaara" 1364 1198 basechar 0
AnchorPoint: "iikaara" 1364 1198 basechar 0
AnchorPoint: "ekaara" 246 1137 basechar 0
AnchorPoint: "bindu" 856 1516 basechar 0
LayerCount: 2
Fore
SplineSet
565 1219 m 0
 618 1219 717 1155 717 1114 c 0
 717 1108 715 1102 713 1100 c 0
 674 1061 637 1039 604 1016 c 1
 596 1008 585 997 569 989 c 1
 538 964 514 932 502 891 c 1
 479 828 473 782 473 733 c 0
 473 661 488 587 496 487 c 1
 578 491 639 510 672 584 c 0
 717 688 729 776 733 868 c 0
 733 884 735 899 735 915 c 0
 737 985 740 1057 752 1145 c 2
 758 1188 l 1
 786 1174 l 1
 813 1197 851 1205 874 1223 c 2
 905 1251 l 1
 1075 1139 l 1
 1042 1112 l 2
 991 1069 946 1071 938 1030 c 0
 928 981 922 925 918 866 c 0
 916 821 915 778 911 735 c 1
 911 672 l 2
 911 563 918 469 920 455 c 0
 936 394 967 348 977 340 c 0
 979 340 981 338 989 336 c 0
 993 336 1006 334 1010 334 c 0
 1057 334 1129 374 1145 446 c 0
 1159 503 1167 562 1169 623 c 1
 1169 866 l 1
 1167 1012 l 2
 1167 1047 1167 1083 1169 1124 c 1
 1169 1165 l 2
 1169 1169 1170 1178 1176 1182 c 2
 1317 1280 l 1
 1483 1167 l 1
 1354 1075 l 1
 1350 1038 l 1
 1350 784 l 1
 1352 639 l 2
 1352 604 1352 570 1350 537 c 1
 1350 100 l 2
 1350 -125 1396 -84 1509 -150 c 1
 1597 -203 l 1
 1552 -270 l 1
 1464 -219 l 2
 1372 -164 1169 -76 1169 182 c 2
 1169 213 l 1
 1157 211 1145 211 1133 211 c 0
 1108 211 1089 213 1077 215 c 0
 1075 215 1073 217 1071 217 c 0
 1014 231 971 251 928 274 c 1
 856 317 813 363 786 408 c 1
 741 377 682 364 616 362 c 1
 602 362 l 2
 571 362 530 362 467 391 c 0
 434 405 391 434 360 465 c 0
 327 500 317 528 315 557 c 0
 307 661 293 735 293 815 c 0
 293 846 295 878 301 913 c 1
 283 923 250 948 238 975 c 2
 207 1051 l 1
 195 1074 182 1095 178 1118 c 1
 135 1221 l 1
 209 1196 l 1
 219 1202 232 1206 250 1206 c 0
 332 1206 414 1124 422 1116 c 1
 457 1145 473 1177 547 1214 c 0
 553 1216 559 1219 565 1219 c 0
EndSplineSet
Substitution2: "Contextual Form 0001-1" gha.0001
EndChar

StartChar: Ga
Encoding: 21 2329 21
Width: 1658
VWidth: 0
Flags: W
AnchorPoint: "virama" 831 -246 basechar 0
AnchorPoint: "repha" 793 1038 basechar 0
AnchorPoint: "aakaara" 1413 774 basechar 0
AnchorPoint: "iikaara" 1321 1198 basechar 0
AnchorPoint: "ekaara" 375 1149 basechar 0
AnchorPoint: "bindu" 831 1516 basechar 0
LayerCount: 2
Fore
SplineSet
696 985 m 1
 719 1004 l 1
 715 1006 712 1008 696 1016 c 1
 696 1014 694 1010 694 1004 c 0
 694 1000 694 993 696 985 c 1
1315 1266 m 1
 1450 1141 l 1
 1389 1137 l 1
 1248 1125 1184 1128 1184 1030 c 2
 1184 1016 l 1
 1188 950 1306 872 1419 817 c 2
 1511 772 l 1
 1497 686 l 1
 1407 731 l 2
 1307 782 1110 893 1034 1012 c 1
 741 778 l 1
 604 676 512 621 387 537 c 1
 479 498 571 457 684 387 c 0
 893 258 1089 121 1206 -2 c 2
 1266 -66 l 1
 1126 -59 l 1
 1067 2 l 2
 989 84 826 205 631 326 c 0
 508 402 430 420 244 508 c 0
 219 520 154 563 154 594 c 0
 154 600 156 606 162 610 c 0
 322 721 417 776 573 893 c 1
 588 903 l 1
 246 1202 l 1
 362 1221 l 1
 514 1087 l 1
 516 1150 555 1186 633 1186 c 0
 643 1186 742 1178 799 1108 c 1
 901 1131 934 1196 1030 1255 c 0
 1036 1259 1043 1262 1051 1262 c 0
 1069 1262 1095 1253 1118 1241 c 1
 1157 1251 1204 1256 1253 1260 c 2
 1315 1266 l 1
EndSplineSet
Substitution2: "Contextual Form 0001-1" Ga.0001
EndChar

StartChar: ca
Encoding: 22 2330 22
Width: 1376
VWidth: 0
Flags: W
HStem: 1001 271<436.566 554.903> 1122 183<1085 1174.18>
VStem: 731 180<-7.22926 221 375 730.923>
AnchorPoint: "virama" 684 -246 basechar 0
AnchorPoint: "repha" 793 1112 basechar 0
AnchorPoint: "aakaara" 1130 1241 basechar 0
AnchorPoint: "iikaara" 1130 1241 basechar 0
AnchorPoint: "ekaara" 406 1204 basechar 0
AnchorPoint: "bindu" 786 1516 basechar 0
LayerCount: 2
Fore
SplineSet
1069 1305 m 0x60
 1124 1305 1221 1241 1221 1200 c 0
 1221 1192 1218 1186 1214 1184 c 0
 1171 1153 1126 1136 1085 1122 c 1x60
 1038 1098 l 2
 1026 1092 1011 1085 995 1079 c 1
 970 1061 954 1038 950 1001 c 0
 925 667 911 514 911 215 c 1
 913 14 l 2
 915 -90 963 -13 1147 -195 c 1
 1210 -256 l 1
 1079 -260 l 1
 1016 -199 l 2
 1006 -189 735 -58 733 96 c 2
 731 221 l 1
 702 250 l 2
 593 356 588 387 559 401 c 0
 493 436 443 428 279 471 c 1
 254 471 154 532 154 569 c 0
 154 575 156 582 162 586 c 0
 314 690 414 731 547 854 c 0
 629 930 658 997 717 1087 c 1
 678 1107 647 1135 631 1147 c 1
 600 1137 598 1075 555 1012 c 0
 553 1010 546 1001 528 1001 c 0
 520 1001 506 1004 492 1008 c 0
 459 1018 395 1053 379 1092 c 2
 293 1288 l 1
 436 1241 l 1
 448 1259 465 1268 496 1272 c 0
 498 1272 500 1272 502 1272 c 0xa0
 508 1274 512 1274 520 1274 c 0
 624 1274 723 1186 735 1176 c 1
 774 1176 807 1186 834 1196 c 1
 861 1214 891 1227 926 1239 c 1
 965 1259 1006 1282 1053 1300 c 0
 1059 1302 1063 1305 1069 1305 c 0x60
731 375 m 1
 733 522 737 639 745 770 c 1
 719 743 l 1
 617 647 532 600 436 541 c 1
 485 527 535 510 584 483 c 0
 650 450 696 410 731 375 c 1
EndSplineSet
Substitution2: "Contextual Form 0001-1" ca.0001
EndChar

StartChar: cha
Encoding: 23 2331 23
Width: 1665
VWidth: 0
Flags: W
HStem: 336 123<356.116 527.772> 737 123<396.109 593.584 1095.36 1299.88> 1018 276<561.664 691.902>
VStem: 156 180<517.472 679.891> 715 180<791 1064.8> 739 181<39.5193 410.503 820.288 1081.76> 1329 180<545.938 689.793>
AnchorPoint: "virama" 819 -246 basechar 0
AnchorPoint: "repha" 823 1167 basechar 0
AnchorPoint: "aakaara" 1118 1253 basechar 0
AnchorPoint: "iikaara" 1118 1253 basechar 0
AnchorPoint: "ekaara" 541 1223 basechar 0
AnchorPoint: "bindu" 819 1516 basechar 0
LayerCount: 2
Fore
SplineSet
735 412 m 1xf6
 676 375 602 336 506 336 c 0
 469 336 413 344 350 379 c 0
 311 402 277 428 250 455 c 0
 180 525 156 598 156 672 c 0
 156 805 291 854 420 860 c 1
 434 860 l 2
 467 860 512 854 567 829 c 0
 641 794 690 758 717 733 c 1
 717 760 715 786 715 817 c 0
 715 887 719 966 727 1087 c 0
 729 1112 736 1135 748 1153 c 1
 740 1159 741 1155 737 1159 c 1
 714 1139 721 1085 692 1030 c 0
 690 1024 682 1018 664 1018 c 0
 654 1018 643 1022 627 1026 c 0
 594 1036 530 1071 514 1110 c 2
 428 1307 l 1
 561 1264 l 1
 575 1282 600 1294 633 1294 c 0
 694 1294 768 1243 784 1231 c 1
 874 1241 933 1284 1042 1315 c 0
 1046 1317 1053 1317 1059 1317 c 0
 1112 1317 1208 1255 1208 1212 c 0
 1208 1204 1206 1198 1202 1196 c 0
 1073 1106 915 1110 907 1001 c 0
 901 913 897 846 895 791 c 1xfa
 954 826 1028 860 1120 860 c 0
 1194 860 1303 823 1362 784 c 0
 1475 710 1509 633 1509 567 c 2
 1509 553 l 1
 1495 389 1317 346 1165 338 c 1
 1153 338 l 2
 1053 338 950 412 909 453 c 1
 913 381 918 291 920 168 c 0
 926 -129 946 -18 1126 -174 c 1
 1196 -236 l 1
 1083 -256 l 1
 1012 -195 l 2
 924 -119 745 -57 739 250 c 0
 737 311 737 365 735 412 c 1xf6
707 637 m 1
 623 684 579 727 567 735 c 1
 563 735 561 737 557 737 c 2
 549 737 l 1
 445 731 336 690 336 590 c 0
 336 535 363 482 381 459 c 1
 383 459 l 2
 395 459 395 459 401 461 c 0
 532 484 621 557 707 637 c 1
928 573 m 1
 983 528 1015 486 1038 461 c 1
 1171 469 1317 510 1329 639 c 1
 1329 649 l 2
 1329 698 1298 727 1298 727 c 1
 1288 733 1266 737 1243 737 c 0
 1233 737 1220 735 1204 731 c 0
 1089 706 1008 645 928 573 c 1
EndSplineSet
Substitution2: "Contextual Form 0001-1" cha.0001
EndChar

StartChar: ja
Encoding: 24 2332 24
Width: 1658
VWidth: 0
Flags: W
AnchorPoint: "virama" 831 -246 basechar 0
AnchorPoint: "bindu" 831 1516 basechar 0
AnchorPoint: "ekaara" 375 1149 basechar 0
AnchorPoint: "iikaara" 1321 1198 basechar 0
AnchorPoint: "aakaara" 1413 774 basechar 0
AnchorPoint: "repha" 793 1038 basechar 0
LayerCount: 2
Fore
SplineSet
1315 1266 m 1
 1450 1141 l 1
 1389 1137 l 1
 1248 1125 1184 1128 1184 1030 c 2
 1184 1016 l 1
 1188 950 1306 872 1419 817 c 2
 1511 772 l 1
 1497 686 l 1
 1407 731 l 2
 1307 782 1110 893 1034 1012 c 1
 813 834 l 1
 799 823 l 1
 856 788 919 751 997 690 c 0
 1138 579 1204 506 1315 406 c 2
 1382 344 l 1
 1260 332 l 1
 1192 393 l 2
 1069 506 1014 568 895 662 c 0
 842 705 809 717 727 768 c 1
 598 672 508 619 387 537 c 1
 479 498 571 457 684 387 c 0
 893 258 1089 121 1206 -2 c 2
 1266 -66 l 1
 1126 -59 l 1
 1067 2 l 2
 989 84 826 205 631 326 c 0
 508 402 430 420 244 508 c 0
 219 520 154 563 154 594 c 0
 154 600 156 606 162 610 c 0
 322 721 417 776 573 893 c 1
 588 903 l 1
 246 1202 l 1
 362 1221 l 1
 514 1087 l 1
 516 1150 555 1186 633 1186 c 0
 643 1186 742 1178 799 1108 c 1
 901 1131 934 1196 1030 1255 c 0
 1036 1259 1043 1262 1051 1262 c 0
 1069 1262 1095 1253 1118 1241 c 1
 1157 1251 1204 1256 1253 1260 c 2
 1315 1266 l 1
696 985 m 1
 719 1004 l 1
 715 1006 712 1008 696 1016 c 1
 696 1014 694 1010 694 1004 c 0
 694 1000 694 993 696 985 c 1
EndSplineSet
Substitution2: "Contextual Form 0001-1" ja.0001
EndChar

StartChar: jha
Encoding: 25 2333 25
Width: 1357
VWidth: 0
Flags: W
HStem: 653 105<676 761.703> 891 20G<1042 1124.24> 983 272<264.469 396.902>
VStem: 494 180<252.285 653 744.731 1033.65>
AnchorPoint: "virama" 647 -246 basechar 0
AnchorPoint: "repha" 510 1106 basechar 0
AnchorPoint: "aakaara" 1112 842 basechar 0
AnchorPoint: "ekaara" 246 1192 basechar 0
AnchorPoint: "iikaara" 836 1192 basechar 0
AnchorPoint: "bindu" 647 1516 basechar 0
LayerCount: 2
Fore
SplineSet
221 375 m 0
 221 387 236 393 252 393 c 0
 275 393 311 385 352 356 c 0
 403 319 448 281 487 252 c 1
 489 258 494 269 494 287 c 2
 492 645 l 1
 500 1051 l 1
 500 1059 l 1
 484 1065 457 1077 424 1104 c 1
 416 1079 417 1038 397 995 c 0
 395 991 387 983 367 983 c 0
 357 983 346 983 330 989 c 0
 297 999 235 1034 219 1073 c 2
 135 1276 l 1
 264 1233 l 1
 274 1243 285 1247 297 1251 c 0
 317 1259 324 1255 328 1255 c 0
 400 1255 482 1187 498 1171 c 1
 584 1181 651 1224 762 1253 c 0
 766 1255 772 1255 776 1255 c 0
 829 1255 926 1196 926 1151 c 0
 926 1143 922 1137 920 1135 c 0
 809 1053 684 1063 680 965 c 1
 676 758 l 1
 701 752 729 741 766 725 c 0
 784 717 795 709 801 707 c 1
 801 717 l 2
 801 897 999 897 1042 903 c 2
 1102 911 l 1
 1241 786 l 1
 1182 780 l 2
 1129 774 981 778 981 635 c 0
 981 518 1009 588 1081 455 c 0
 1085 445 1096 422 1065 418 c 0
 1063 418 1061 418 1059 418 c 0
 1034 418 981 430 936 471 c 0
 836 561 813 602 762 635 c 0
 756 637 729 637 674 653 c 1
 672 559 l 1
 674 205 l 2
 674 154 661 123 614 119 c 1
 670 76 l 1
 762 10 819 -8 956 -88 c 2
 1044 -139 l 1
 999 -209 l 1
 911 -158 l 2
 817 -103 725 -67 584 35 c 0
 434 144 371 224 256 324 c 0
 244 336 221 359 221 375 c 0
EndSplineSet
Substitution2: "Contextual Form 0001-1" jha.0001
EndChar

StartChar: Ja
Encoding: 26 2334 26
Width: 1708
VWidth: 0
Flags: W
HStem: 641 104<1026 1111.7> 879 20G<1393 1474.24> 969 262<610.848 747.809> 1167 123<391.934 499.344>
VStem: 844 180<240.378 641 732.254 1019.63>
AnchorPoint: "virama" 905 -246 basechar 0
AnchorPoint: "repha" 860 1094 basechar 0
AnchorPoint: "aakaara" 1462 829 basechar 0
AnchorPoint: "ekaara" 246 1124 basechar 0
AnchorPoint: "iikaara" 1186 1180 basechar 0
AnchorPoint: "bindu" 905 1516 basechar 0
LayerCount: 2
Fore
SplineSet
319 1290 m 1xd8
 340 1290 l 2xd8
 371 1290 412 1287 463 1264 c 0
 514 1241 555 1211 584 1188 c 1
 592 1208 609 1231 662 1231 c 0
 709 1231 784 1194 827 1157 c 1
 921 1167 989 1208 1112 1241 c 1
 1122 1241 l 2
 1140 1241 1178 1235 1221 1206 c 0
 1246 1190 1278 1159 1278 1139 c 0
 1278 1133 1276 1126 1270 1122 c 0
 1164 1042 1034 1052 1030 952 c 1
 1026 745 l 1
 1051 739 1079 729 1116 713 c 0
 1134 705 1145 696 1151 694 c 1
 1151 705 l 2
 1151 885 1350 885 1393 891 c 2
 1452 899 l 1
 1591 774 l 1
 1532 768 l 2
 1479 762 1331 766 1331 623 c 0
 1331 506 1360 575 1432 442 c 0
 1436 432 1446 410 1415 406 c 0
 1413 406 1411 406 1409 406 c 0
 1384 406 1331 418 1286 459 c 0
 1186 549 1163 590 1112 623 c 0
 1106 625 1079 625 1024 641 c 1
 1022 547 l 1
 1024 193 l 2
 1024 148 1018 112 965 106 c 1
 1076 12 1137 -2 1307 -100 c 2
 1395 -152 l 1
 1350 -221 l 1
 1262 -170 l 2
 1164 -113 1069 -75 934 23 c 0
 780 136 717 215 606 311 c 0
 581 331 573 348 573 360 c 0
 573 372 584 379 594 381 c 1
 602 381 l 2
 637 381 684 356 702 344 c 0
 761 303 807 263 838 240 c 1
 842 248 844 260 844 274 c 2
 842 633 l 1
 850 1038 l 1
 850 1047 l 1
 846 1049 842 1049 838 1051 c 0
 797 1069 774 1088 766 1094 c 1
 756 1071 762 1022 748 983 c 0
 744 973 735 969 721 969 c 0xe8
 698 969 663 981 643 993 c 0
 604 1013 588 1036 582 1042 c 0
 535 1099 526 1124 520 1130 c 0
 491 1150 477 1161 471 1165 c 1
 467 1165 465 1167 463 1167 c 2
 453 1167 l 1
 414 1161 389 1110 330 1067 c 2
 295 1042 l 1
 127 1155 l 1
 162 1182 l 2
 209 1217 221 1282 319 1290 c 1xd8
EndSplineSet
Substitution2: "Contextual Form 0001-1" Ja.0001
EndChar

StartChar: Ta
Encoding: 27 2335 27
Width: 1644
VWidth: 0
Flags: W
HStem: -68 123<754.782 1145.23> 895 21G<499 514> 1026 123<700.468 830.966>
VStem: 156 180<342.135 501.898> 825 181<914.583 981.548>
AnchorPoint: "virama" 819 -246 basechar 0
AnchorPoint: "repha" 805 1087 basechar 0
AnchorPoint: "aakaara" 1401 774 basechar 0
AnchorPoint: "iikaara" 1309 1198 basechar 0
AnchorPoint: "ekaara" 344 1198 basechar 0
AnchorPoint: "bindu" 819 1516 basechar 0
LayerCount: 2
Fore
SplineSet
1303 1266 m 1
 1438 1141 l 1
 1376 1137 l 1
 1235 1125 1171 1128 1171 1030 c 2
 1171 1016 l 1
 1175 950 1294 872 1407 817 c 2
 1499 772 l 1
 1485 686 l 1
 1395 731 l 2
 1303 778 1128 874 1042 983 c 1
 1019 952 1006 923 1006 903 c 2
 1006 889 l 2
 1006 862 993 840 946 799 c 0
 764 641 553 678 436 565 c 0
 364 495 336 438 336 391 c 0
 336 350 354 316 379 289 c 0
 516 129 605 94 836 61 c 0
 863 57 886 55 909 55 c 0
 1077 55 1260 129 1307 199 c 2
 1329 233 l 1
 1505 129 l 1
 1483 96 l 2
 1424 8 1235 -68 1032 -68 c 0
 1001 -68 971 -67 934 -61 c 0
 672 -24 434 70 233 301 c 1
 182 356 156 416 156 473 c 0
 156 539 188 602 264 676 c 0
 403 811 610 766 774 909 c 0
 821 950 825 963 825 971 c 2
 825 985 l 2
 825 995 825 1008 831 1026 c 1
 786 1028 730 1036 664 1075 c 0
 652 1083 637 1092 621 1104 c 1
 578 1098 550 1042 532 913 c 0
 530 905 524 895 504 895 c 0
 494 895 481 897 465 903 c 0
 432 913 370 948 354 987 c 2
 233 1282 l 1
 410 1225 l 1
 420 1202 l 1
 443 1222 467 1229 510 1229 c 0
 539 1229 569 1224 604 1210 c 0
 659 1187 690 1159 700 1151 c 1
 710 1149 719 1149 727 1149 c 2
 743 1149 l 1
 827 1151 854 1157 877 1165 c 0
 908 1177 936 1204 1018 1255 c 0
 1024 1259 1030 1262 1038 1262 c 0
 1058 1262 1083 1253 1106 1241 c 1
 1145 1251 1192 1256 1241 1260 c 2
 1303 1266 l 1
EndSplineSet
Substitution2: "Contextual Form 0001-1" Ta.0001
EndChar

StartChar: Tha
Encoding: 28 2336 28
Width: 1683
VWidth: 0
Flags: W
HStem: -61 122<637.949 1051.01>
VStem: 156 180<306.536 655.801> 1348 180<303.972 594.707>
AnchorPoint: "virama" 831 -246 basechar 0
AnchorPoint: "aakaara" 1343 1100 basechar 0
AnchorPoint: "repha" 885 1198 basechar 0
AnchorPoint: "iikaara" 885 1198 basechar 0
AnchorPoint: "ekaara" 750 1081 basechar 0
AnchorPoint: "bindu" 831 1516 basechar 0
LayerCount: 2
Fore
SplineSet
870 1049 m 1
 618 854 336 856 336 414 c 0
 336 314 377 235 420 190 c 0
 481 122 598 69 770 61 c 1
 803 61 l 2
 1061 61 1338 197 1348 455 c 1
 1348 473 l 1
 1346 487 l 1
 1338 794 1060 963 874 1047 c 1
 870 1049 l 1
938 1108 m 1
 1214 969 1528 719 1528 391 c 2
 1528 369 l 1
 1518 80 1225 -61 926 -61 c 2
 887 -61 l 1
 701 -53 443 21 279 197 c 0
 195 287 156 383 156 496 c 0
 156 1031 574 981 799 1251 c 1
 825 1284 l 1
 999 1176 l 1
 971 1145 l 2
 959 1131 948 1118 938 1108 c 1
EndSplineSet
Substitution2: "Contextual Form 0001-1" Tha.0001
EndChar

StartChar: Da
Encoding: 29 2337 29
Width: 1296
VWidth: 0
Flags: W
HStem: 915 297<311.749 419.903>
VStem: 678 180<144.096 649>
AnchorPoint: "virama" 702 -246 basechar 0
AnchorPoint: "repha" 621 1051 basechar 0
AnchorPoint: "aakaara" 1032 1204 basechar 0
AnchorPoint: "iikaara" 1032 1204 basechar 0
AnchorPoint: "ekaara" 246 1174 basechar 0
AnchorPoint: "bindu" 702 1516 basechar 0
LayerCount: 2
Fore
SplineSet
688 989 m 1
 674 989 l 2
 608 989 520 1040 479 1079 c 1
 452 1059 453 987 420 926 c 0
 418 922 411 915 393 915 c 0
 383 915 372 918 356 922 c 0
 323 932 260 967 244 1006 c 2
 133 1257 l 1
 309 1200 l 1
 311 1196 l 1
 327 1212 342 1212 381 1212 c 0
 469 1212 564 1130 578 1116 c 1
 719 1136 800 1207 954 1264 c 0
 960 1266 967 1268 973 1268 c 0
 1028 1268 1122 1204 1122 1161 c 0
 1122 1155 1120 1153 1118 1151 c 0
 999 1020 931 932 825 819 c 1
 858 778 862 745 862 692 c 0
 862 665 860 637 860 598 c 0
 860 563 860 524 858 485 c 0
 848 84 867 84 793 25 c 0
 777 11 760 4 748 0 c 1
 828 -41 912 -64 1049 -125 c 2
 1139 -166 l 1
 1145 -260 l 1
 1053 -219 l 2
 930 -164 815 -142 639 -33 c 0
 492 57 428 139 344 209 c 0
 334 219 309 244 309 262 c 0
 309 280 320 283 340 283 c 0
 360 283 387 277 424 254 c 0
 508 203 563 146 594 121 c 1
 600 123 611 125 623 135 c 0
 686 186 668 155 678 571 c 0
 680 598 680 622 680 649 c 1
 446 477 l 2
 442 475 436 473 424 473 c 0
 404 473 369 479 330 506 c 0
 305 522 270 552 270 575 c 0
 270 581 272 586 276 590 c 0
 401 701 479 755 596 872 c 0
 639 915 676 952 711 991 c 1
 688 989 l 1
EndSplineSet
Substitution2: "Contextual Form 0001-1" Da.0001
EndChar

StartChar: Dha
Encoding: 30 2338 30
Width: 1871
VWidth: 0
Flags: W
HStem: -68 123<1101.09 1304.89> 510 123<1332 1435.94> 1026 123<888.416 1041.21> 1106 123<773.416 862.782>
VStem: 1536 180<243.32 416.551>
AnchorPoint: "virama" 918 -246 basechar 0
AnchorPoint: "repha" 983 1087 basechar 0
AnchorPoint: "aakaara" 1364 1210 basechar 0
AnchorPoint: "iikaara" 1364 1210 basechar 0
AnchorPoint: "ekaara" 541 1186 basechar 0
AnchorPoint: "bindu" 918 1516 basechar 0
LayerCount: 2
Fore
SplineSet
1305 1274 m 0xe8
 1358 1274 1454 1210 1454 1169 c 0
 1454 1163 1452 1157 1450 1155 c 0
 1286 1003 1216 889 1028 766 c 0
 833 639 686 584 510 506 c 1
 586 492 696 453 764 408 c 0
 944 291 958 174 981 158 c 0
 1120 58 1098 55 1141 55 c 0
 1151 55 1166 59 1180 61 c 0
 1358 104 1495 172 1532 340 c 0
 1534 354 1536 365 1536 373 c 0
 1536 393 1532 412 1526 424 c 0
 1506 469 1473 487 1403 510 c 1
 1366 510 1305 430 1217 389 c 2
 1174 369 l 1
 1014 487 l 1
 1057 508 l 2
 1129 541 1163 633 1280 633 c 0
 1294 633 1313 633 1352 621 c 0
 1473 582 1647 490 1700 367 c 0
 1710 342 1716 320 1716 291 c 0
 1716 277 1714 264 1712 250 c 0
 1671 62 1515 -16 1327 -61 c 0
 1309 -65 1289 -68 1264 -68 c 0
 1108 -68 954 72 899 113 c 0
 752 219 716 336 700 350 c 1
 596 401 508 379 289 418 c 0
 264 422 154 475 154 522 c 0
 154 528 158 535 166 539 c 0
 485 699 796 780 1042 1026 c 1
 1034 1026 l 2xe8
 1009 1026 971 1030 922 1053 c 0
 881 1071 850 1096 840 1102 c 1
 836 1102 825 1106 807 1106 c 2
 795 1106 l 1
 777 1104 772 1028 733 956 c 0
 731 952 721 938 680 948 c 0
 649 956 586 987 561 1028 c 2
 422 1266 l 1
 590 1223 l 1
 604 1200 l 1
 616 1218 629 1227 670 1229 c 1
 684 1229 l 2xd8
 741 1229 795 1219 848 1192 c 0
 885 1174 908 1155 918 1149 c 1
 920 1149 l 1
 1059 1159 1134 1221 1288 1270 c 0
 1292 1272 1299 1274 1305 1274 c 0xe8
EndSplineSet
Substitution2: "Contextual Form 0001-1" Dha.0001
EndChar

StartChar: Na
Encoding: 31 2339 31
Width: 1818
VWidth: 0
Flags: W
HStem: 944 125<451.381 573.521>
VStem: 156 180<234.768 744.991> 582 182<445.858 938.68> 913 181<-20.0056 310.289 436 944> 1214 181<469.575 936.021>
AnchorPoint: "virama" 883 -246 basechar 0
AnchorPoint: "repha" 991 1210 basechar 0
AnchorPoint: "aakaara" 1575 313 basechar 0
AnchorPoint: "iikaara" 1415 1192 basechar 0
AnchorPoint: "ekaara" 303 854 basechar 0
AnchorPoint: "bindu" 985 1516 basechar 0
LayerCount: 2
Fore
SplineSet
1085 -207 m 1
 1092 -303 l 1
 1001 -262 l 2
 921 -227 823 -211 717 -186 c 0
 578 -153 382 -80 276 86 c 0
 182 229 156 356 156 485 c 0
 156 616 184 749 213 899 c 0
 236 1018 348 1069 475 1069 c 0
 504 1069 539 1064 584 1044 c 0
 748 970 764 858 764 772 c 0
 764 749 762 731 762 715 c 0
 762 625 749 524 737 442 c 1
 766 454 788 461 819 461 c 0
 842 461 878 450 909 436 c 1
 901 1251 l 2
 901 1265 912 1272 928 1272 c 0
 946 1272 973 1265 991 1257 c 0
 1050 1230 1075 1192 1079 1180 c 0
 1091 1145 1094 1110 1096 1083 c 1
 1205 1132 1246 1247 1350 1253 c 1
 1354 1253 l 2
 1405 1253 1507 1196 1507 1151 c 0
 1507 1149 1505 1145 1505 1143 c 0
 1446 965 1395 815 1395 643 c 0
 1395 584 1401 522 1413 461 c 0
 1415 445 1421 436 1423 432 c 1
 1446 422 1532 395 1618 334 c 2
 1698 276 l 1
 1612 233 l 1
 1532 293 l 2
 1524 299 1450 303 1327 397 c 0
 1268 442 1241 488 1233 535 c 0
 1221 601 1214 662 1214 725 c 0
 1214 807 1223 883 1241 961 c 1
 1212 949 1175 940 1126 940 c 0
 1118 940 1108 938 1085 944 c 1
 1094 -41 l 2
 1094 -51 1086 -61 1063 -61 c 0
 1010 -61 915 -6 913 41 c 0
 909 145 890 256 874 313 c 1
 798 276 702 209 698 207 c 0
 694 205 688 203 676 203 c 0
 662 203 643 205 616 217 c 0
 583 233 526 272 526 305 c 0
 526 379 582 609 582 797 c 0
 582 852 575 907 563 944 c 1
 487 936 409 895 393 809 c 0
 364 659 336 528 336 403 c 0
 336 280 364 166 440 49 c 0
 495 -37 522 -41 639 -68 c 0
 727 -88 846 -102 993 -168 c 1
 1085 -207 l 1
EndSplineSet
Substitution2: "Contextual Form 0001-1" Na.0001
EndChar

StartChar: ta
Encoding: 32 2340 32
Width: 1290
VWidth: 0
Flags: W
HStem: 938 307<303.752 433.902>
VStem: 641 180<45.6296 811>
AnchorPoint: "virama" 616 -246 basechar 0
AnchorPoint: "repha" 676 1100 basechar 0
AnchorPoint: "aakaara" 1044 1223 basechar 0
AnchorPoint: "iikaara" 1044 1223 basechar 0
AnchorPoint: "ekaara" 252 1192 basechar 0
AnchorPoint: "bindu" 616 1516 basechar 0
LayerCount: 2
Fore
SplineSet
985 1286 m 0
 1036 1286 1135 1223 1135 1182 c 0
 1135 1174 1130 1165 1124 1163 c 0
 987 1093 889 1084 791 1008 c 1
 814 981 819 966 819 958 c 0
 819 952 815 948 815 942 c 2
 821 137 l 2
 823 -103 873 -39 1059 -139 c 2
 1149 -188 l 1
 1120 -266 l 1
 1030 -217 l 2
 926 -160 641 -72 641 219 c 1
 635 811 l 1
 541 692 422 524 332 420 c 0
 328 416 319 412 305 412 c 0
 285 412 258 417 221 440 c 0
 194 456 154 489 154 514 c 0
 154 518 156 522 158 526 c 0
 320 737 377 891 578 1079 c 1
 549 1093 516 1116 506 1122 c 1
 438 1122 471 1048 434 952 c 0
 432 946 424 938 406 938 c 0
 398 938 385 940 371 944 c 0
 338 954 278 987 258 1028 c 2
 137 1274 l 1
 303 1225 l 1
 319 1245 338 1245 383 1245 c 0
 414 1245 442 1237 469 1229 c 0
 549 1200 596 1163 598 1163 c 0
 600 1163 602 1161 604 1161 c 2
 612 1161 l 1
 747 1171 822 1233 969 1282 c 0
 973 1284 979 1286 985 1286 c 0
EndSplineSet
Substitution2: "Contextual Form 0001-1" ta.0001
EndChar

StartChar: tha
Encoding: 33 2341 33
Width: 1513
VWidth: 0
Flags: W
HStem: -61 122<370.743 700.609> 1130 123<576.898 839.678>
VStem: 156 180<116.467 355.843> 225 181<814.065 973.509> 850 180<248 624.054>
AnchorPoint: "virama" 741 -246 basechar 0
AnchorPoint: "repha" 709 1192 basechar 0
AnchorPoint: "aakaara" 1102 1198 basechar 0
AnchorPoint: "iikaara" 1102 1198 basechar 0
AnchorPoint: "ekaara" 502 1147 basechar 0
AnchorPoint: "bindu" 741 1516 basechar 0
LayerCount: 2
Fore
SplineSet
883 0 m 1xd8
 822 -41 729 -61 625 -61 c 0
 621 -61 616 -61 612 -61 c 0
 528 -61 355 -60 244 59 c 0
 172 139 156 209 156 281 c 0xe8
 156 365 187 448 248 520 c 0
 314 598 383 634 457 659 c 1
 295 735 225 852 225 942 c 0
 225 965 228 989 238 1014 c 0
 306 1180 459 1245 645 1253 c 1
 664 1253 l 2
 783 1253 909 1175 940 1157 c 1
 956 1196 994 1216 1014 1249 c 2
 1036 1284 l 1
 1212 1180 l 1
 1190 1147 l 1
 1155 1092 1116 1077 1112 1032 c 0
 1063 497 1030 508 1030 207 c 1
 1032 154 l 1
 1036 150 l 1
 1032 145 l 1
 1032 106 l 1
 1034 -29 1075 -90 1085 -100 c 1
 1099 -108 1174 -123 1274 -172 c 2
 1366 -217 l 1
 1352 -303 l 1
 1262 -258 l 2
 1246 -250 1133 -236 1010 -150 c 0
 944 -105 906 -57 883 0 c 1xd8
874 629 m 1
 684 531 551 568 420 414 c 0
 365 348 336 273 336 199 c 0
 336 150 351 107 369 76 c 1
 406 68 455 61 502 61 c 0
 561 61 614 68 655 84 c 0
 766 125 756 170 834 233 c 1
 850 248 l 1
 850 289 l 2
 850 449 858 523 874 629 c 1
905 846 m 1
 913 907 920 979 928 1069 c 1
 809 1120 856 1130 786 1130 c 2
 772 1130 l 1
 612 1122 479 1067 418 915 c 0
 410 895 406 876 406 860 c 0xd8
 406 833 414 811 422 793 c 0
 445 750 461 747 471 745 c 0
 537 727 563 719 594 719 c 0
 645 719 719 750 858 844 c 0
 864 848 873 850 881 850 c 0
 889 850 897 848 905 846 c 1
EndSplineSet
Substitution2: "Contextual Form 0001-1" tha.0001
EndChar

StartChar: da
Encoding: 34 2342 34
Width: 1480
VWidth: 0
Flags: W
HStem: 1051 110<647.855 730.579> 1090 124<604.207 669.104> 1130 123<1125.18 1255.79>
VStem: 598 180<45.7641 290.474>
AnchorPoint: "virama" 764 -246 basechar 0
AnchorPoint: "repha" 756 1100 basechar 0
AnchorPoint: "aakaara" 1204 1192 basechar 0
AnchorPoint: "iikaara" 1204 1192 basechar 0
AnchorPoint: "ekaara" 399 1155 basechar 0
AnchorPoint: "bindu" 764 1516 basechar 0
LayerCount: 2
Fore
SplineSet
680 696 m 1x30
 743 678 789 643 834 614 c 1
 932 698 1030 733 1151 813 c 1
 1190 838 l 1
 1356 723 l 1
 1319 698 l 2
 1184 606 1083 579 983 487 c 1
 989 483 l 1
 967 473 l 1
 959 465 948 454 940 444 c 0
 842 333 778 256 778 115 c 0
 778 -2 854 -25 928 -166 c 1
 956 -223 l 1
 784 -174 l 1
 756 -117 l 2
 713 -33 598 52 598 197 c 0
 598 353 666 438 766 549 c 1
 750 565 737 578 729 584 c 1
 588 627 488 620 293 651 c 0
 277 653 156 697 156 756 c 0
 156 766 161 774 184 774 c 2
 195 774 l 2
 250 774 295 762 346 762 c 0
 422 762 529 786 662 956 c 0
 719 1030 737 1045 737 1049 c 0
 737 1051 735 1051 733 1051 c 0x90
 698 1061 665 1080 647 1090 c 0
 645 1090 639 1087 633 1083 c 0
 586 1058 606 995 575 915 c 0
 573 911 567 903 547 903 c 0
 539 903 524 905 510 909 c 0
 477 919 415 950 397 991 c 2
 287 1239 l 1
 449 1188 l 1
 457 1198 461 1196 473 1202 c 0
 489 1210 503 1214 528 1214 c 0x50
 591 1214 655 1175 686 1161 c 1
 692 1161 l 1x90
 862 1175 959 1216 1133 1253 c 0
 1137 1253 1141 1253 1145 1253 c 0
 1198 1253 1294 1198 1294 1151 c 0
 1294 1139 1286 1132 1280 1130 c 0
 999 1048 1016 1077 838 850 c 0
 781 776 725 727 676 696 c 1
 680 696 l 1x30
EndSplineSet
Substitution2: "Contextual Form 0001-1" da.0001
EndChar

StartChar: dha
Encoding: 35 2343 35
Width: 1671
VWidth: 0
Flags: W
HStem: -61 122<503.845 839.368> 1061 123<791.735 1111.21>
VStem: 156 180<231.76 600.086> 1096 178<207 845.359> 1112 184<539.72 1058.31>
AnchorPoint: "virama" 809 -246 basechar 0
AnchorPoint: "repha" 954 1122 basechar 0
AnchorPoint: "aakaara" 1298 1217 basechar 0
AnchorPoint: "iikaara" 1298 1217 basechar 0
AnchorPoint: "ekaara" 530 965 basechar 0
AnchorPoint: "bindu" 911 1516 basechar 0
LayerCount: 2
Fore
SplineSet
1235 1303 m 1xf0
 1411 1198 l 1
 1386 1163 l 2
 1343 1104 1298 1091 1296 1044 c 0xe8
 1284 759 1274 566 1274 328 c 1
 1278 20 l 1
 1282 -91 1352 -113 1434 -154 c 2
 1526 -199 l 1
 1511 -285 l 1
 1421 -240 l 2
 1327 -193 1157 -98 1110 35 c 1
 1008 -10 928 -61 733 -61 c 0
 600 -61 412 -10 279 125 c 0
 187 219 156 309 156 463 c 0
 156 686 262 858 444 1020 c 0
 579 1139 741 1184 907 1184 c 0
 970 1184 1032 1179 1100 1167 c 2
 1122 1163 l 1
 1138 1212 1183 1233 1210 1270 c 2
 1235 1303 l 1xf0
1112 1057 m 1
 1085 1059 1057 1061 1030 1061 c 0
 891 1061 743 1022 616 909 c 0
 438 749 336 590 336 381 c 0
 336 346 338 311 344 276 c 0
 354 202 387 152 414 125 c 0
 443 94 495 61 610 61 c 0
 825 61 873 142 1063 197 c 1
 1096 207 l 1xf0
 1094 410 l 1
 1094 629 1102 811 1112 1057 c 1
EndSplineSet
Substitution2: "Contextual Form 0001-1" dha.0001
EndChar

StartChar: na
Encoding: 36 2344 36
Width: 1409
VWidth: 0
Flags: W
HStem: 500 123<336.579 466.35> 983 283<488.189 620.81>
VStem: 156 180<643.236 717> 754 180<5.93481 739.295>
AnchorPoint: "virama" 717 -246 basechar 0
AnchorPoint: "repha" 831 1094 basechar 0
AnchorPoint: "aakaara" 1163 1223 basechar 0
AnchorPoint: "iikaara" 1163 1223 basechar 0
AnchorPoint: "ekaara" 457 1217 basechar 0
AnchorPoint: "bindu" 717 1516 basechar 0
LayerCount: 2
Fore
SplineSet
1102 1286 m 0
 1157 1286 1253 1225 1253 1182 c 0
 1253 1174 1247 1165 1243 1163 c 2
 1145 1116 l 1
 1100 1091 1056 1065 1001 1049 c 1
 970 1035 938 1017 913 999 c 1
 870 972 844 938 821 901 c 1
 829 897 842 889 846 887 c 0
 928 832 936 786 936 737 c 0
 936 723 934 708 934 694 c 2
 928 391 l 2
 928 338 930 258 934 113 c 0
 936 13 963 -31 969 -37 c 1
 977 -41 1040 -70 1124 -117 c 2
 1214 -166 l 1
 1180 -242 l 1
 1092 -190 l 2
 1043 -163 958 -140 866 -66 c 0
 770 12 758 80 754 195 c 0
 750 340 748 422 748 477 c 2
 754 741 l 1
 731 682 700 622 647 565 c 0
 606 522 564 500 498 500 c 0
 453 500 401 510 348 535 c 0
 325 545 307 557 293 565 c 0
 191 628 156 698 156 745 c 0
 156 753 156 766 158 774 c 2
 170 813 l 1
 350 717 l 1
 338 676 l 2
 338 674 336 672 336 664 c 0
 336 648 346 631 350 627 c 1
 354 627 361 623 375 623 c 0
 402 623 438 637 475 676 c 0
 561 768 574 881 627 979 c 1
 621 989 l 1
 617 985 610 983 598 983 c 0
 590 983 577 985 563 989 c 0
 530 999 467 1030 449 1071 c 2
 344 1300 l 1
 485 1255 l 1
 495 1263 504 1264 516 1266 c 0
 518 1266 520 1266 522 1266 c 0
 528 1266 537 1268 543 1268 c 0
 654 1268 768 1165 776 1157 c 1
 784 1157 l 1
 807 1159 828 1163 844 1167 c 1
 985 1233 l 2
 1016 1249 1048 1268 1085 1282 c 0
 1091 1284 1096 1286 1102 1286 c 0
621 989 m 1
 631 987 l 1
 651 1024 680 1059 719 1092 c 1
 692 1110 669 1131 655 1143 c 1
 632 1137 650 1071 627 997 c 0
 627 995 625 991 621 989 c 1
EndSplineSet
Substitution2: "Contextual Form 0001-1" na.0001
EndChar

StartChar: pa
Encoding: 37 2346 37
Width: 1665
VWidth: 0
Flags: W
HStem: 332 123<611.432 861.179> 1028 221<578.31 697.409>
VStem: 346 180<599.262 944.336> 1059 174<-5.27549 406 635 1137.05>
AnchorPoint: "virama" 825 -246 basechar 0
AnchorPoint: "repha" 492 1081 basechar 0
AnchorPoint: "aakaara" 1217 1223 basechar 0
AnchorPoint: "iikaara" 1217 1223 basechar 0
AnchorPoint: "ekaara" 246 1198 basechar 0
AnchorPoint: "bindu" 825 1516 basechar 0
LayerCount: 2
Fore
SplineSet
360 1102 m 1
 385 1036 l 1
 395 1067 l 2
 395 1069 395 1069 397 1073 c 1
 389 1079 374 1092 360 1102 c 1
645 1249 m 0
 698 1249 797 1186 797 1145 c 0
 797 1139 795 1130 791 1128 c 0
 768 1110 747 1102 727 1092 c 1
 692 1069 659 1040 610 1028 c 1
 594 1012 581 996 575 973 c 0
 555 897 526 803 526 723 c 0
 526 647 545 580 584 504 c 0
 596 481 606 471 608 469 c 0
 620 465 662 455 711 455 c 2
 748 455 l 1
 852 461 905 548 1024 616 c 1
 1059 635 l 1
 1053 1159 l 2
 1053 1222 1103 1241 1128 1276 c 2
 1153 1309 l 1
 1327 1204 l 1
 1305 1169 l 1
 1270 1120 1233 1110 1233 1077 c 2
 1245 82 l 1
 1245 -172 1266 -63 1452 -186 c 2
 1536 -242 l 1
 1473 -299 l 1
 1386 -244 l 2
 1329 -207 1065 -127 1065 164 c 1
 1063 406 l 1
 1016 369 960 336 874 332 c 1
 834 332 l 2
 766 332 670 334 553 406 c 0
 496 443 445 492 412 553 c 0
 367 643 346 721 346 805 c 0
 346 846 350 889 360 936 c 1
 356 936 350 940 348 940 c 0
 315 950 254 987 238 1026 c 2
 219 1069 l 1
 203 1098 176 1139 176 1176 c 0
 176 1178 176 1180 176 1182 c 2
 135 1282 l 1
 270 1237 l 1
 358 1235 436 1153 446 1145 c 1
 475 1174 524 1188 563 1206 c 1
 583 1220 604 1233 627 1245 c 0
 633 1247 637 1249 645 1249 c 0
EndSplineSet
Substitution2: "Contextual Form 0001-1" pa.0001
EndChar

StartChar: pha
Encoding: 38 2347 38
Width: 1677
VWidth: 0
Flags: W
HStem: 565 123<964.192 1324.32> 1040 123<489.34 683.375>
VStem: 156 180<316.203 543.57> 557 180<132.588 358.225> 1341 181<303.427 532.743>
AnchorPoint: "virama" 856 -246 basechar 0
AnchorPoint: "repha" 842 1051 basechar 0
AnchorPoint: "aakaara" 1333 1198 basechar 0
AnchorPoint: "iikaara" 1333 1198 basechar 0
AnchorPoint: "ekaara" 283 1106 basechar 0
AnchorPoint: "bindu" 856 1516 basechar 0
LayerCount: 2
Fore
SplineSet
483 893 m 1
 549 934 616 987 684 1026 c 1
 680 1028 666 1036 662 1038 c 0
 660 1038 653 1040 637 1040 c 0
 623 1040 600 1038 569 1032 c 0
 489 1018 479 993 479 954 c 0
 479 938 483 920 483 893 c 1
1274 1262 m 0
 1327 1262 1423 1198 1423 1157 c 0
 1423 1147 1417 1141 1413 1139 c 0
 1143 1020 968 1006 741 840 c 0
 692 803 643 772 598 741 c 0
 451 641 336 551 336 381 c 0
 336 221 409 223 569 131 c 1
 561 178 557 217 557 254 c 0
 557 539 766 688 1075 688 c 0
 1159 688 1237 684 1331 641 c 0
 1356 631 1379 616 1397 604 c 0
 1512 526 1522 455 1522 389 c 0
 1522 164 1388 135 1284 88 c 1
 1239 70 l 1
 1081 186 l 1
 1124 207 l 1
 1239 258 1341 264 1341 471 c 0
 1341 508 1331 537 1323 551 c 1
 1303 557 1257 565 1198 565 c 0
 934 565 737 434 737 172 c 0
 737 113 749 45 772 -33 c 0
 774 -37 779 -59 748 -61 c 1
 743 -61 l 2
 718 -61 663 -47 618 -4 c 0
 561 51 156 197 156 463 c 0
 156 631 254 731 379 821 c 1
 352 833 305 862 293 895 c 2
 172 1190 l 1
 348 1133 l 1
 348 1130 l 1
 379 1153 467 1163 514 1163 c 0
 559 1163 598 1155 637 1141 c 0
 676 1125 699 1112 705 1108 c 1
 711 1108 715 1106 721 1106 c 0
 731 1106 750 1108 770 1112 c 0
 960 1145 1062 1203 1257 1260 c 0
 1261 1262 1268 1262 1274 1262 c 0
EndSplineSet
Substitution2: "Contextual Form 0001-1" pha.0001
EndChar

StartChar: ba
Encoding: 39 2348 39
Width: 1290
VWidth: 0
Flags: W
HStem: 178 123<352.774 510.784> 1122 183<1001 1090.18> 1145 123<392.5 562.192>
VStem: 158 178<346.087 540.709> 649 180<-13.6562 207 500 730.923>
AnchorPoint: "virama" 600 -246 basechar 0
AnchorPoint: "ekaara" 322 1204 basechar 0
AnchorPoint: "iikaara" 1047 1241 basechar 0
AnchorPoint: "aakaara" 1047 1241 basechar 0
AnchorPoint: "repha" 709 1112 basechar 0
AnchorPoint: "bindu" 702 1516 basechar 0
LayerCount: 2
Fore
SplineSet
512 178 m 0xd8
 365 178 170 312 158 457 c 1
 158 459 l 2
 158 465 156 471 156 485 c 0
 156 610 232 694 324 768 c 0
 484 897 415 773 614 1090 c 1
 616 1092 l 1
 565 1119 536 1145 532 1145 c 0
 491 1145 512 1094 473 1014 c 0
 471 1010 462 1001 442 1001 c 0
 434 1001 422 1004 408 1008 c 0
 375 1018 311 1053 295 1092 c 2
 248 1200 l 1
 213 1221 l 1
 227 1245 l 1
 209 1288 l 1
 246 1276 l 1
 254 1290 l 1
 315 1253 l 1
 338 1247 l 1
 352 1263 375 1268 410 1268 c 0xb8
 443 1268 481 1259 512 1247 c 0
 588 1216 629 1178 635 1174 c 1
 645 1174 l 2
 684 1174 721 1184 750 1196 c 1
 777 1214 807 1227 842 1239 c 1
 881 1259 922 1282 969 1300 c 0
 975 1302 979 1305 985 1305 c 0
 1040 1305 1137 1241 1137 1200 c 0
 1137 1192 1134 1186 1130 1184 c 0
 1087 1153 1042 1136 1001 1122 c 1
 954 1098 l 2
 942 1092 927 1085 911 1079 c 1
 886 1061 870 1036 866 1001 c 0
 841 667 827 514 827 215 c 1
 829 14 l 2
 831 -90 879 -13 1063 -195 c 1
 1126 -256 l 1
 995 -260 l 1
 932 -199 l 2
 922 -189 651 -58 649 96 c 2
 647 207 l 1
 608 189 563 178 512 178 c 0xd8
649 500 m 1
 651 602 660 695 666 797 c 1
 605 715 594 739 492 657 c 0
 402 585 336 509 336 403 c 0
 336 399 338 385 338 377 c 0
 342 332 367 307 373 303 c 0
 375 303 381 301 389 301 c 0
 483 301 584 389 625 469 c 2
 643 504 l 1
 649 500 l 1
EndSplineSet
Substitution2: "Contextual Form 0001-1" ba.0001
EndChar

StartChar: bha
Encoding: 40 2349 40
Width: 1634
VWidth: 0
Flags: W
HStem: 1026 123<761.483 912.927> 1118 123<639.312 713.329>
VStem: 532 181<386.568 563.589> 995 181<86.4825 504.634> 1038 181<198.893 657.105>
AnchorPoint: "virama" 825 -246 basechar 0
AnchorPoint: "repha" 860 1087 basechar 0
AnchorPoint: "aakaara" 1241 1210 basechar 0
AnchorPoint: "iikaara" 1241 1210 basechar 0
AnchorPoint: "ekaara" 418 1186 basechar 0
AnchorPoint: "bindu" 825 1516 basechar 0
LayerCount: 2
Fore
SplineSet
1182 1274 m 0xa8
 1235 1274 1331 1210 1331 1169 c 0
 1331 1163 1329 1157 1327 1155 c 0
 1192 1030 1118 931 993 829 c 1
 1038 815 1080 774 1098 756 c 0
 1204 650 1219 561 1219 467 c 0xa8
 1219 440 1216 418 1214 393 c 0
 1206 295 1176 222 1176 154 c 0
 1176 62 1216 -19 1427 -166 c 1
 1509 -225 l 1
 1432 -272 l 1
 1350 -215 l 2
 1074 -22 995 121 995 236 c 0xb0
 995 334 1038 432 1038 549 c 0
 1038 604 993 741 979 741 c 0
 954 741 913 729 872 709 c 0
 770 656 713 600 713 500 c 0
 713 447 729 377 770 285 c 2
 795 229 l 1
 618 287 l 1
 594 342 l 2
 555 434 534 506 532 565 c 1
 469 536 402 508 326 469 c 2
 285 449 l 1
 123 565 l 1
 166 588 l 1
 393 703 532 740 739 881 c 0
 811 930 867 977 918 1026 c 1
 911 1026 l 2xa8
 884 1026 844 1030 795 1053 c 0
 740 1078 702 1110 694 1114 c 0
 690 1114 684 1118 664 1118 c 2
 653 1118 l 1
 637 1116 643 1038 612 958 c 0
 610 950 598 938 557 948 c 0
 526 956 463 987 438 1028 c 2
 299 1266 l 1
 467 1223 l 1
 469 1221 l 1
 479 1239 489 1239 528 1241 c 1
 541 1241 l 2x68
 596 1241 649 1229 700 1204 c 0
 749 1179 781 1157 791 1149 c 1
 797 1149 l 1
 936 1157 1011 1221 1165 1270 c 0
 1169 1272 1176 1274 1182 1274 c 0xa8
EndSplineSet
Substitution2: "Contextual Form 0001-1" bha.0001
EndChar

StartChar: ma
Encoding: 41 2350 41
Width: 1609
VWidth: 0
Flags: W
HStem: 399 123<567.123 820.44>
VStem: 311 181<785.355 918.648> 393 180<530.932 747.482> 1008 182<-12.7453 290.073 365 1150.47>
AnchorPoint: "virama" 770 -246 basechar 0
AnchorPoint: "repha" 510 1081 basechar 0
AnchorPoint: "aakaara" 1161 1223 basechar 0
AnchorPoint: "iikaara" 1161 1223 basechar 0
AnchorPoint: "ekaara" 264 1198 basechar 0
AnchorPoint: "bindu" 770 1516 basechar 0
LayerCount: 2
Fore
SplineSet
379 1102 m 1x90
 397 1057 l 1
 401 1061 406 1065 416 1073 c 1
 408 1079 393 1090 379 1102 c 1x90
664 1249 m 0
 717 1249 815 1186 815 1145 c 0
 815 1139 813 1130 809 1128 c 0
 721 1060 670 1031 588 965 c 0
 555 940 536 919 522 901 c 0
 497 872 492 849 492 831 c 0xd0
 492 784 573 715 573 592 c 0
 573 569 571 545 565 522 c 1
 596 522 l 2
 789 522 897 447 1008 365 c 1
 997 1159 l 2
 997 1222 1048 1241 1073 1276 c 2
 1098 1309 l 1
 1272 1204 l 1
 1249 1169 l 1
 1214 1120 1178 1110 1178 1077 c 2
 1190 82 l 1
 1190 -172 1211 -63 1397 -186 c 2
 1481 -242 l 1
 1417 -299 l 1
 1331 -244 l 2
 1274 -207 1010 -127 1010 164 c 1
 1008 262 l 1
 826 391 872 399 768 399 c 2
 682 399 l 1
 588 393 487 336 426 285 c 1
 387 236 371 227 332 180 c 0
 326 174 317 170 307 170 c 0
 280 170 242 189 219 203 c 0
 168 234 156 262 156 276 c 0
 156 280 156 283 158 285 c 0
 178 320 213 358 254 393 c 1
 274 422 320 477 340 516 c 0
 377 582 393 633 393 674 c 0xb0
 393 768 311 815 311 913 c 0xd0
 311 927 313 947 319 963 c 1
 301 975 266 999 256 1026 c 2
 238 1069 l 1
 222 1098 195 1139 195 1176 c 0
 195 1178 195 1180 195 1182 c 2
 154 1282 l 1
 289 1237 l 1
 377 1235 455 1153 465 1145 c 1
 524 1155 565 1206 645 1245 c 0
 651 1247 656 1249 664 1249 c 0
EndSplineSet
Substitution2: "Contextual Form 0001-1" ma.0001
EndChar

StartChar: ya
Encoding: 42 2351 42
Width: 1687
VWidth: 0
Flags: W
HStem: 168 123<384.373 578.5> 371 121<838.21 967.875> 1016 221<665.116 784.572>
VStem: 156 180<372.344 580.25> 1085 183<-12.7453 295.504 377 1150.47>
AnchorPoint: "virama" 848 -246 basechar 0
AnchorPoint: "repha" 575 1069 basechar 0
AnchorPoint: "aakaara" 1239 1223 basechar 0
AnchorPoint: "iikaara" 1239 1223 basechar 0
AnchorPoint: "ekaara" 330 1186 basechar 0
AnchorPoint: "bindu" 848 1516 basechar 0
LayerCount: 2
Fore
SplineSet
469 1026 m 1
 471 1034 475 1049 481 1061 c 1
 473 1067 458 1080 444 1090 c 1
 469 1026 l 1
805 494 m 0
 907 494 1044 412 1085 377 c 1
 1075 1159 l 2
 1075 1222 1126 1241 1151 1276 c 2
 1176 1309 l 1
 1350 1204 l 1
 1327 1169 l 1
 1292 1120 1255 1110 1255 1077 c 2
 1268 82 l 1
 1268 -172 1289 -63 1475 -186 c 2
 1559 -242 l 1
 1495 -299 l 1
 1409 -244 l 2
 1352 -207 1087 -127 1087 164 c 1
 1085 270 l 1
 1005 315 950 365 944 369 c 0
 942 369 940 371 930 371 c 0
 811 371 801 197 621 172 c 0
 607 170 592 168 565 168 c 0
 375 168 156 315 156 530 c 0
 156 598 178 664 231 719 c 0
 319 813 445 785 539 799 c 1
 514 840 489 881 475 922 c 1
 422 922 345 963 322 1014 c 2
 303 1057 l 1
 287 1086 260 1126 260 1163 c 0
 260 1165 260 1167 260 1169 c 2
 219 1270 l 1
 354 1225 l 1
 442 1223 520 1141 530 1133 c 1
 535 1135 l 1
 566 1162 604 1176 645 1194 c 1
 665 1208 686 1221 711 1233 c 0
 717 1235 721 1237 729 1237 c 0
 782 1237 881 1174 881 1133 c 0
 881 1127 878 1118 874 1116 c 0
 851 1098 829 1087 809 1077 c 1
 776 1054 741 1028 694 1016 c 1
 669 991 645 936 645 897 c 0
 645 821 733 739 733 700 c 0
 733 692 729 686 717 682 c 1
 565 645 485 696 403 608 c 0
 356 559 336 506 336 449 c 0
 336 396 362 328 391 299 c 1
 399 297 417 291 442 291 c 0
 452 291 467 293 481 295 c 0
 587 309 608 474 778 492 c 0
 780 492 782 492 784 492 c 0
 788 492 797 494 805 494 c 0
EndSplineSet
Substitution2: "Contextual Form 0001-1" ya.0001
EndChar

StartChar: ra
Encoding: 43 2352 43
Width: 1179
VWidth: 0
Flags: W
HStem: 1008 260<260.657 396.904>
VStem: 494 180<276.285 1057.65>
AnchorPoint: "repha" 510 1130 basechar 0
AnchorPoint: "aakaara" 836 1217 basechar 0
AnchorPoint: "virama" 567 -246 basechar 0
AnchorPoint: "iikaara" 836 1217 basechar 0
AnchorPoint: "ekaara" 246 1217 basechar 0
AnchorPoint: "bindu" 567 1516 basechar 0
LayerCount: 2
Fore
SplineSet
500 1081 m 1
 469 1095 445 1108 412 1133 c 1
 404 1115 409 1067 397 1022 c 0
 395 1018 390 1008 367 1008 c 0
 357 1008 346 1010 330 1014 c 0
 297 1024 235 1059 219 1098 c 2
 135 1300 l 1
 260 1260 l 1
 274 1268 289 1268 307 1268 c 0
 375 1268 455 1210 475 1194 c 1
 575 1204 641 1247 762 1278 c 0
 766 1280 772 1280 776 1280 c 0
 829 1280 926 1221 926 1176 c 0
 926 1168 922 1161 920 1159 c 0
 809 1077 684 1087 680 989 c 1
 672 584 l 1
 674 229 l 2
 674 178 661 147 614 143 c 1
 670 100 l 1
 762 34 819 17 956 -63 c 2
 1044 -115 l 1
 999 -184 l 1
 911 -133 l 2
 817 -78 725 -43 584 59 c 0
 434 168 371 248 256 348 c 0
 244 360 221 383 221 399 c 0
 221 411 236 418 252 418 c 0
 275 418 311 410 352 381 c 0
 403 344 448 305 487 276 c 1
 489 282 494 293 494 311 c 2
 492 670 l 1
 500 1075 l 1
 500 1081 l 1
EndSplineSet
Substitution2: "Contextual Form 0001-1" ra.0001
EndChar

StartChar: la
Encoding: 44 2354 44
Width: 1646
VWidth: 0
Flags: W
HStem: -18 122<429.992 762.669> -2 123<590.462 963.51> 1008 276<692.471 826.902> 1161 125<852.1 909.457>
VStem: 156 180<183.536 329.176> 778 180<414.5 581.785> 1042 181<288.216 1008.36> 1075 182<281 682.897>
AnchorPoint: "aakaara" 1389 1217 basechar 0
AnchorPoint: "virama" 819 -246 basechar 0
AnchorPoint: "repha" 1067 1116 basechar 0
AnchorPoint: "iikaara" 1389 1217 basechar 0
AnchorPoint: "ekaara" 657 1229 basechar 0
AnchorPoint: "bindu" 1024 1516 basechar 0
LayerCount: 2
Fore
SplineSet
1329 1280 m 0x1e
 1382 1280 1479 1217 1479 1176 c 0
 1479 1170 1477 1163 1475 1161 c 0
 1379 1073 1274 1069 1251 967 c 0
 1228 869 1223 787 1223 707 c 0x1e
 1223 535 1257 377 1257 162 c 0
 1257 148 1245 141 1229 141 c 0
 1217 141 1200 143 1188 147 c 2
 739 301 l 2
 692 319 629 368 629 399 c 0
 629 407 633 414 645 418 c 1
 764 449 778 477 778 514 c 0
 778 557 764 594 752 614 c 1
 744 612 741 612 735 610 c 0
 542 540 436 452 348 270 c 0
 340 252 336 237 336 223 c 0
 336 182 361 149 369 143 c 0
 371 143 373 141 373 141 c 1
 449 110 489 104 526 104 c 0x9d
 575 104 623 121 705 121 c 0
 832 121 1030 78 1399 -88 c 2
 1489 -129 l 1
 1493 -223 l 1
 1403 -182 l 2
 1061 -28 917 -2 827 -2 c 0x4d
 766 -2 727 -18 649 -18 c 0
 592 -18 512 -8 393 41 c 0
 377 47 353 60 326 74 c 0
 222 135 174 209 160 268 c 0
 158 278 156 291 156 305 c 0
 156 325 158 346 168 369 c 0
 258 557 379 657 580 729 c 0
 594 735 618 739 641 739 c 0
 676 739 728 733 791 696 c 0
 824 678 851 654 874 631 c 0
 937 565 958 500 958 432 c 0
 958 397 948 367 907 340 c 1
 1075 281 l 1x8d
 1071 471 1042 620 1042 788 c 0
 1042 870 1048 959 1071 1059 c 1
 1053 1063 1018 1072 983 1090 c 0
 934 1115 897 1145 877 1161 c 1
 872 1161 l 1x9e
 845 1155 860 1092 827 1020 c 0
 825 1016 817 1008 799 1008 c 0
 791 1008 780 1008 766 1012 c 0
 733 1022 671 1053 651 1094 c 2
 543 1311 l 1
 692 1268 l 1
 702 1280 715 1280 735 1284 c 1
 741 1284 l 2x2e
 747 1284 756 1286 762 1286 c 0
 797 1286 837 1276 874 1260 c 0
 950 1223 985 1186 993 1180 c 1
 997 1180 999 1178 1001 1178 c 2
 1006 1178 l 1
 1166 1180 1178 1233 1313 1276 c 0
 1317 1278 1323 1280 1329 1280 c 0x1e
EndSplineSet
Substitution2: "Contextual Form 0001-1" la.0001
EndChar

StartChar: va
Encoding: 45 2357 45
Width: 1216
VWidth: 0
Flags: W
HStem: 1001 273<260.947 396.902> 1122 183<926 1014.18>
VStem: 168 180<468.623 700.656> 573 181<-13.6562 213.087 287 730.923>
AnchorPoint: "virama" 524 -246 basechar 0
AnchorPoint: "ekaara" 246 1204 basechar 0
AnchorPoint: "iikaara" 971 1241 basechar 0
AnchorPoint: "aakaara" 971 1241 basechar 0
AnchorPoint: "repha" 633 1112 basechar 0
AnchorPoint: "bindu" 627 1516 basechar 0
LayerCount: 2
Fore
SplineSet
909 1305 m 0x70
 964 1305 1061 1241 1061 1200 c 0
 1061 1192 1059 1186 1055 1184 c 0
 1012 1153 967 1136 926 1122 c 1x70
 879 1098 l 2
 867 1092 852 1085 836 1079 c 1
 811 1061 795 1036 791 1001 c 0
 766 667 752 514 752 215 c 1
 754 14 l 2
 756 -90 803 -13 987 -195 c 1
 1051 -256 l 1
 920 -260 l 1
 856 -199 l 2
 846 -189 575 -58 573 96 c 1
 573 190 l 1
 518 221 437 256 322 344 c 0
 199 438 168 546 168 655 c 0
 168 751 197 793 283 879 c 0
 342 938 414 959 549 1063 c 1
 567 1079 l 1
 510 1106 471 1137 453 1151 c 1
 414 1149 434 1094 397 1014 c 0
 395 1010 387 1001 367 1001 c 0
 359 1001 346 1004 332 1008 c 0
 299 1018 235 1053 219 1092 c 2
 172 1200 l 1
 137 1221 l 1
 152 1245 l 1
 133 1288 l 1
 170 1276 l 1
 178 1290 l 1
 238 1255 l 1
 258 1249 l 1
 270 1263 297 1274 334 1274 c 0xb0
 367 1274 403 1265 434 1253 c 0
 512 1222 553 1180 563 1174 c 1
 569 1174 l 2
 608 1174 645 1184 674 1196 c 1
 701 1214 731 1227 766 1239 c 1
 805 1259 846 1282 893 1300 c 0
 899 1302 903 1305 909 1305 c 0x70
594 866 m 1
 531 825 488 801 455 768 c 0
 367 680 348 659 348 573 c 0
 348 467 404 389 414 381 c 0
 469 338 510 322 571 287 c 1
 571 297 l 2
 571 522 580 667 594 866 c 1
EndSplineSet
Substitution2: "Contextual Form 0001-1" va.0001
EndChar

StartChar: za
Encoding: 46 2358 46
Width: 1830
VWidth: 0
Flags: W
HStem: 1124 123<713.471 1068.11>
VStem: 383 180<913.92 1028.73> 504 180<134.198 527.867> 1151 180<147.689 732.196>
AnchorPoint: "virama" 893 -246 basechar 0
AnchorPoint: "repha" 870 1184 basechar 0
AnchorPoint: "aakaara" 1567 1210 basechar 0
AnchorPoint: "iikaara" 1567 1210 basechar 0
AnchorPoint: "ekaara" 541 1100 basechar 0
AnchorPoint: "bindu" 893 1516 basechar 0
LayerCount: 2
Fore
SplineSet
938 641 m 1xd0
 795 764 l 1
 850 774 l 2
 897 782 971 832 1051 895 c 1
 1038 901 l 1
 1053 940 l 2
 1069 983 1077 1020 1077 1053 c 0
 1077 1080 1069 1102 1063 1114 c 1
 1045 1118 1014 1124 973 1124 c 0
 842 1124 674 1075 623 1042 c 0
 590 1022 563 971 563 924 c 2
 563 913 l 1xd0
 582 932 l 1
 754 823 l 1
 725 793 l 1
 715 782 l 1
 735 758 l 1
 698 762 l 1
 667 727 644 692 621 659 c 1
 623 657 l 1
 676 573 684 468 684 362 c 0
 684 196 655 33 616 -16 c 2
 590 -49 l 1
 416 57 l 1
 440 90 l 2
 467 123 504 286 504 444 c 0xb0
 504 473 502 501 500 530 c 1
 455 501 397 479 315 467 c 2
 258 459 l 1
 117 582 l 1
 176 590 l 2
 315 610 369 667 426 743 c 1
 420 754 l 1
 432 752 l 1
 450 777 469 802 492 831 c 1
 490 833 485 836 483 838 c 0
 381 912 383 969 383 1006 c 0
 383 1067 412 1126 459 1157 c 0
 525 1200 690 1247 850 1247 c 0
 916 1247 985 1245 1073 1204 c 0
 1096 1194 1119 1179 1135 1169 c 0
 1194 1130 1225 1094 1241 1057 c 1
 1339 1145 1430 1229 1483 1268 c 2
 1518 1292 l 1
 1686 1180 l 1
 1651 1153 l 2
 1594 1110 1499 1018 1393 922 c 1
 1403 915 l 1
 1393 874 l 2
 1373 798 1343 765 1343 702 c 0
 1343 567 1331 463 1331 365 c 0
 1331 263 1341 164 1384 49 c 0
 1425 -64 1443 12 1640 -156 c 2
 1712 -217 l 1
 1602 -238 l 1
 1530 -176 l 2
 1505 -156 1269 -57 1208 111 c 0
 1161 238 1151 342 1151 446 c 0
 1151 534 1161 624 1163 733 c 1
 1102 690 1042 659 993 651 c 2
 938 641 l 1xd0
EndSplineSet
Substitution2: "Contextual Form 0001-1" za.0001
EndChar

StartChar: Sa
Encoding: 47 2359 47
Width: 1665
VWidth: 0
Flags: W
HStem: 332 123<611.432 948.661> 1030 219<581.099 700.572>
VStem: 346 180<599.262 945.887> 1016 217<513.243 644.713> 1059 174<-5.27549 360 713 1137.05>
AnchorPoint: "virama" 825 -246 basechar 0
AnchorPoint: "repha" 492 1081 basechar 0
AnchorPoint: "aakaara" 1217 1223 basechar 0
AnchorPoint: "iikaara" 1217 1223 basechar 0
AnchorPoint: "ekaara" 246 1198 basechar 0
AnchorPoint: "bindu" 825 1516 basechar 0
LayerCount: 2
Fore
SplineSet
645 1249 m 0xe8
 698 1249 797 1186 797 1145 c 0
 797 1139 795 1130 791 1128 c 0
 766 1110 744 1097 721 1087 c 1
 690 1067 659 1044 614 1030 c 1
 594 1012 579 989 571 958 c 0
 544 870 526 795 526 723 c 0
 526 647 545 580 584 504 c 0
 596 481 606 471 608 469 c 0
 620 465 662 455 711 455 c 2
 748 455 l 1
 877 461 1016 492 1016 598 c 0xf0
 1016 625 1010 639 1006 645 c 1
 983 655 864 688 760 768 c 2
 680 827 l 1
 772 864 l 1
 850 805 l 2
 862 797 946 789 1059 713 c 1
 1053 1159 l 2
 1053 1222 1103 1241 1128 1276 c 2
 1153 1309 l 1
 1327 1204 l 1
 1305 1169 l 1
 1270 1120 1233 1110 1233 1077 c 2
 1245 82 l 1
 1245 -172 1266 -63 1452 -186 c 2
 1536 -242 l 1
 1473 -299 l 1
 1386 -244 l 2
 1329 -207 1065 -127 1065 164 c 1
 1063 360 l 1
 1004 340 935 334 874 332 c 1
 834 332 l 2
 766 332 670 334 553 406 c 0
 496 443 445 492 412 553 c 0
 367 643 346 721 346 805 c 0
 346 846 350 889 360 936 c 1
 356 936 350 940 348 940 c 0
 315 950 254 987 238 1026 c 2
 135 1282 l 1
 313 1223 l 1
 317 1212 l 1
 327 1212 301 1210 301 1210 c 1
 344 1210 408 1194 461 1155 c 1
 490 1175 522 1188 557 1204 c 1
 580 1218 600 1233 627 1245 c 0
 633 1247 637 1249 645 1249 c 0xe8
EndSplineSet
Substitution2: "Contextual Form 0001-1" Sa.0001
EndChar

StartChar: sa
Encoding: 48 2360 48
Width: 1843
VWidth: 0
Flags: W
HStem: 535 122<221 381.625> 596 123<739.155 934.803>
VStem: 408 180<397.657 539.948> 1227 178<41.3719 344 463 1098.17>
AnchorPoint: "virama" 893 -246 basechar 0
AnchorPoint: "repha" 780 1106 basechar 0
AnchorPoint: "aakaara" 1407 1217 basechar 0
AnchorPoint: "iikaara" 1407 1217 basechar 0
AnchorPoint: "ekaara" 504 1186 basechar 0
AnchorPoint: "bindu" 893 1516 basechar 0
LayerCount: 2
Fore
SplineSet
670 1065 m 1x30
 676 1073 686 1082 698 1092 c 1
 696 1094 694 1094 690 1096 c 1
 682 1092 674 1083 670 1065 c 1x30
971 1274 m 0
 1024 1274 1122 1208 1122 1169 c 0
 1122 1161 1120 1155 1116 1153 c 0
 1061 1112 1062 1085 958 1034 c 0
 837 975 823 940 813 899 c 0
 803 856 802 799 739 719 c 1
 934 715 1059 610 1227 463 c 1
 1237 1112 l 2
 1237 1188 1290 1215 1319 1268 c 2
 1337 1303 l 1
 1516 1202 l 1
 1495 1165 l 2
 1460 1099 1417 1079 1417 1026 c 2
 1405 172 l 1
 1405 -127 1471 -76 1612 -152 c 2
 1702 -201 l 1
 1671 -279 l 1
 1583 -229 l 2
 1456 -159 1225 -74 1225 258 c 1
 1227 344 l 1
 1202 365 l 1
 942 588 972 596 870 596 c 2
 823 596 l 1x70
 731 594 670 594 641 555 c 0
 604 506 588 467 588 432 c 0
 588 348 652 321 750 268 c 2
 840 219 l 1
 815 139 l 1
 725 186 l 2
 608 247 408 371 408 514 c 0
 408 522 408 533 410 541 c 1
 387 537 366 535 346 535 c 0
 319 535 291 537 256 551 c 2
 166 588 l 1
 145 688 l 1
 221 657 l 1
 223 657 l 2xb0
 291 657 474 730 535 793 c 0
 588 848 608 889 618 924 c 1
 614 924 608 928 606 928 c 0
 573 938 512 975 496 1014 c 2
 393 1270 l 1
 545 1219 l 1
 559 1225 568 1223 584 1223 c 0
 633 1223 698 1194 731 1171 c 1
 813 1187 860 1231 954 1270 c 0
 960 1272 965 1274 971 1274 c 0
EndSplineSet
Substitution2: "Contextual Form 0001-1" sa.0001
EndChar

StartChar: ha
Encoding: 49 2361 49
Width: 1683
VWidth: 0
Flags: W
HStem: 608 123<813.49 1026.24> 1118 123<567.258 647.184>
VStem: 584 180<492.561 558.812>
AnchorPoint: "virama" 874 -246 basechar 0
AnchorPoint: "repha" 780 1087 basechar 0
AnchorPoint: "aakaara" 1186 1223 basechar 0
AnchorPoint: "iikaara" 1186 1223 basechar 0
AnchorPoint: "ekaara" 338 1186 basechar 0
AnchorPoint: "bindu" 874 1516 basechar 0
LayerCount: 2
Fore
SplineSet
1126 1286 m 0
 1179 1286 1276 1223 1276 1182 c 0
 1276 1174 1274 1167 1270 1165 c 0
 1086 1042 983 969 795 852 c 0
 637 754 536 698 395 618 c 1
 465 583 529 541 584 492 c 1
 582 504 584 514 584 522 c 0
 584 659 671 731 829 731 c 0
 942 731 1007 710 1085 659 c 0
 1349 485 1214 113 1298 -18 c 0
 1343 -90 1362 -67 1493 -180 c 2
 1565 -242 l 1
 1454 -262 l 1
 1382 -201 l 2
 1345 -170 1215 -107 1135 18 c 0
 1004 225 1084 504 1018 602 c 1
 1006 604 985 608 952 608 c 0
 839 608 764 557 764 440 c 0
 764 377 788 299 813 242 c 1
 836 207 850 177 858 150 c 0
 858 146 860 143 860 141 c 0
 860 127 845 123 829 123 c 0
 761 123 690 193 682 207 c 0
 666 238 653 264 643 289 c 1
 602 355 489 459 438 498 c 0
 379 543 381 524 240 596 c 0
 238 598 228 600 205 616 c 0
 182 632 154 662 154 682 c 0
 154 688 158 692 164 696 c 0
 346 800 453 856 631 967 c 2
 748 1040 l 1
 682 1065 633 1108 623 1116 c 0
 621 1116 612 1118 596 1118 c 2
 586 1118 l 1
 568 1116 567 1036 532 958 c 0
 530 952 518 938 477 948 c 0
 446 956 383 987 358 1028 c 2
 219 1266 l 1
 387 1223 l 1
 395 1210 l 1
 405 1233 416 1239 461 1241 c 1
 473 1241 l 2
 528 1241 584 1229 637 1202 c 0
 682 1179 707 1157 719 1149 c 1
 869 1159 948 1229 1108 1282 c 0
 1112 1284 1120 1286 1126 1286 c 0
EndSplineSet
Substitution2: "Contextual Form 0001-1" ha.0001
EndChar

StartChar: kSa
Encoding: 50 -1 50
Width: 1824
VWidth: 0
Flags: W
HStem: 162 123<649.566 993.422> 862 256<772.375 958.707> 938 305<465.656 601.903>
VStem: 154 430<414.5 573.893> 1018 219<316.6 427.713> 1067 180<-82.7396 178 496 680>
AnchorPoint: "repha" 852 1057 basechar 0
AnchorPoint: "aakaara" 1274 1204 basechar 0
AnchorPoint: "iikaara" 1274 1204 basechar 0
AnchorPoint: "ekaara" 414 1192 basechar 0
AnchorPoint: "bindu" 866 1516 basechar 0
AnchorPoint: "virama" 866 -246 basechar 0
LayerCount: 2
Fore
SplineSet
1214 1268 m 0xd4
 1267 1268 1364 1206 1364 1163 c 0
 1364 1155 1360 1147 1354 1145 c 0
 1196 1063 1088 1026 963 954 c 1
 1244 858 1439 610 1595 524 c 2
 1686 475 l 1
 1651 399 l 1
 1563 451 l 1
 1409 535 1313 614 1237 680 c 1xd8
 1247 -12 l 2
 1247 -67 1262 -101 1270 -113 c 1
 1293 -123 1351 -137 1423 -170 c 2
 1513 -211 l 1
 1511 -303 l 1
 1419 -260 l 2
 1403 -252 1297 -236 1186 -156 c 0
 1088 -84 1067 -18 1067 70 c 2
 1065 178 l 1
 1004 166 932 168 881 164 c 0
 863 162 839 162 819 162 c 0
 774 162 706 162 610 215 c 0
 567 240 521 272 494 313 c 1
 439 381 412 441 406 494 c 1
 330 432 l 2
 326 428 317 426 305 426 c 0
 285 426 252 432 213 459 c 0
 188 475 154 505 154 528 c 0
 154 534 156 539 160 543 c 0
 287 652 373 741 475 831 c 1
 473 874 l 1
 506 860 l 1
 572 919 666 985 754 1042 c 1
 705 1071 669 1102 651 1118 c 1xd4
 610 1114 633 1040 602 952 c 0
 600 946 593 938 573 938 c 0
 565 938 553 940 541 944 c 0
 510 952 446 985 426 1026 c 2
 299 1274 l 1
 465 1227 l 1
 479 1243 493 1243 528 1243 c 2
 535 1243 l 2xb4
 568 1243 606 1235 641 1219 c 0
 731 1180 780 1126 788 1118 c 1
 944 1124 1028 1205 1196 1264 c 0
 1200 1266 1208 1268 1214 1268 c 0xd4
584 440 m 0
 584 389 606 340 649 289 c 1
 661 287 678 285 696 285 c 0
 716 285 731 285 745 287 c 0
 884 299 1018 285 1018 385 c 0
 1018 408 1012 422 1008 428 c 1
 983 440 872 471 770 547 c 2
 690 606 l 1
 780 643 l 1
 860 584 l 2
 870 576 950 568 1059 496 c 1
 1053 825 l 1
 1010 848 962 862 899 862 c 0
 887 862 876 862 862 860 c 0
 813 856 741 799 655 721 c 1
 649 608 584 526 584 440 c 0
EndSplineSet
Substitution2: "Contextual Form 0001-1" kSa.0001
LCarets2: 2 0 0 
Ligature2: "kSa-1" ka virAma Sa
EndChar

StartChar: avagrAha
Encoding: 52 2365 52
Width: 1234
VWidth: 0
Flags: W
HStem: -61 122<555.286 789.383> 1130 123<564.625 837.686>
VStem: 268 181<879.506 1025.83> 883 180<159.21 349.726>
LayerCount: 2
Fore
SplineSet
1006 1014 m 0
 922 1014 817 1122 807 1130 c 1
 801 1130 l 1
 649 1118 528 1112 465 981 c 0
 455 958 449 944 449 924 c 0
 449 854 504 805 584 711 c 0
 660 621 839 598 995 385 c 0
 1040 324 1063 262 1063 201 c 0
 1063 162 1053 119 1028 78 c 0
 967 -24 893 -61 731 -61 c 0
 489 -61 266 219 211 256 c 2
 127 311 l 1
 197 367 l 1
 281 309 l 1
 564 121 497 61 608 61 c 0
 745 61 793 84 852 180 c 0
 875 215 883 252 883 283 c 0
 883 332 863 377 836 414 c 0
 750 529 618 514 436 727 c 0
 373 801 268 904 268 1006 c 0
 268 1033 273 1058 285 1083 c 0
 357 1233 520 1241 672 1253 c 1
 686 1253 l 2
 747 1253 835 1215 870 1188 c 1
 882 1206 893 1221 899 1235 c 2
 915 1274 l 1
 1094 1176 l 1
 1079 1137 l 2
 1065 1100 1032 1067 1030 1053 c 1
 1034 1047 1036 1038 1036 1032 c 0
 1036 1022 1026 1014 1006 1014 c 0
EndSplineSet
EndChar

StartChar: AT
Encoding: 53 2366 53
Width: 163
VWidth: 0
GlyphClass: 4
Flags: W
HStem: 840 579
VStem: -449 181<1147.47 1266.73>
AnchorPoint: "aakaara" -358 1210 mark 0
LayerCount: 2
Fore
SplineSet
-137 1419 m 1
 -2 1294 l 1
 -63 1290 l 1
 -204 1278 -268 1282 -268 1184 c 2
 -268 1169 l 1
 -264 1103 -146 1026 -33 971 c 2
 59 926 l 1
 45 840 l 1
 -45 885 l 2
 -170 948 -441 1104 -449 1251 c 1
 -449 1266 l 2
 -449 1395 -332 1401 -199 1413 c 2
 -137 1419 l 1
EndSplineSet
Substitution2: "Contextual Form 0001-1" AT.0001
Substitution2: "Contextual Form 0003-1" AT.0003
Substitution2: "Contextual Form 0002-1" AT.0002
EndChar

StartChar: AT.0001
Encoding: 54 -1 54
Width: 163
VWidth: 0
GlyphClass: 4
Flags: W
HStem: 694 453
VStem: -287 181<835.699 1008.87>
AnchorPoint: "aakaara" -369 774 mark 0
LayerCount: 2
Fore
SplineSet
-467 776 m 1
 -453 862 l 1
 -367 819 l 1
 -326 839 -291 848 -289 887 c 0
 -287 905 -287 916 -287 930 c 0
 -287 985 -297 1009 -340 1087 c 1
 -371 1147 l 1
 -201 1100 l 1
 -168 1042 l 2
 -123 960 -106 911 -106 848 c 0
 -106 836 -107 817 -109 797 c 0
 -113 746 -156 723 -197 705 c 0
 -207 699 -225 694 -248 694 c 0
 -285 694 -336 713 -375 731 c 2
 -467 776 l 1
EndSplineSet
EndChar

StartChar: AT.0002
Encoding: 55 -1 55
Width: 163
VWidth: 0
GlyphClass: 4
Flags: W
HStem: 780 123<-375 -288.589>
VStem: -498 498
AnchorPoint: "aakaara" -369 842 mark 0
LayerCount: 2
Fore
SplineSet
-375 780 m 1
 -498 903 l 1
 -416 903 l 2
 -389 903 -361 901 -324 891 c 0
 -304 885 -280 874 -264 866 c 0
 -190 827 -160 781 -150 758 c 0
 -58 565 -51 445 -10 248 c 2
 0 199 l 1
 -180 270 l 1
 -190 322 l 1
 -231 510 -235 622 -307 780 c 1
 -375 780 l 1
EndSplineSet
EndChar

StartChar: AT.0003
Encoding: 56 -1 56
Width: 163
VWidth: 0
GlyphClass: 4
Flags: W
HStem: 250 123<-399.797 -297.807>
VStem: -274 180<398.552 679.838>
AnchorPoint: "aakaara" -369 313 mark 0
LayerCount: 2
Fore
SplineSet
-401 266 m 1
 -494 387 l 1
 -414 375 l 1
 -414 375 -405 373 -395 373 c 0
 -346 373 -283 406 -279 463 c 0
 -275 500 -274 524 -274 551 c 0
 -274 729 -336 723 -373 889 c 1
 -385 938 l 1
 -203 866 l 1
 -193 815 l 1
 -164 688 -94 664 -94 469 c 0
 -94 442 -94 412 -98 373 c 0
 -106 293 -178 250 -272 250 c 0
 -276 250 -281 250 -285 250 c 0
 -293 250 -306 250 -324 252 c 2
 -401 266 l 1
EndSplineSet
EndChar

StartChar: iT
Encoding: 57 2367 57
Width: 335
VWidth: 0
GlyphClass: 4
Flags: W
HStem: 1124 123<493.38 637.979>
VStem: 154 180<132.815 879.055>
LayerCount: 2
Fore
SplineSet
154 608 m 0
 154 868 184 1247 489 1247 c 0
 512 1247 545 1245 594 1225 c 0
 629 1211 664 1186 674 1180 c 1
 754 1157 l 1
 811 1042 l 1
 725 1067 l 2
 680 1079 631 1110 608 1124 c 1
 598 1124 585 1120 571 1118 c 0
 385 1079 334 774 334 526 c 0
 334 497 336 469 336 444 c 0
 348 18 432 -80 487 -109 c 2
 578 -158 l 1
 549 -236 l 1
 459 -186 l 2
 197 -43 168 135 156 526 c 0
 156 551 154 575 154 608 c 0
EndSplineSet
Substitution2: "Contextual Form 0001-1" iT.0001
EndChar

StartChar: iT.0001
Encoding: 58 -1 58
Width: 286
VWidth: 0
GlyphClass: 4
Flags: W
HStem: 1159 123<586.264 783.657>
VStem: 156 180<257.666 834.571>
LayerCount: 2
Fore
SplineSet
965 1161 m 1
 1034 1044 l 1
 950 1065 l 2
 848 1090 762 1155 762 1155 c 2
 758 1155 747 1159 735 1159 c 0
 719 1159 691 1155 662 1149 c 0
 447 1104 336 753 336 659 c 0
 336 407 387 48 483 -106 c 2
 520 -166 l 1
 352 -125 l 1
 315 -66 l 2
 190 135 156 483 156 741 c 0
 156 852 248 1217 518 1272 c 0
 551 1278 579 1282 612 1282 c 0
 755 1282 861 1188 881 1184 c 2
 965 1161 l 1
EndSplineSet
EndChar

StartChar: IT
Encoding: 59 2368 59
Width: 368
VWidth: 0
GlyphClass: 4
Flags: W
HStem: 1214 125<-266.286 -176.011>
VStem: -215 180<148.23 563.391> -139 180<604.11 1161.96>
AnchorPoint: "iikaara" -369 1180 mark 0
LayerCount: 2
Fore
SplineSet
-293 1339 m 2xa0
 -272 1339 l 1
 -243 1337 -213 1329 -176 1315 c 0
 74 1209 29 985 37 899 c 0
 39 870 41 844 41 819 c 0xa0
 41 608 -35 461 -35 279 c 0
 -35 232 -31 136 -6 111 c 0
 2 105 68 84 154 31 c 2
 242 -23 l 1
 186 -86 l 1
 100 -31 l 2
 69 -13 -27 16 -109 82 c 0
 -197 154 -215 225 -215 360 c 0xc0
 -215 555 -139 702 -139 901 c 0
 -139 924 -141 948 -143 977 c 0
 -151 1059 -157 1157 -182 1214 c 1
 -229 1210 -277 1176 -279 1137 c 1
 -279 1092 l 1
 -461 1178 l 1
 -459 1223 l 2
 -457 1293 -389 1339 -293 1339 c 2xa0
EndSplineSet
Substitution2: "Contextual Form 0001-1" IT.0001
Substitution2: "Contextual Form 0004-1" IT.0004
Substitution2: "Contextual Form 0003-1" IT.0003
Substitution2: "Contextual Form 0002-1" IT.0002
EndChar

StartChar: IT.0001
Encoding: 60 -1 60
Width: 368
VWidth: 0
GlyphClass: 4
Flags: W
HStem: 1217 122<-264.113 -119.369>
VStem: -57 180<142.554 511.778> 27 180<589.633 995.824>
AnchorPoint: "iikaara" -369 1180 mark 0
LayerCount: 2
Fore
SplineSet
-293 1339 m 2xa0
 -272 1339 l 1
 -229 1337 -180 1323 -131 1300 c 0
 125 1183 207 952 207 764 c 0xa0
 207 576 123 430 123 254 c 0
 123 213 130 129 150 109 c 0
 158 103 223 82 309 29 c 2
 397 -25 l 1
 342 -88 l 1
 256 -33 l 2
 225 -15 129 14 47 80 c 0
 -37 150 -57 211 -57 336 c 0xc0
 -57 526 27 672 27 846 c 0
 27 1055 -104 1196 -129 1208 c 0
 -133 1210 -142 1215 -160 1217 c 1
 -170 1217 l 2
 -219 1217 -277 1180 -279 1137 c 1
 -279 1092 l 1
 -461 1178 l 1
 -459 1223 l 2
 -457 1293 -389 1339 -293 1339 c 2xa0
EndSplineSet
EndChar

StartChar: IT.0002
Encoding: 61 -1 61
Width: 368
VWidth: 0
GlyphClass: 4
Flags: W
HStem: 1217 122<-264.113 -118.952>
VStem: 57 181<218.201 894.081>
AnchorPoint: "iikaara" -369 1180 mark 0
LayerCount: 2
Fore
SplineSet
-293 1339 m 2
 -272 1339 l 1
 -241 1337 -213 1331 -182 1321 c 0
 56 1239 143 1030 190 905 c 0
 235 788 240 688 240 596 c 2
 238 432 l 2
 238 342 244 252 279 156 c 0
 306 80 297 129 457 31 c 2
 545 -23 l 1
 489 -86 l 1
 403 -31 l 2
 397 -27 155 65 102 217 c 0
 63 326 57 426 57 518 c 2
 59 682 l 2
 59 772 53 865 14 967 c 0
 -60 1164 -135 1215 -160 1217 c 1
 -170 1217 l 2
 -219 1217 -277 1180 -279 1137 c 1
 -279 1092 l 1
 -461 1178 l 1
 -459 1223 l 2
 -457 1293 -389 1339 -293 1339 c 2
EndSplineSet
EndChar

StartChar: IT.0003
Encoding: 62 -1 62
Width: 368
VWidth: 0
GlyphClass: 4
Flags: W
HStem: 1217 122<-264.113 -73.0414>
AnchorPoint: "iikaara" -369 1180 mark 0
LayerCount: 2
Fore
SplineSet
-293 1339 m 2
 -272 1339 l 1
 -241 1337 -213 1333 -182 1327 c 0
 4 1286 250 1149 377 952 c 0
 565 661 446 426 567 170 c 0
 604 92 614 127 772 31 c 2
 860 -23 l 1
 805 -86 l 1
 719 -31 l 2
 711 -25 465 65 391 223 c 0
 252 522 363 758 213 989 c 0
 127 1122 5 1183 -104 1208 c 0
 -122 1212 -142 1215 -160 1217 c 1
 -170 1217 l 2
 -219 1217 -277 1180 -279 1137 c 1
 -279 1092 l 1
 -461 1178 l 1
 -459 1223 l 2
 -457 1293 -389 1339 -293 1339 c 2
EndSplineSet
EndChar

StartChar: IT.0004
Encoding: 63 -1 63
Width: 368
VWidth: 0
GlyphClass: 4
Flags: W
HStem: 1217 122<-264.113 -61.0234>
VStem: 102 181<131.024 502.174> 193 180<604.017 982.833>
AnchorPoint: "iikaara" -369 1180 mark 0
LayerCount: 2
Fore
SplineSet
-293 1339 m 2xa0
 -272 1339 l 1
 -211 1335 -139 1323 -61 1296 c 0
 109 1239 281 1113 338 961 c 0
 365 889 373 827 373 770 c 0xa0
 373 584 283 426 283 240 c 0
 283 199 289 114 309 94 c 0
 317 88 383 67 469 14 c 2
 557 -39 l 1
 502 -102 l 1
 416 -47 l 2
 385 -29 289 0 207 66 c 0
 123 136 102 197 102 322 c 0xc0
 102 523 193 680 193 852 c 0
 193 905 185 963 162 1022 c 0
 121 1128 54 1163 -20 1188 c 0
 -63 1202 -113 1213 -158 1217 c 1
 -170 1217 l 2
 -219 1217 -277 1180 -279 1137 c 1
 -279 1092 l 1
 -461 1178 l 1
 -459 1223 l 2
 -457 1293 -389 1339 -293 1339 c 2xa0
EndSplineSet
EndChar

StartChar: uT
Encoding: 64 2369 64
Width: 0
VWidth: 0
GlyphClass: 4
Flags: W
HStem: -467 123<-703.736 -424> -61 122<-604 -496.471>
VStem: -471 180<-299.901 -89.1827>
AnchorPoint: "ukaara" -598 0 mark 0
LayerCount: 2
Fore
SplineSet
-604 -61 m 1
 -727 61 l 1
 -659 61 l 2
 -606 61 -551 56 -483 25 c 0
 -463 17 -446 6 -432 -2 c 0
 -291 -92 -291 -182 -291 -262 c 0
 -291 -397 -373 -467 -475 -467 c 0
 -815 -467 -993 -211 -1075 -158 c 2
 -1159 -102 l 1
 -1090 -47 l 1
 -1006 -104 l 1
 -725 -292 -838 -344 -598 -344 c 0
 -557 -344 -471 -299 -471 -180 c 0
 -471 -131 -484 -89 -496 -66 c 1
 -506 -64 -519 -61 -537 -61 c 2
 -604 -61 l 1
EndSplineSet
Substitution2: "Contextual Form 0004-1" uT.0004
Substitution2: "Contextual Form 0001-1" uT.0001
Substitution2: "Contextual Form 0003-1" uT.0003
Substitution2: "Contextual Form 0002-1" uT.0002
EndChar

StartChar: uT.0001
Encoding: 65 -1 65
Width: 0
VWidth: 0
GlyphClass: 4
Flags: W
HStem: -467 123<-703.736 -424>
VStem: -690 180<15.9141 287> -471 180<-299.901 -89.1827>
AnchorPoint: "ukaara" -600 283 mark 0
LayerCount: 2
Fore
SplineSet
-690 371 m 1
 -510 287 l 1
 -510 242 l 1
 -508 35 l 1
 -477 23 -455 10 -432 -2 c 0
 -291 -92 -291 -182 -291 -262 c 0
 -291 -397 -373 -467 -475 -467 c 0
 -815 -467 -993 -211 -1075 -158 c 2
 -1159 -102 l 1
 -1090 -47 l 1
 -1006 -104 l 1
 -725 -292 -838 -344 -598 -344 c 0
 -557 -344 -471 -299 -471 -180 c 0
 -471 -131 -484 -89 -496 -66 c 1
 -506 -64 -519 -61 -537 -61 c 1
 -537 -61 -655 -30 -684 23 c 0
 -694 41 -696 99 -696 156 c 0
 -696 234 -690 318 -690 326 c 2
 -690 371 l 1
EndSplineSet
EndChar

StartChar: uT.0002
Encoding: 66 -1 66
Width: 0
VWidth: 0
GlyphClass: 4
Flags: W
HStem: 530 359
VStem: -475 573
AnchorPoint: "ukaara" -369 682 mark 0
LayerCount: 2
Fore
SplineSet
-420 776 m 1
 -475 889 l 1
 -389 864 l 2
 -369 858 -326 860 -248 825 c 0
 -223 815 -202 803 -190 795 c 0
 -69 719 -26 659 25 616 c 2
 98 555 l 1
 -10 530 l 1
 -82 592 l 2
 -168 664 -199 700 -242 729 c 1
 -250 731 -277 734 -332 750 c 2
 -420 776 l 1
EndSplineSet
EndChar

StartChar: uT.0003
Encoding: 67 -1 67
Width: 0
VWidth: 0
GlyphClass: 4
Flags: W
VStem: -592 180<-56.9955 221>
AnchorPoint: "ukaara" -502 217 mark 0
LayerCount: 2
Fore
SplineSet
-870 43 m 0
 -870 55 -856 61 -840 61 c 0
 -817 61 -780 54 -739 25 c 0
 -686 -12 -628 -51 -614 -57 c 0
 -610 -57 -592 -51 -592 -2 c 2
 -592 305 l 1
 -412 221 l 1
 -412 -84 l 2
 -412 -137 -428 -168 -467 -178 c 1
 -451 -190 -438 -197 -426 -205 c 0
 -322 -273 -256 -303 -129 -377 c 2
 -41 -428 l 1
 -86 -498 l 1
 -174 -446 l 2
 -278 -385 -359 -348 -492 -262 c 0
 -633 -170 -702 -107 -819 -23 c 0
 -837 -9 -870 23 -870 43 c 0
EndSplineSet
EndChar

StartChar: uT.0004
Encoding: 68 -1 68
Width: 0
VWidth: 0
Flags: W
HStem: -467 123<-703.736 -424>
VStem: -471 180<-299.901 -89.9304>
AnchorPoint: "ukaara" -430 102 mark 0
LayerCount: 2
Fore
SplineSet
-473 184 m 1
 -309 68 l 1
 -430 -4 l 1
 -291 -94 -291 -182 -291 -262 c 0
 -291 -397 -373 -467 -475 -467 c 0
 -815 -467 -993 -211 -1075 -158 c 2
 -1159 -102 l 1
 -1090 -47 l 1
 -1006 -104 l 1
 -725 -292 -838 -344 -598 -344 c 0
 -557 -344 -471 -299 -471 -180 c 0
 -471 -131 -484 -89 -496 -66 c 1
 -502 -66 -508 -63 -520 -63 c 0
 -524 -63 -529 -61 -537 -61 c 0
 -539 -61 -684 25 -684 27 c 0
 -684 29 -686 31 -686 33 c 0
 -686 72 -541 144 -514 160 c 2
 -473 184 l 1
EndSplineSet
EndChar

StartChar: UT
Encoding: 69 2370 69
Width: 0
VWidth: 0
GlyphClass: 4
Flags: W
HStem: -467 123<-703.736 -424> -61 122<-604 -496.471>
VStem: -471 180<-298.251 -236>
AnchorPoint: "ukaara" -598 0 mark 0
LayerCount: 2
Fore
SplineSet
-604 -61 m 1
 -727 61 l 1
 -659 61 l 2
 -606 61 -551 56 -483 25 c 1
 -405 -6 -336 -78 -313 -127 c 1
 -282 -135 -227 -162 -207 -176 c 0
 -86 -252 -43 -311 8 -354 c 2
 82 -416 l 1
 -27 -440 l 1
 -98 -379 l 2
 -184 -307 -215 -271 -258 -242 c 0
 -262 -240 -273 -240 -291 -236 c 1
 -291 -262 l 2
 -291 -397 -373 -467 -475 -467 c 0
 -815 -467 -993 -211 -1075 -158 c 2
 -1159 -102 l 1
 -1090 -47 l 1
 -1006 -104 l 1
 -725 -292 -838 -344 -598 -344 c 0
 -557 -344 -471 -299 -471 -180 c 0
 -471 -151 -475 -125 -481 -102 c 1
 -492 -82 l 1
 -487 -84 l 1
 -489 -78 -494 -70 -496 -66 c 1
 -506 -64 -519 -61 -537 -61 c 2
 -604 -61 l 1
EndSplineSet
Substitution2: "Contextual Form 0004-1" UT.0004
Substitution2: "Contextual Form 0001-1" UT.0001
Substitution2: "Contextual Form 0003-1" UT.0003
Substitution2: "Contextual Form 0002-1" UT.0002
EndChar

StartChar: UT.0001
Encoding: 70 -1 70
Width: 0
VWidth: 0
GlyphClass: 4
Flags: W
HStem: -467 123<-703.736 -424>
VStem: -690 180<15.9141 287> -471 180<-298.251 -236>
AnchorPoint: "ukaara" -600 283 mark 0
LayerCount: 2
Fore
SplineSet
-690 371 m 1
 -510 287 l 1
 -510 242 l 1
 -508 35 l 1
 -477 23 -455 10 -432 -2 c 0
 -366 -43 -331 -86 -313 -127 c 1
 -282 -135 -227 -162 -207 -176 c 0
 -86 -252 -43 -311 8 -354 c 2
 82 -416 l 1
 -27 -440 l 1
 -98 -379 l 2
 -184 -307 -215 -271 -258 -242 c 0
 -262 -240 -273 -240 -291 -236 c 1
 -291 -262 l 2
 -291 -397 -373 -467 -475 -467 c 0
 -815 -467 -993 -211 -1075 -158 c 2
 -1159 -102 l 1
 -1090 -47 l 1
 -1006 -104 l 1
 -725 -292 -838 -344 -598 -344 c 0
 -557 -344 -471 -299 -471 -180 c 0
 -471 -151 -475 -125 -481 -102 c 1
 -492 -82 l 1
 -487 -84 l 1
 -489 -78 -494 -70 -496 -66 c 1
 -506 -64 -519 -61 -537 -61 c 1
 -537 -61 -655 -30 -684 23 c 0
 -694 41 -696 99 -696 156 c 0
 -696 234 -690 318 -690 326 c 2
 -690 371 l 1
EndSplineSet
EndChar

StartChar: UT.0002
Encoding: 71 -1 71
Width: 0
VWidth: 0
GlyphClass: 4
Flags: W
HStem: 406 602
VStem: -483 573
AnchorPoint: "ukaara" -369 682 mark 0
LayerCount: 2
Fore
SplineSet
-84 1008 m 1
 78 893 l 1
 39 870 l 2
 -35 827 -76 821 -129 774 c 0
 -166 741 -182 711 -205 674 c 1
 -199 670 l 1
 -78 594 -35 535 16 492 c 2
 90 430 l 1
 -18 406 l 1
 -90 467 l 2
 -176 539 -207 575 -250 604 c 1
 -252 604 l 1
 -262 590 l 1
 -305 614 l 1
 -315 616 -326 621 -340 625 c 2
 -428 651 l 1
 -483 764 l 1
 -406 741 l 1
 -371 790 -356 836 -301 885 c 0
 -242 938 -191 948 -125 985 c 2
 -84 1008 l 1
EndSplineSet
EndChar

StartChar: UT.0003
Encoding: 72 -1 72
Width: 0
VWidth: 0
GlyphClass: 4
Flags: W
VStem: -592 180<-56.9955 8 90.9527 125 156 324>
AnchorPoint: "ukaara" -502 319 mark 0
LayerCount: 2
Fore
SplineSet
-870 43 m 0
 -870 55 -856 61 -840 61 c 0
 -817 61 -780 54 -739 25 c 0
 -686 -12 -628 -51 -614 -57 c 0
 -610 -57 -592 -51 -592 -2 c 2
 -592 125 l 1
 -610 162 l 1
 -592 156 l 1
 -592 408 l 1
 -412 324 l 1
 -412 111 l 1
 -385 99 -342 80 -326 68 c 0
 -205 -8 -162 -68 -111 -111 c 2
 -37 -172 l 1
 -145 -197 l 1
 -217 -135 l 2
 -303 -63 -334 -27 -377 2 c 0
 -381 4 -394 4 -412 8 c 1
 -412 -84 l 2
 -412 -137 -428 -168 -467 -178 c 1
 -451 -190 -438 -197 -426 -205 c 0
 -322 -273 -256 -303 -129 -377 c 2
 -41 -428 l 1
 -86 -498 l 1
 -174 -446 l 2
 -278 -385 -359 -348 -492 -262 c 0
 -633 -170 -702 -107 -819 -23 c 0
 -837 -9 -870 23 -870 43 c 0
EndSplineSet
EndChar

StartChar: UT.0004
Encoding: 73 -1 73
Width: 0
VWidth: 0
Flags: W
HStem: -467 123<-708.228 -422>
AnchorPoint: "ukaara" -430 102 mark 0
LayerCount: 2
Fore
SplineSet
-1159 -102 m 1
 -1090 -47 l 1
 -1006 -104 l 1
 -719 -294 -838 -344 -598 -344 c 0
 -555 -344 -471 -295 -471 -180 c 0
 -471 -149 -475 -122 -481 -102 c 1
 -492 -82 l 1
 -487 -82 l 1
 -489 -76 -494 -70 -496 -66 c 1
 -504 -64 -512 -63 -520 -63 c 0
 -526 -63 -533 -61 -537 -61 c 0
 -648 -61 -686 -39 -686 -8 c 0
 -686 58 -514 160 -514 160 c 1
 -473 184 l 1
 -309 68 l 1
 -430 -4 l 1
 -367 -45 -331 -86 -313 -127 c 1
 -282 -135 -227 -162 -207 -176 c 0
 -86 -252 -43 -311 8 -354 c 2
 82 -416 l 1
 -27 -440 l 1
 -98 -379 l 2
 -184 -307 -215 -271 -258 -242 c 0
 -262 -240 -273 -240 -291 -236 c 1
 -291 -262 l 2
 -291 -393 -369 -467 -475 -467 c 0
 -811 -467 -987 -215 -1075 -158 c 2
 -1159 -102 l 1
EndSplineSet
EndChar

StartChar: RT
Encoding: 74 2371 74
Width: 0
VWidth: 0
GlyphClass: 4
Flags: W
HStem: -481 123<-992.897 -691.552> -61 122<-873.074 -784>
VStem: -1180 181<-340.471 -175.428>
AnchorPoint: "ukaara" -791 0 mark 0
LayerCount: 2
Fore
SplineSet
-784 61 m 1
 -662 -61 l 1
 -729 -61 l 2
 -829 -61 -972 -137 -995 -266 c 0
 -997 -280 -999 -289 -999 -295 c 0
 -999 -322 -993 -340 -989 -352 c 1
 -971 -356 -942 -358 -913 -358 c 0
 -757 -358 -609 -285 -498 -219 c 1
 -459 -195 l 1
 -295 -311 l 1
 -334 -334 l 1
 -447 -402 -596 -481 -791 -481 c 0
 -859 -481 -952 -482 -1063 -408 c 0
 -1081 -396 -1102 -378 -1118 -360 c 0
 -1169 -307 -1180 -264 -1180 -213 c 0
 -1180 -201 -1178 -190 -1176 -176 c 0
 -1151 -24 -1002 61 -852 61 c 2
 -784 61 l 1
EndSplineSet
Substitution2: "Contextual Form 0001-1" RT.0001
EndChar

StartChar: RT.0001
Encoding: 75 -1 75
Width: 0
VWidth: 0
GlyphClass: 4
Flags: W
HStem: -481 123<-992.897 -691.552>
VStem: -1180 181<-340.471 -174.918> -881 181<55.4695 330>
AnchorPoint: "ukaara" -791 326 mark 0
LayerCount: 2
Fore
SplineSet
-1180 -213 m 0
 -1180 -45 -1024 49 -881 61 c 1
 -881 414 l 1
 -700 330 l 1
 -700 -41 l 2
 -700 -57 -717 -61 -729 -61 c 0
 -829 -61 -972 -137 -995 -266 c 0
 -997 -280 -999 -289 -999 -295 c 0
 -999 -322 -993 -340 -989 -352 c 1
 -971 -356 -942 -358 -913 -358 c 0
 -757 -358 -609 -285 -498 -219 c 1
 -459 -195 l 1
 -295 -311 l 1
 -334 -334 l 1
 -447 -402 -596 -481 -791 -481 c 0
 -859 -481 -952 -482 -1063 -408 c 0
 -1081 -396 -1102 -378 -1118 -360 c 0
 -1169 -307 -1180 -264 -1180 -213 c 0
EndSplineSet
EndChar

StartChar: eT
Encoding: 77 2375 77
Width: 0
VWidth: 0
GlyphClass: 4
Flags: W
HStem: 1198 123<-879.114 -749.272>
VStem: -1073 180<1111.31 1244>
AnchorPoint: "ekaara" -571 1124 mark 0
LayerCount: 2
Fore
SplineSet
-922 1321 m 2
 -905 1321 l 1
 -762 1305 -606 1214 -512 1130 c 2
 -442 1069 l 1
 -563 1055 l 1
 -631 1118 l 2
 -660 1145 -738 1198 -799 1198 c 0
 -815 1198 -893 1167 -893 1120 c 0
 -893 1116 -893 1110 -891 1108 c 0
 -868 1090 -820 1059 -795 1016 c 2
 -760 958 l 1
 -930 1001 l 1
 -961 1055 l 1
 -971 1061 -1009 1089 -1036 1120 c 0
 -1067 1155 -1073 1182 -1073 1202 c 0
 -1073 1286 -988 1321 -922 1321 c 2
EndSplineSet
Substitution2: "Contextual Form 0001-1" eT.0001
EndChar

StartChar: eT.0001
Encoding: 78 -1 78
Width: 0
VWidth: 0
GlyphClass: 4
Flags: W
HStem: 1198 123<-962.039 -749.272>
AnchorPoint: "ekaara" -571 1124 mark 0
LayerCount: 2
Fore
SplineSet
-932 1321 m 2
 -905 1321 l 1
 -762 1305 -606 1214 -512 1130 c 2
 -442 1069 l 1
 -563 1055 l 1
 -631 1118 l 2
 -668 1151 -729 1188 -799 1198 c 1
 -809 1198 l 2
 -850 1198 -958 1184 -997 1118 c 0
 -999 1116 -999 1114 -999 1110 c 1
 -991 1104 -924 1067 -895 1016 c 2
 -864 958 l 1
 -1034 1004 l 1
 -1061 1053 l 1
 -1071 1059 -1124 1093 -1155 1130 c 0
 -1178 1159 -1182 1178 -1182 1190 c 0
 -1182 1202 -1178 1213 -1174 1221 c 0
 -1123 1307 -995 1321 -932 1321 c 2
EndSplineSet
EndChar

StartChar: aiT
Encoding: 79 2376 79
Width: 0
VWidth: 0
GlyphClass: 4
Flags: W
HStem: 1198 123<-879.114 -744.42> 1524 123<-727.219 -597.242>
VStem: -1073 180<1111.31 1244> -938 180<1420.8 1516>
AnchorPoint: "ekaara" -571 1124 mark 0
LayerCount: 2
Fore
SplineSet
-922 1321 m 2xe0
 -905 1321 l 1
 -827 1313 -746 1282 -676 1245 c 1
 -684 1288 -686 1288 -698 1298 c 1
 -729 1304 -799 1329 -848 1376 c 0
 -875 1401 -938 1456 -938 1509 c 0
 -938 1523 -936 1536 -932 1544 c 0
 -899 1612 -842 1647 -756 1647 c 2
 -748 1647 l 1
 -607 1643 -469 1513 -449 1497 c 2
 -373 1438 l 1
 -467 1403 l 1
 -545 1462 l 2
 -613 1515 -613 1524 -629 1524 c 2
 -633 1524 l 2
 -676 1524 -723 1501 -752 1442 c 0
 -754 1436 -758 1431 -758 1427 c 0xd0
 -758 1419 -754 1415 -752 1413 c 0
 -744 1411 -688 1399 -633 1356 c 0
 -496 1250 -501 1206 -481 1087 c 0
 -481 1083 -477 1065 -504 1063 c 1
 -508 1063 l 2
 -533 1063 -586 1077 -631 1118 c 0
 -660 1145 -738 1198 -799 1198 c 0
 -815 1198 -893 1167 -893 1120 c 0
 -893 1116 -893 1110 -891 1108 c 0
 -868 1090 -820 1059 -795 1016 c 2
 -760 958 l 1
 -930 1001 l 1
 -961 1055 l 1
 -971 1061 -1009 1089 -1036 1120 c 0
 -1067 1155 -1073 1182 -1073 1202 c 0
 -1073 1286 -988 1321 -922 1321 c 2xe0
EndSplineSet
Substitution2: "Contextual Form 0001-1" aiT.0001
EndChar

StartChar: aiT.0001
Encoding: 80 -1 80
Width: 0
VWidth: 0
GlyphClass: 4
Flags: W
HStem: 1198 123<-962.039 -744.42> 1524 123<-730.029 -597.242>
VStem: -938 180<1420.73 1516>
AnchorPoint: "ekaara" -571 1124 mark 0
LayerCount: 2
Fore
SplineSet
-932 1321 m 2
 -905 1321 l 1
 -827 1313 -746 1282 -676 1245 c 1
 -684 1288 -686 1288 -698 1298 c 1
 -729 1304 -799 1329 -848 1376 c 0
 -877 1403 -938 1458 -938 1509 c 0
 -938 1523 -936 1534 -932 1542 c 0
 -901 1610 -844 1647 -758 1647 c 2
 -748 1647 l 1
 -607 1643 -469 1513 -449 1497 c 2
 -373 1438 l 1
 -467 1403 l 1
 -545 1462 l 2
 -613 1515 -613 1524 -629 1524 c 2
 -635 1524 l 2
 -678 1524 -725 1503 -752 1444 c 0
 -754 1438 -758 1433 -758 1427 c 0
 -758 1419 -754 1415 -752 1411 c 1
 -748 1411 -701 1409 -633 1356 c 0
 -496 1250 -501 1206 -481 1087 c 0
 -481 1083 -477 1065 -504 1063 c 1
 -508 1063 l 2
 -533 1063 -586 1077 -631 1118 c 0
 -668 1151 -729 1188 -799 1198 c 1
 -809 1198 l 2
 -850 1198 -958 1184 -997 1118 c 0
 -999 1116 -999 1114 -999 1110 c 1
 -991 1104 -924 1067 -895 1016 c 2
 -864 958 l 1
 -1034 1004 l 1
 -1061 1053 l 1
 -1071 1059 -1124 1093 -1155 1130 c 0
 -1178 1159 -1182 1178 -1182 1190 c 0
 -1182 1202 -1178 1213 -1174 1221 c 0
 -1123 1307 -995 1321 -932 1321 c 2
EndSplineSet
EndChar

StartChar: virAma
Encoding: 83 2381 83
Width: 0
VWidth: 0
GlyphClass: 4
Flags: W
HStem: -178 123<-769.68 -562.522>
AnchorPoint: "virama" -625 0 mark 0
LayerCount: 2
Fore
SplineSet
-920 -356 m 1
 -1096 -252 l 1
 -1071 -217 l 2
 -1018 -143 -897 -55 -756 -55 c 0
 -510 -55 -285 -285 -215 -322 c 2
 -125 -371 l 1
 -150 -451 l 1
 -240 -403 l 2
 -527 -251 -486 -178 -633 -178 c 0
 -721 -178 -848 -258 -895 -324 c 2
 -920 -356 l 1
EndSplineSet
EndChar

StartChar: candra
Encoding: 84 2373 84
Width: 0
VWidth: 0
Flags: W
HStem: 1106 123<-1111.45 -869.704>
AnchorPoint: "bindumark" -973 1516 basemark 0
AnchorPoint: "bindumark" -973 1167 mark 0
AnchorPoint: "bindu" -973 1167 mark 0
LayerCount: 2
Fore
SplineSet
-1511 1436 m 1
 -1444 1491 l 1
 -1360 1434 l 1
 -1102 1262 -1170 1229 -1061 1229 c 2
 -1036 1229 l 1
 -846 1243 -784 1319 -612 1522 c 1
 -586 1554 l 1
 -412 1446 l 1
 -440 1415 l 1
 -610 1216 -678 1122 -907 1106 c 1
 -938 1106 l 2
 -1167 1106 -1362 1337 -1425 1380 c 2
 -1511 1436 l 1
EndSplineSet
EndChar

StartChar: zUnya
Encoding: 86 2406 86
Width: 1433
VWidth: 0
Flags: W
HStem: 1143 127<607.243 892.141>
VStem: 168 180<506.501 849.301> 1085 181<506.124 905.508>
LayerCount: 2
Fore
SplineSet
715 104 m 1
 811 188 883 237 971 360 c 0
 1022 434 1085 592 1085 756 c 0
 1085 809 1077 865 1061 918 c 0
 1016 1063 948 1110 905 1126 c 0
 889 1132 869 1139 838 1143 c 1
 831 1143 l 1
 823 1145 807 1147 784 1147 c 0
 657 1147 538 1077 446 942 c 0
 378 846 348 751 348 653 c 0
 348 592 358 527 385 455 c 0
 446 281 533 278 715 104 c 1
643 39 m 1
 621 66 l 1
 510 185 291 285 209 516 c 0
 180 596 168 667 168 735 c 0
 168 844 200 949 270 1049 c 0
 364 1188 488 1270 662 1270 c 0
 740 1270 809 1256 872 1233 c 0
 1093 1151 1198 993 1241 852 c 0
 1259 791 1266 731 1266 674 c 0
 1266 498 1204 334 1147 254 c 0
 1045 111 961 65 850 -37 c 1
 801 -84 l 1
 629 25 l 1
 643 39 l 1
EndSplineSet
EndChar

StartChar: eka
Encoding: 87 2407 87
Width: 1433
VWidth: 0
Flags: W
HStem: 465 96<516.26 680.882> 1110 123<650.085 835.907>
VStem: 268 181<690.387 930.039> 831 181<129.219 486.304> 887 180<546.995 1012.43>
LayerCount: 2
Fore
SplineSet
850 489 m 1xf0
 805 462 757 438 694 438 c 0
 659 438 619 447 578 465 c 0
 576 465 573 467 573 467 c 1
 360 567 268 715 268 854 c 0
 268 870 270 879 270 887 c 0
 286 1059 399 1151 553 1210 c 0
 592 1224 631 1233 674 1233 c 0
 750 1233 824 1205 877 1174 c 0
 957 1127 996 1073 1014 1032 c 0
 1057 940 1067 860 1067 786 c 0xe8
 1067 688 1048 592 1038 481 c 2
 1034 438 l 1
 1030 368 1012 297 1012 223 c 0
 1012 170 1024 117 1047 78 c 0
 1123 -51 1165 -6 1384 -172 c 2
 1462 -231 l 1
 1366 -266 l 1
 1290 -205 l 2
 1222 -152 992 -70 879 123 c 0
 842 189 831 246 831 305 c 0
 831 371 844 434 850 489 c 1xf0
866 659 m 1
 876 735 887 800 887 868 c 0
 887 938 875 1007 838 1085 c 0
 834 1093 831 1100 827 1106 c 1
 821 1108 811 1110 797 1110 c 0
 774 1110 744 1104 709 1092 c 0
 568 1037 465 953 451 801 c 0
 451 793 449 780 449 772 c 0
 449 645 520 586 567 561 c 1
 571 561 l 2
 628 561 727 635 782 668 c 2
 821 692 l 1
 866 659 l 1
EndSplineSet
EndChar

StartChar: dvi
Encoding: 88 2408 88
Width: 1433
VWidth: 0
Flags: W
HStem: 74 123<662 734.569> 1139 121<587.176 825.585>
VStem: 1034 180<557.837 883.106>
LayerCount: 2
Fore
SplineSet
115 397 m 0
 115 411 127 418 147 418 c 0
 165 418 192 411 225 393 c 0
 487 246 414 201 535 197 c 1
 557 197 l 2
 690 197 797 252 887 379 c 0
 975 506 1034 621 1034 750 c 0
 1034 795 1026 846 1008 899 c 0
 961 1049 889 1100 840 1118 c 0
 820 1124 793 1133 754 1137 c 0
 740 1137 733 1139 729 1139 c 0
 590 1139 445 1006 375 895 c 2
 352 860 l 1
 176 963 l 1
 199 997 l 1
 271 1112 403 1262 606 1262 c 0
 633 1262 635 1260 637 1260 c 2
 645 1260 l 1
 698 1254 752 1241 805 1223 c 0
 1028 1141 1141 979 1188 834 c 0
 1208 773 1214 719 1214 668 c 0
 1214 525 1153 401 1063 272 c 0
 971 139 852 74 680 74 c 2
 662 74 l 1
 685 62 703 51 719 43 c 0
 869 -31 979 -36 1200 -104 c 2
 1288 -131 l 1
 1339 -244 l 1
 1253 -215 l 1
 1081 -162 933 -160 702 -43 c 0
 450 84 338 211 166 334 c 0
 146 348 115 374 115 397 c 0
EndSplineSet
EndChar

StartChar: tri
Encoding: 89 2409 89
Width: 1433
VWidth: 0
Flags: W
HStem: 520 199<525.878 748.054> 1112 123<633.357 916.264>
VStem: 1020 180<273.441 463.614> 1036 181<843.62 975.697>
LayerCount: 2
Fore
SplineSet
1217 860 m 0xd0
 1217 747 1104 657 1008 618 c 1
 1135 526 1200 422 1200 322 c 0xe0
 1200 293 1196 265 1188 240 c 0
 1127 60 958 6 774 -10 c 1
 880 -53 979 -82 1126 -139 c 1
 1217 -172 l 1xd0
 1245 -276 l 1
 1155 -242 l 2
 981 -174 854 -149 641 -43 c 0
 463 47 377 133 258 213 c 0
 240 225 203 256 203 281 c 0
 203 293 213 301 233 301 c 0
 249 301 270 297 299 283 c 0
 555 156 494 111 600 111 c 2
 616 111 l 1
 792 123 949 168 1008 338 c 0
 1014 358 1020 380 1020 403 c 0xe0
 1020 497 952 561 901 592 c 1
 883 590 866 588 852 586 c 2
 786 578 l 1
 786 578 637 520 526 520 c 0
 463 520 412 539 412 600 c 0
 412 627 424 623 444 635 c 0
 507 676 575 692 641 700 c 1
 684 712 723 719 764 719 c 2
 784 719 l 1
 790 721 799 721 807 723 c 0
 901 748 1036 850 1036 942 c 0
 1036 958 1030 979 1026 985 c 2
 1026 985 1024 985 1024 987 c 0
 975 1077 942 1092 907 1102 c 0
 887 1108 858 1112 819 1112 c 2
 803 1112 l 1
 645 1106 522 1016 424 887 c 2
 399 854 l 1
 223 961 l 1
 248 993 l 2
 348 1126 475 1229 680 1235 c 1
 696 1235 l 2
 946 1235 1118 1077 1194 942 c 0
 1217 905 1217 880 1217 860 c 0xd0
EndSplineSet
EndChar

StartChar: catur
Encoding: 90 2410 90
Width: 1433
VWidth: 0
Flags: W
HStem: -61 122<533.123 917.239>
VStem: 217 180<183.625 369.719> 250 180<872.947 990.74> 1008 180<907.496 1031.51> 1036 181<165.479 391.359>
LayerCount: 2
Fore
SplineSet
793 621 m 1xc8
 766 609 740 594 713 582 c 1
 584 508 397 402 397 246 c 0
 397 238 399 225 401 209 c 0
 417 117 457 104 473 98 c 0
 512 82 594 65 682 61 c 1
 713 61 l 2
 875 61 1036 117 1036 305 c 0
 1036 461 918 557 840 598 c 0
 830 604 817 610 803 616 c 0
 801 616 799 619 793 621 c 1xc8
522 1268 m 1
 688 1155 l 1
 653 1128 l 1
 569 1069 430 985 430 903 c 0
 430 889 436 874 440 866 c 0
 481 788 479 805 610 772 c 0
 633 766 654 760 674 754 c 1
 692 762 l 1
 835 815 927 825 995 958 c 0
 1003 976 1008 989 1008 1001 c 0
 1008 1069 942 1098 848 1192 c 1
 784 1253 l 1
 918 1255 l 1
 979 1192 l 2
 1016 1155 1188 1037 1188 920 c 0xb0
 1188 902 1186 883 1176 860 c 0
 1113 733 1012 698 899 659 c 1
 1089 548 1217 389 1217 223 c 0
 1217 6 1031 -61 836 -61 c 2
 799 -61 l 1
 703 -57 603 -47 492 -2 c 0
 330 66 239 177 221 283 c 0
 219 299 217 314 217 328 c 0xc8
 217 512 414 618 543 692 c 1
 434 731 323 813 268 915 c 0
 256 940 250 962 250 985 c 0xa0
 250 1104 405 1186 485 1243 c 1
 522 1268 l 1
EndSplineSet
EndChar

StartChar: paJca
Encoding: 91 2411 91
Width: 1433
VWidth: 0
Flags: W
HStem: 332 123<522.384 836.923>
VStem: 262 180<603.109 1206> 936 178<126.953 344> 952 181<733.898 1221.33>
LayerCount: 2
Fore
SplineSet
821 80 m 1xe0
 909 109 936 184 936 270 c 1xe0
 934 344 l 1
 903 334 864 332 825 332 c 0
 788 332 752 336 717 338 c 0
 658 342 563 342 446 416 c 1
 395 453 349 496 322 557 c 1
 271 688 262 798 262 907 c 2
 264 1090 l 2
 264 1135 262 1186 258 1239 c 2
 254 1286 l 1
 436 1206 l 1
 438 1157 l 2
 442 1102 444 1051 444 1004 c 2
 442 821 l 2
 442 710 455 584 510 475 c 1
 549 463 655 455 702 455 c 0
 772 455 829 467 860 535 c 0
 979 787 915 964 952 1249 c 0
 954 1261 965 1266 979 1266 c 0
 999 1266 1029 1257 1049 1247 c 0
 1115 1214 1133 1173 1133 1161 c 2xd0
 1114 356 l 1
 1114 315 l 1
 1116 188 l 2
 1116 102 1102 35 1022 -20 c 0
 1014 -26 1010 -29 1006 -31 c 1
 1065 -56 1130 -82 1214 -121 c 2
 1307 -162 l 1
 1305 -254 l 1
 1214 -211 l 2
 1095 -156 997 -131 831 -35 c 0
 718 31 684 84 612 143 c 0
 585 166 578 183 578 195 c 0
 578 207 586 213 596 215 c 0
 600 215 604 215 608 215 c 0
 649 215 701 182 721 166 c 0
 764 129 784 109 821 80 c 1xe0
EndSplineSet
EndChar

StartChar: SaS
Encoding: 92 2412 92
Width: 1433
VWidth: 0
Flags: W
HStem: -61 122<501.672 909.051> 1141 123<565.553 888.86>
VStem: 172 180<211.851 517.096> 213 180<907.906 1037.5>
LayerCount: 2
Fore
SplineSet
1012 242 m 0xe0
 1012 254 1006 260 1006 268 c 1
 895 336 l 2
 883 344 836 377 836 406 c 0
 836 416 843 428 866 428 c 0
 880 428 897 422 922 412 c 0
 973 389 1054 352 1120 291 c 1
 1202 232 1273 168 1343 111 c 2
 1417 49 l 1
 1311 25 l 1
 1188 127 l 1
 1188 123 1186 117 1184 111 c 0
 1127 -26 967 -61 836 -61 c 2
 778 -61 l 2
 649 -61 549 -57 395 39 c 0
 217 150 172 262 172 418 c 0xe0
 172 531 199 635 305 705 c 0
 336 723 365 735 408 737 c 1
 392 751 373 774 350 797 c 0
 295 854 213 942 213 1024 c 0
 213 1051 221 1077 246 1102 c 0
 361 1217 485 1264 645 1264 c 0
 684 1264 723 1259 766 1255 c 0
 809 1251 858 1237 915 1206 c 0
 1075 1120 1139 998 1180 965 c 2
 1255 905 l 1
 1159 872 l 1
 1081 932 l 1
 956 1030 907 1114 889 1128 c 0
 887 1128 876 1133 868 1133 c 0
 825 1137 797 1141 768 1141 c 0
 639 1141 527 1100 418 991 c 0
 400 973 393 958 393 942 c 0xd0
 393 893 436 842 485 793 c 0
 567 707 542 721 700 682 c 0
 759 668 805 627 819 604 c 0
 825 594 829 586 829 580 c 0
 829 566 813 561 799 561 c 0
 797 561 795 561 793 561 c 0
 660 569 586 614 545 614 c 0
 525 614 498 608 469 590 c 0
 377 531 352 440 352 336 c 0
 352 176 404 131 453 100 c 0
 510 63 512 61 655 61 c 2
 713 61 l 2
 819 61 955 90 1004 209 c 0
 1010 223 1012 234 1012 242 c 0xe0
EndSplineSet
EndChar

StartChar: sapta
Encoding: 93 2413 93
Width: 1433
VWidth: 0
Flags: W
HStem: -61 122<650.059 853.68> 518 123<594.009 760.635> 1210 123<658.509 869.21>
VStem: 317 181<771.283 1063.5> 1008 184<321.097 623>
LayerCount: 2
Fore
SplineSet
1012 623 m 1
 940 582 877 518 766 518 c 0
 739 518 715 522 692 526 c 0
 690 526 688 528 686 528 c 0
 653 536 623 547 594 561 c 0
 363 667 317 831 317 987 c 0
 317 1091 352 1183 442 1249 c 0
 516 1304 596 1333 688 1333 c 0
 768 1333 889 1298 987 1212 c 0
 1198 1022 1176 844 1188 641 c 2
 1192 573 l 1
 1192 528 l 2
 1192 364 1163 236 1075 78 c 0
 1020 -22 1005 -61 778 -61 c 0
 737 -61 679 -49 618 -10 c 0
 311 187 496 342 154 461 c 2
 66 492 l 1
 25 600 l 1
 113 571 l 1
 516 432 617 145 674 61 c 1
 864 63 842 76 899 180 c 0
 985 334 1012 452 1012 610 c 2
 1012 623 l 1
1008 694 m 1
 1008 723 l 1
 996 940 979 1096 868 1196 c 0
 864 1200 862 1210 811 1210 c 0
 754 1210 678 1186 610 1135 c 0
 530 1076 498 999 498 905 c 0
 498 725 578 659 592 653 c 0
 602 649 625 641 643 641 c 0
 702 641 778 700 862 745 c 2
 905 768 l 1
 1008 694 l 1
EndSplineSet
EndChar

StartChar: aSTa
Encoding: 94 2414 94
Width: 1433
VWidth: 0
Flags: W
HStem: -61 122<497.96 883.991>
VStem: 219 180<216.114 560.959> 1028 180<174.176 322.221>
LayerCount: 2
Fore
SplineSet
526 1028 m 1
 555 1051 l 1
 549 1055 532 1067 516 1083 c 1
 516 1071 520 1051 526 1028 c 1
219 442 m 0
 219 616 332 829 436 944 c 1
 416 956 374 983 362 1012 c 2
 248 1282 l 1
 377 1239 l 1
 389 1245 400 1245 416 1245 c 0
 525 1245 612 1130 612 1130 c 1
 669 1148 713 1204 791 1245 c 0
 797 1247 803 1251 811 1251 c 0
 868 1251 963 1186 963 1145 c 0
 963 1139 960 1135 958 1133 c 0
 778 959 629 907 510 698 c 0
 440 575 399 473 399 360 c 0
 399 311 410 258 424 207 c 0
 442 144 471 102 487 84 c 0
 491 80 494 61 586 61 c 0
 783 61 844 64 969 160 c 0
 1014 197 1028 240 1028 289 c 0
 1028 324 1017 406 997 426 c 0
 991 430 969 441 942 455 c 0
 883 486 864 523 864 539 c 0
 864 553 877 557 891 557 c 0
 909 557 934 549 950 543 c 0
 997 523 1037 510 1100 475 c 0
 1190 426 1229 397 1292 358 c 2
 1380 307 l 1
 1331 240 l 1
 1192 324 l 1
 1204 283 1208 248 1208 207 c 0
 1208 148 1192 92 1137 49 c 0
 1006 -53 908 -61 709 -61 c 0
 600 -61 454 -22 352 84 c 0
 293 145 264 202 244 272 c 0
 228 331 219 387 219 442 c 0
EndSplineSet
EndChar

StartChar: nava
Encoding: 95 2415 95
Width: 1433
VWidth: 0
Flags: W
HStem: 354 123<588.792 884.5> 401 123<492 706.053> 1180 123<610.239 863.381>
VStem: 156 180<547.877 922.587> 1018 180<660.094 998.435>
LayerCount: 2
Fore
SplineSet
492 401 m 1x78
 371 526 l 1
 440 524 l 1x78
 581 522 674 477 733 477 c 0
 764 477 799 487 840 514 c 0
 963 600 1018 711 1018 848 c 0
 1018 940 998 1018 969 1071 c 0
 930 1143 907 1153 864 1165 c 0
 829 1175 805 1180 774 1180 c 0
 672 1180 567 1124 465 1032 c 0
 361 938 336 838 336 707 c 0
 336 693 338 671 338 655 c 0
 344 512 391 441 467 373 c 0
 537 312 588 389 842 219 c 0
 1047 82 1122 -33 1251 -150 c 1
 1321 -211 l 1
 1200 -225 l 1
 1133 -162 l 1
 969 -12 907 76 772 166 c 0
 752 180 532 192 348 356 c 0
 213 479 164 587 158 737 c 0
 158 753 156 768 156 788 c 0
 156 925 180 1043 293 1143 c 0
 397 1237 504 1303 651 1303 c 0
 878 1303 1073 1153 1141 1024 c 0
 1182 948 1198 864 1198 766 c 0
 1198 616 1141 491 1008 399 c 0
 961 368 913 354 856 354 c 0xb8
 739 354 649 399 559 401 c 1
 492 401 l 1x78
EndSplineSet
EndChar

StartChar: begin
Encoding: 96 182 96
Width: 1839
VWidth: 0
Flags: W
HStem: 139 123<1148.5 1364> 692 123<236.229 373.657 1266.52 1444.88>
VStem: 1016 180<550.681 622.812> 1503 180<448.665 628.793>
LayerCount: 2
Fore
SplineSet
1303 422 m 1
 1145 451 l 1
 1100 512 l 2
 1092 524 1069 535 1036 580 c 0
 1018 607 1016 625 1016 639 c 0
 1016 653 1020 664 1024 672 c 0
 1075 760 1142 815 1255 815 c 0
 1282 815 1299 813 1309 811 c 1
 1315 811 l 1
 1362 803 1413 787 1464 762 c 0
 1605 696 1683 598 1683 516 c 0
 1683 508 1683 495 1681 489 c 0
 1652 317 1561 139 1364 139 c 0
 1352 139 1333 139 1313 143 c 0
 1088 188 887 244 694 506 c 0
 592 645 534 624 276 698 c 2
 190 723 l 1
 129 838 l 1
 215 813 l 2
 393 762 670 731 854 477 c 0
 991 289 1008 309 1229 264 c 1
 1229 264 1231 262 1241 262 c 0
 1362 262 1474 412 1501 580 c 0
 1503 586 1503 588 1503 598 c 0
 1503 659 1472 668 1466 670 c 0
 1454 676 1407 692 1378 692 c 0
 1317 692 1247 651 1200 569 c 0
 1198 563 1196 561 1196 557 c 0
 1196 555 1198 551 1198 549 c 0
 1202 545 1233 520 1260 483 c 2
 1303 422 l 1
EndSplineSet
EndChar

StartChar: daNDa
Encoding: 97 2404 97
Width: 1316
VWidth: 0
Flags: W
LayerCount: 2
Fore
SplineSet
711 752 m 1
 893 662 l 1
 887 618 l 1
 844 292 788 148 702 78 c 1
 765 64 825 43 870 18 c 0
 974 -41 1002 -90 1012 -96 c 2
 1092 -156 l 1
 1006 -197 l 1
 926 -137 l 2
 877 -100 845 -67 831 -55 c 1
 690 -12 590 -19 395 12 c 0
 375 16 324 31 285 70 c 0
 271 82 256 103 256 117 c 0
 256 127 265 135 283 135 c 2
 340 139 l 1
 530 149 633 156 707 709 c 1
 711 752 l 1
EndSplineSet
EndChar

StartChar: dvidaNDa
Encoding: 98 2405 98
Width: 1544
VWidth: 0
Flags: W
VStem: 952 181<-298.289 -158 -39 154.019>
LayerCount: 2
Fore
SplineSet
1114 442 m 1
 1292 342 l 1
 1272 305 l 2
 1194 164 1133 188 1133 -201 c 0
 1133 -269 1141 -303 1147 -315 c 1
 1159 -323 1192 -340 1229 -365 c 2
 1313 -420 l 1
 1249 -477 l 1
 1163 -422 l 2
 1128 -399 1079 -379 1020 -324 c 0
 959 -267 952 -226 952 -158 c 1
 926 -137 l 2
 877 -100 845 -67 831 -55 c 1
 690 -12 590 -19 395 12 c 0
 375 16 324 31 285 70 c 0
 271 82 256 103 256 117 c 0
 256 127 265 135 283 135 c 2
 340 139 l 1
 530 149 633 156 707 709 c 1
 711 752 l 1
 893 662 l 1
 887 618 l 1
 844 292 788 148 702 78 c 1
 765 64 825 43 870 18 c 0
 907 -2 934 -23 954 -39 c 1
 964 272 1030 289 1096 408 c 1
 1114 442 l 1
EndSplineSet
EndChar

StartChar: ka.0001
Encoding: 99 -1 99
Width: 1824
VWidth: 0
Flags: W
HStem: 938 305<465.656 601.903>
VStem: 803 182<201 840>
AnchorPoint: "ukaara" 895 205 basechar 0
AnchorPoint: "repha" 852 1057 basechar 0
AnchorPoint: "aakaara" 1274 1204 basechar 0
AnchorPoint: "iikaara" 1274 1204 basechar 0
AnchorPoint: "ekaara" 414 1192 basechar 0
AnchorPoint: "bindu" 866 1516 basechar 0
AnchorPoint: "virama" 866 -41 basechar 0
LayerCount: 2
Fore
SplineSet
1214 1268 m 0
 1267 1268 1364 1206 1364 1163 c 0
 1364 1155 1360 1147 1354 1145 c 0
 1196 1063 1088 1026 963 954 c 1
 1244 858 1439 610 1595 524 c 2
 1686 475 l 1
 1651 399 l 1
 1563 451 l 1
 1213 646 1149 811 985 852 c 1
 987 551 l 1
 985 117 l 1
 803 201 l 1
 807 633 l 1
 805 840 l 1
 692 774 514 577 330 432 c 0
 326 428 317 426 305 426 c 0
 285 426 252 432 213 459 c 0
 188 475 154 505 154 528 c 0
 154 534 156 539 160 543 c 0
 365 719 463 846 692 1004 c 0
 712 1018 731 1028 754 1042 c 1
 705 1071 669 1102 651 1118 c 1
 610 1114 633 1040 602 952 c 0
 600 946 593 938 573 938 c 0
 565 938 553 940 541 944 c 0
 510 952 446 985 426 1026 c 2
 299 1274 l 1
 465 1227 l 1
 479 1243 493 1243 528 1243 c 2
 535 1243 l 2
 568 1243 606 1235 641 1219 c 0
 731 1180 780 1126 788 1118 c 1
 944 1124 1028 1205 1196 1264 c 0
 1200 1266 1208 1268 1214 1268 c 0
EndSplineSet
EndChar

StartChar: kha.0001
Encoding: 100 -1 100
Width: 1812
VWidth: 0
Flags: W
VStem: 383 180<913.041 1025.39> 504 180<299.466 527.867> 793 180<361.458 675.125> 1182 180<442 896.027> 1204 180<-6 254.711>
AnchorPoint: "ukaara" 1294 0 basechar 0
AnchorPoint: "virama" 893 -246 basechar 0
AnchorPoint: "repha" 934 989 basechar 0
AnchorPoint: "aakaara" 1567 1210 basechar 0
AnchorPoint: "iikaara" 1567 1210 basechar 0
AnchorPoint: "ekaara" 541 1100 basechar 0
AnchorPoint: "bindu" 893 1516 basechar 0
LayerCount: 2
Fore
SplineSet
582 932 m 1xa8
 754 823 l 1
 725 793 l 1
 715 782 l 1
 735 758 l 1
 698 762 l 1
 667 727 644 692 621 659 c 1
 623 657 l 1
 676 573 684 468 684 362 c 0
 684 190 553 100 524 63 c 2
 498 31 l 1
 324 137 l 1
 348 170 l 2
 383 215 504 292 504 444 c 0x60
 504 473 502 501 500 530 c 1
 455 501 397 479 315 467 c 2
 258 459 l 1
 117 582 l 1
 176 590 l 2
 315 610 369 667 426 743 c 1
 420 754 l 1
 432 752 l 1
 450 777 469 802 492 831 c 1
 490 833 485 836 483 838 c 0
 383 910 383 969 383 1006 c 0
 383 1088 426 1182 539 1182 c 0
 564 1182 589 1177 612 1169 c 0
 825 1099 751 1051 872 1051 c 0
 1046 1051 1317 1143 1483 1268 c 1
 1518 1292 l 1
 1686 1180 l 1
 1651 1153 l 2
 1581 1100 1495 1055 1405 1018 c 1
 1399 981 l 2
 1385 893 1364 848 1362 768 c 1
 1362 682 l 2xb0
 1362 420 1376 244 1384 -41 c 1
 1386 -88 l 1
 1204 -6 l 1
 1204 41 l 1
 1202 121 1198 192 1196 260 c 1
 1163 246 1126 233 1073 233 c 2
 1061 233 l 1
 1030 235 987 237 924 272 c 0
 897 286 867 309 844 334 c 0
 797 385 793 450 793 532 c 0
 793 618 811 695 844 793 c 1
 869 859 905 893 944 932 c 1
 813 952 692 1036 657 1059 c 1
 618 1055 563 987 563 924 c 2
 563 913 l 1
 582 932 l 1xa8
1192 950 m 1
 1182 948 1169 946 1159 944 c 1
 1188 928 l 1
 1190 936 1190 942 1192 950 c 1
1188 442 m 1
 1184 542 1182 645 1182 764 c 2
 1182 854 l 2x30
 1182 870 1182 885 1184 899 c 1
 1176 887 l 1
 1113 807 1055 778 1024 694 c 0
 991 598 973 531 973 451 c 0
 973 422 975 389 979 360 c 1
 1028 370 1075 405 1147 428 c 1
 1188 442 l 1
EndSplineSet
EndChar

StartChar: ga.0001
Encoding: 101 -1 101
Width: 1812
VWidth: 0
Flags: W
HStem: 928 123<812.078 1128.65>
VStem: 383 180<913.041 1025.39> 504 180<299.466 527.867> 1182 180<-4 948.641>
AnchorPoint: "ukaara" 1278 0 basechar 0
AnchorPoint: "virama" 893 -246 basechar 0
AnchorPoint: "repha" 934 989 basechar 0
AnchorPoint: "aakaara" 1567 1210 basechar 0
AnchorPoint: "iikaara" 1567 1210 basechar 0
AnchorPoint: "ekaara" 541 1100 basechar 0
AnchorPoint: "bindu" 893 1516 basechar 0
LayerCount: 2
Fore
SplineSet
582 932 m 1xd0
 754 823 l 1
 725 793 l 1
 715 782 l 1
 735 758 l 1
 698 762 l 1
 667 727 644 692 621 659 c 1
 623 657 l 1
 676 573 684 468 684 362 c 0
 684 190 553 100 524 63 c 2
 498 31 l 1
 324 137 l 1
 348 170 l 2
 383 215 504 292 504 444 c 0xb0
 504 473 502 501 500 530 c 1
 455 501 397 479 315 467 c 2
 258 459 l 1
 117 582 l 1
 176 590 l 2
 315 610 369 667 426 743 c 1
 420 754 l 1
 432 752 l 1
 450 777 469 802 492 831 c 1
 490 833 485 836 483 838 c 0
 383 910 383 969 383 1006 c 0
 383 1088 426 1182 539 1182 c 0
 564 1182 589 1177 612 1169 c 0
 825 1099 751 1051 872 1051 c 0
 1046 1051 1317 1143 1483 1268 c 1
 1518 1292 l 1
 1686 1180 l 1
 1651 1153 l 2
 1581 1100 1495 1055 1405 1018 c 1
 1399 981 l 2
 1385 893 1364 848 1362 768 c 2
 1358 549 l 1
 1370 -88 l 1
 1188 -4 l 1
 1178 631 l 1
 1182 854 l 2
 1182 893 1186 921 1192 950 c 1
 1124 936 1056 928 995 928 c 0
 845 928 696 1034 657 1059 c 1
 618 1055 563 987 563 924 c 2
 563 913 l 1
 582 932 l 1xd0
EndSplineSet
EndChar

StartChar: gha.0001
Encoding: 102 -1 102
Width: 1609
VWidth: 0
Flags: W
HStem: 283 129<960.929 1115.94> 375 123<498.547 645.11>
VStem: 293 180<535.937 918.422> 741 170<628.208 1058.53> 1169 181<-4 285 465.022 1075>
AnchorPoint: "ukaara" 1257 0 basechar 0
AnchorPoint: "virama" 856 -246 basechar 0
AnchorPoint: "repha" 958 1167 basechar 0
AnchorPoint: "aakaara" 1364 1198 basechar 0
AnchorPoint: "iikaara" 1364 1198 basechar 0
AnchorPoint: "ekaara" 246 1137 basechar 0
AnchorPoint: "bindu" 856 1516 basechar 0
LayerCount: 2
Fore
SplineSet
979 412 m 1xb8
 987 412 1006 406 1014 406 c 0
 1061 406 1133 446 1149 518 c 0
 1159 561 1167 585 1169 612 c 1
 1169 901 l 1
 1167 1012 l 2
 1167 1047 1167 1081 1169 1122 c 1
 1169 1165 l 2
 1169 1169 1170 1178 1176 1182 c 2
 1317 1280 l 1
 1483 1167 l 1
 1354 1075 l 1
 1350 1038 l 1
 1350 817 l 1
 1352 639 l 2
 1352 588 1350 557 1350 526 c 2
 1348 -88 l 1
 1167 -4 l 1
 1167 285 l 1
 1157 283 1147 283 1137 283 c 0xb8
 1047 283 987 311 932 344 c 0
 883 373 848 403 821 434 c 1
 774 391 705 375 627 375 c 2
 614 375 l 2
 579 375 522 379 444 426 c 0
 424 438 399 457 379 477 c 0
 350 508 336 534 328 563 c 0
 312 629 293 733 293 815 c 0
 293 846 295 876 301 913 c 1
 291 919 250 946 238 975 c 2
 207 1051 l 1
 195 1074 182 1095 178 1118 c 1
 135 1221 l 1
 209 1196 l 1
 219 1202 232 1206 250 1206 c 0
 318 1206 398 1140 408 1130 c 1
 453 1163 492 1187 547 1214 c 0
 553 1216 559 1219 565 1219 c 0
 618 1219 717 1155 717 1114 c 0
 717 1108 715 1102 713 1100 c 0
 623 1010 539 993 502 891 c 0
 479 828 473 782 473 733 c 0
 473 661 492 557 506 498 c 1x78
 584 498 653 520 684 596 c 0
 711 659 723 719 731 774 c 1
 731 846 735 923 741 997 c 0
 743 1042 746 1092 752 1145 c 2
 756 1188 l 1
 786 1174 l 1
 813 1199 851 1205 874 1223 c 2
 907 1251 l 1
 1077 1139 l 1
 1042 1112 l 1
 991 1069 946 1071 938 1030 c 0
 932 999 928 965 924 930 c 1
 922 838 925 754 911 666 c 1
 911 551 922 538 924 528 c 0
 938 473 965 426 979 412 c 1xb8
EndSplineSet
EndChar

StartChar: Ga.0001
Encoding: 103 -1 103
Width: 1658
VWidth: 0
Flags: W
VStem: 786 181<-4 203.423>
AnchorPoint: "ukaara" 877 0 basechar 0
AnchorPoint: "virama" 831 -246 basechar 0
AnchorPoint: "repha" 793 1038 basechar 0
AnchorPoint: "aakaara" 1413 774 basechar 0
AnchorPoint: "iikaara" 1321 1198 basechar 0
AnchorPoint: "ekaara" 375 1149 basechar 0
AnchorPoint: "bindu" 831 1516 basechar 0
LayerCount: 2
Fore
SplineSet
696 985 m 1
 719 1004 l 1
 715 1006 712 1008 696 1016 c 1
 696 1014 694 1010 694 1004 c 0
 694 1000 694 993 696 985 c 1
1315 1266 m 1
 1450 1141 l 1
 1389 1137 l 1
 1248 1125 1184 1128 1184 1030 c 2
 1184 1016 l 1
 1188 950 1306 872 1419 817 c 2
 1511 772 l 1
 1497 686 l 1
 1407 731 l 2
 1307 782 1110 893 1034 1012 c 1
 741 778 l 1
 606 678 516 623 395 541 c 1
 454 518 520 490 592 449 c 0
 725 371 835 299 946 182 c 0
 962 164 967 151 967 143 c 2
 967 -88 l 1
 786 -4 l 1
 786 209 l 1
 714 279 668 307 547 379 c 0
 461 428 406 438 250 506 c 0
 225 518 154 561 154 594 c 0
 154 600 156 606 162 610 c 0
 322 721 417 776 573 893 c 1
 588 903 l 1
 246 1202 l 1
 362 1221 l 1
 514 1087 l 1
 516 1150 555 1186 633 1186 c 0
 643 1186 742 1178 799 1108 c 1
 901 1131 934 1196 1030 1255 c 0
 1036 1259 1043 1262 1051 1262 c 0
 1069 1262 1095 1253 1118 1241 c 1
 1157 1251 1204 1256 1253 1260 c 2
 1315 1266 l 1
EndSplineSet
EndChar

StartChar: ca.0001
Encoding: 104 -1 104
Width: 1376
VWidth: 0
Flags: W
HStem: 1001 271<436.566 554.903> 1122 183<1085 1174.18>
VStem: 739 181<-4 213 369 770.843>
AnchorPoint: "ukaara" 831 0 basechar 0
AnchorPoint: "virama" 684 -246 basechar 0
AnchorPoint: "repha" 793 1112 basechar 0
AnchorPoint: "aakaara" 1130 1241 basechar 0
AnchorPoint: "iikaara" 1130 1241 basechar 0
AnchorPoint: "ekaara" 406 1204 basechar 0
AnchorPoint: "bindu" 786 1516 basechar 0
LayerCount: 2
Fore
SplineSet
1069 1305 m 0x60
 1124 1305 1221 1241 1221 1200 c 0
 1221 1192 1218 1186 1214 1184 c 0
 1171 1153 1126 1136 1085 1122 c 1x60
 1038 1098 l 2
 1026 1092 1011 1085 995 1079 c 1
 970 1061 954 1036 950 1001 c 0
 927 700 920 518 920 256 c 1
 924 -88 l 1
 741 -4 l 1
 739 213 l 1
 702 250 l 2
 593 356 588 387 559 401 c 0
 493 436 443 428 279 471 c 1
 254 471 154 532 154 569 c 0
 154 575 156 582 162 586 c 0
 314 690 414 731 547 854 c 0
 629 930 658 997 717 1087 c 1
 678 1107 647 1135 631 1147 c 1
 600 1137 598 1075 555 1012 c 0
 553 1010 546 1001 528 1001 c 0
 520 1001 506 1004 492 1008 c 0
 459 1018 395 1053 379 1092 c 2
 293 1288 l 1
 436 1241 l 1
 448 1259 465 1268 496 1272 c 0
 498 1272 500 1272 502 1272 c 0xa0
 508 1274 512 1274 520 1274 c 0
 624 1274 723 1186 735 1176 c 1
 774 1176 807 1186 834 1196 c 1
 861 1214 891 1227 926 1239 c 1
 965 1259 1006 1282 1053 1300 c 0
 1059 1302 1063 1305 1069 1305 c 0x60
739 369 m 1
 739 514 744 637 750 774 c 1
 740 764 729 753 719 743 c 0
 617 647 532 600 436 541 c 1
 485 527 535 510 584 483 c 0
 654 446 702 408 739 369 c 1
EndSplineSet
EndChar

StartChar: cha.0001
Encoding: 105 -1 105
Width: 1665
VWidth: 0
Flags: W
HStem: 336 123<356.116 525.76> 737 123<396.109 594.342 1095.56 1299.88> 1018 276<561.664 691.902>
VStem: 156 180<517.472 679.891> 711 176<-4 397> 1329 180<545.938 689.793>
AnchorPoint: "ukaara" 807 0 basechar 0
AnchorPoint: "virama" 819 -246 basechar 0
AnchorPoint: "repha" 823 1167 basechar 0
AnchorPoint: "aakaara" 1118 1253 basechar 0
AnchorPoint: "iikaara" 1118 1253 basechar 0
AnchorPoint: "ekaara" 541 1223 basechar 0
AnchorPoint: "bindu" 819 1516 basechar 0
LayerCount: 2
Fore
SplineSet
711 397 m 1
 656 366 592 336 506 336 c 0
 469 336 413 344 350 379 c 0
 311 402 277 428 250 455 c 0
 180 525 156 598 156 672 c 0
 156 805 291 854 420 860 c 1
 434 860 l 2
 467 860 512 854 567 829 c 0
 635 798 680 764 709 739 c 1
 711 843 717 954 727 1087 c 0
 729 1112 736 1135 748 1153 c 1
 740 1159 741 1155 737 1159 c 1
 714 1139 721 1085 692 1030 c 0
 690 1024 682 1018 664 1018 c 0
 654 1018 643 1022 627 1026 c 0
 594 1036 530 1071 514 1110 c 2
 428 1307 l 1
 561 1264 l 1
 575 1282 600 1294 633 1294 c 0
 694 1294 768 1243 784 1231 c 1
 874 1241 933 1284 1042 1315 c 0
 1046 1317 1053 1317 1059 1317 c 0
 1112 1317 1208 1255 1208 1212 c 0
 1208 1204 1206 1198 1202 1196 c 0
 1073 1106 915 1110 907 1001 c 0
 901 923 899 857 895 791 c 1
 952 826 1030 860 1120 860 c 0
 1194 860 1303 823 1362 784 c 0
 1475 710 1509 633 1509 567 c 2
 1509 553 l 1
 1495 389 1317 346 1165 338 c 1
 1153 338 l 2
 1038 338 926 432 887 475 c 1
 899 -88 l 1
 717 -4 l 1
 711 397 l 1
707 637 m 1
 623 684 579 727 567 735 c 1
 563 735 561 737 557 737 c 2
 549 737 l 1
 445 731 336 690 336 590 c 0
 336 535 363 482 381 459 c 1
 383 459 l 2
 395 459 395 459 401 461 c 0
 532 484 621 557 707 637 c 1
928 573 m 1
 983 528 1015 486 1038 461 c 1
 1171 469 1317 510 1329 639 c 1
 1329 649 l 2
 1329 698 1298 727 1298 727 c 1
 1288 733 1266 737 1243 737 c 0
 1233 737 1220 735 1204 731 c 0
 1089 706 1008 645 928 573 c 1
EndSplineSet
EndChar

StartChar: ja.0001
Encoding: 106 -1 106
Width: 1658
VWidth: 0
Flags: W
VStem: 786 181<-4 203.423>
AnchorPoint: "ukaara" 877 0 basechar 0
AnchorPoint: "virama" 831 -246 basechar 0
AnchorPoint: "repha" 793 1038 basechar 0
AnchorPoint: "aakaara" 1413 774 basechar 0
AnchorPoint: "iikaara" 1321 1198 basechar 0
AnchorPoint: "ekaara" 375 1149 basechar 0
AnchorPoint: "bindu" 831 1516 basechar 0
LayerCount: 2
Fore
SplineSet
696 985 m 1
 719 1004 l 1
 715 1006 712 1008 696 1016 c 1
 696 1014 694 1010 694 1004 c 0
 694 1000 694 993 696 985 c 1
1315 1266 m 1
 1450 1141 l 1
 1389 1137 l 1
 1248 1125 1184 1128 1184 1030 c 2
 1184 1016 l 1
 1188 950 1306 872 1419 817 c 2
 1511 772 l 1
 1497 686 l 1
 1407 731 l 2
 1307 782 1110 893 1034 1012 c 1
 813 834 l 1
 799 823 l 1
 856 788 919 751 997 690 c 0
 1138 579 1204 506 1315 406 c 2
 1382 344 l 1
 1260 332 l 1
 1192 393 l 2
 1069 506 1014 568 895 662 c 0
 842 705 809 717 727 768 c 1
 600 674 512 621 395 541 c 1
 454 518 520 490 592 449 c 0
 725 371 835 299 946 182 c 0
 962 164 967 151 967 143 c 2
 967 -88 l 1
 786 -4 l 1
 786 209 l 1
 714 279 668 307 547 379 c 0
 461 428 406 438 250 506 c 0
 225 518 154 561 154 594 c 0
 154 600 156 606 162 610 c 0
 322 721 417 776 573 893 c 1
 588 903 l 1
 246 1202 l 1
 362 1221 l 1
 514 1087 l 1
 516 1150 555 1186 633 1186 c 0
 643 1186 742 1178 799 1108 c 1
 901 1131 934 1196 1030 1255 c 0
 1036 1259 1043 1262 1051 1262 c 0
 1069 1262 1095 1253 1118 1241 c 1
 1157 1251 1204 1256 1253 1260 c 2
 1315 1266 l 1
EndSplineSet
EndChar

StartChar: jha.0001
Encoding: 107 -1 107
Width: 1357
VWidth: 0
Flags: W
HStem: 653 105<676 761.703> 891 20G<1042 1124.24> 983 272<264.469 396.902>
VStem: 494 180<252.285 653 744.731 1033.65>
AnchorPoint: "ukaara" 578 0 basechar 0
AnchorPoint: "virama" 647 -246 basechar 0
AnchorPoint: "repha" 510 1106 basechar 0
AnchorPoint: "aakaara" 1112 842 basechar 0
AnchorPoint: "ekaara" 246 1192 basechar 0
AnchorPoint: "iikaara" 836 1192 basechar 0
AnchorPoint: "bindu" 647 1516 basechar 0
LayerCount: 2
Fore
SplineSet
776 1255 m 0
 829 1255 926 1196 926 1151 c 0
 926 1143 922 1137 920 1135 c 0
 809 1053 684 1063 680 965 c 1
 676 758 l 1
 701 752 729 741 766 725 c 0
 784 717 795 709 801 707 c 1
 801 717 l 2
 801 897 999 897 1042 903 c 2
 1102 911 l 1
 1241 786 l 1
 1182 780 l 2
 1129 774 981 778 981 635 c 0
 981 518 1009 588 1081 455 c 0
 1085 445 1096 422 1065 418 c 0
 1063 418 1061 418 1059 418 c 0
 1034 418 981 430 936 471 c 0
 836 561 813 602 762 635 c 0
 756 637 729 637 674 653 c 1
 672 559 l 1
 674 205 l 2
 674 152 663 119 606 119 c 0
 583 119 557 127 543 131 c 1
 702 -72 l 1
 549 -51 l 1
 238 342 l 2
 232 350 223 363 223 373 c 0
 223 383 232 393 252 393 c 0
 275 393 311 385 352 356 c 0
 403 319 448 281 487 252 c 1
 489 258 494 269 494 287 c 2
 492 645 l 1
 500 1051 l 1
 500 1059 l 1
 484 1065 457 1077 424 1104 c 1
 416 1079 417 1038 397 995 c 0
 395 991 387 983 367 983 c 0
 357 983 346 983 330 989 c 0
 297 999 235 1034 219 1073 c 2
 135 1276 l 1
 264 1233 l 1
 274 1243 285 1247 297 1251 c 0
 317 1259 324 1255 328 1255 c 0
 400 1255 482 1187 498 1171 c 1
 584 1181 651 1224 762 1253 c 0
 766 1255 772 1255 776 1255 c 0
EndSplineSet
EndChar

StartChar: Ja.0001
Encoding: 108 -1 108
Width: 1708
VWidth: 0
Flags: W
HStem: 641 104<1026 1111.7> 879 20G<1393 1474.24> 969 262<610.848 747.809> 1167 123<391.934 499.344>
VStem: 844 180<240.378 641 732.254 1019.63>
AnchorPoint: "ukaara" 934 0 basechar 0
AnchorPoint: "virama" 905 -246 basechar 0
AnchorPoint: "repha" 860 1094 basechar 0
AnchorPoint: "aakaara" 1462 829 basechar 0
AnchorPoint: "ekaara" 246 1124 basechar 0
AnchorPoint: "iikaara" 1186 1180 basechar 0
AnchorPoint: "bindu" 905 1516 basechar 0
LayerCount: 2
Fore
SplineSet
319 1290 m 1xd8
 340 1290 l 2xd8
 371 1290 412 1287 463 1264 c 0
 514 1241 555 1211 584 1188 c 1
 592 1208 609 1231 662 1231 c 0
 709 1231 784 1194 827 1157 c 1
 921 1167 989 1208 1112 1241 c 1
 1122 1241 l 2
 1140 1241 1178 1235 1221 1206 c 0
 1246 1190 1278 1159 1278 1139 c 0
 1278 1133 1276 1126 1270 1122 c 0
 1164 1042 1034 1052 1030 952 c 1
 1026 745 l 1
 1051 739 1079 729 1116 713 c 0
 1134 705 1145 696 1151 694 c 1
 1151 705 l 2
 1151 885 1350 885 1393 891 c 2
 1452 899 l 1
 1591 774 l 1
 1532 768 l 2
 1479 762 1331 766 1331 623 c 0
 1331 506 1360 575 1432 442 c 0
 1436 432 1446 410 1415 406 c 0
 1413 406 1411 406 1409 406 c 0
 1384 406 1331 418 1286 459 c 0
 1186 549 1163 590 1112 623 c 0
 1106 625 1079 625 1024 641 c 1
 1022 547 l 1
 1024 193 l 2
 1024 146 1017 106 956 106 c 0
 946 106 934 107 905 115 c 1
 1061 -70 l 1
 911 -53 l 1
 590 328 l 2
 578 342 571 352 571 360 c 0
 571 374 588 381 604 381 c 0
 606 381 608 381 610 381 c 0
 649 377 692 352 702 344 c 0
 761 303 807 263 838 240 c 1
 842 248 844 260 844 274 c 2
 842 633 l 1
 850 1038 l 1
 850 1047 l 1
 846 1049 842 1049 838 1051 c 0
 797 1069 774 1088 766 1094 c 1
 756 1071 762 1022 748 983 c 0
 744 973 735 969 721 969 c 0xe8
 698 969 663 981 643 993 c 0
 604 1013 588 1036 582 1042 c 0
 535 1099 526 1124 520 1130 c 0
 491 1150 477 1161 471 1165 c 1
 467 1165 465 1167 463 1167 c 2
 453 1167 l 1
 414 1161 389 1110 330 1067 c 2
 295 1042 l 1
 127 1155 l 1
 162 1182 l 2
 209 1217 221 1282 319 1290 c 1xd8
EndSplineSet
EndChar

StartChar: Ta.0001
Encoding: 109 -1 109
Width: 1648
VWidth: 0
Flags: W
HStem: 70 123<549.977 1141.88> 895 21G<503 518> 1026 123<705.467 834.064>
VStem: 156 180<343.032 497.277> 829 181<914.583 981.548>
AnchorPoint: "ukaara" 887 131 basechar 0
AnchorPoint: "virama" 823 -246 basechar 0
AnchorPoint: "repha" 809 1087 basechar 0
AnchorPoint: "aakaara" 1405 774 basechar 0
AnchorPoint: "iikaara" 1313 1198 basechar 0
AnchorPoint: "ekaara" 348 1198 basechar 0
AnchorPoint: "bindu" 823 1516 basechar 0
LayerCount: 2
Fore
SplineSet
1307 1266 m 1
 1442 1141 l 1
 1380 1137 l 1
 1239 1125 1176 1128 1176 1030 c 2
 1176 1016 l 1
 1180 950 1298 872 1411 817 c 2
 1503 772 l 1
 1489 686 l 1
 1399 731 l 2
 1307 778 1133 874 1047 983 c 1
 1024 952 1010 923 1010 903 c 2
 1010 889 l 2
 1010 862 997 840 950 799 c 0
 768 641 557 678 440 565 c 0
 366 493 336 432 336 383 c 0
 336 340 359 315 373 301 c 0
 477 207 573 197 825 193 c 1
 846 193 l 2
 1039 193 1258 252 1309 330 c 2
 1331 365 l 1
 1507 260 l 1
 1485 227 l 1
 1419 127 1186 70 969 70 c 2
 948 70 l 1
 739 74 498 64 248 291 c 0
 185 348 156 410 156 465 c 0
 156 533 190 600 268 676 c 0
 407 811 614 766 778 909 c 0
 825 950 829 963 829 971 c 2
 829 985 l 2
 829 995 830 1008 836 1026 c 1
 791 1028 734 1036 668 1075 c 0
 656 1083 641 1092 625 1104 c 1
 582 1098 555 1042 537 913 c 0
 535 905 528 895 508 895 c 0
 498 895 485 897 469 903 c 0
 436 913 374 948 358 987 c 2
 238 1282 l 1
 414 1225 l 1
 424 1202 l 1
 447 1222 471 1229 514 1229 c 0
 543 1229 573 1224 608 1210 c 0
 663 1187 695 1159 705 1151 c 1
 715 1149 723 1149 731 1149 c 2
 748 1149 l 1
 836 1151 860 1155 883 1165 c 0
 912 1177 942 1206 1022 1255 c 0
 1028 1259 1034 1262 1042 1262 c 0
 1062 1262 1087 1253 1110 1241 c 1
 1149 1251 1196 1256 1245 1260 c 2
 1307 1266 l 1
EndSplineSet
EndChar

StartChar: Tha.0001
Encoding: 110 -1 110
Width: 1683
VWidth: 0
Flags: W
HStem: 55 123<544.536 1143.89>
VStem: 156 180<324.921 655.801> 1348 180<334.291 594.707>
AnchorPoint: "ukaara" 831 119 basechar 0
AnchorPoint: "virama" 831 -246 basechar 0
AnchorPoint: "aakaara" 1343 1100 basechar 0
AnchorPoint: "repha" 885 1198 basechar 0
AnchorPoint: "iikaara" 885 1198 basechar 0
AnchorPoint: "ekaara" 750 1081 basechar 0
AnchorPoint: "bindu" 831 1516 basechar 0
LayerCount: 2
Fore
SplineSet
870 1049 m 1
 618 854 336 856 336 414 c 0
 336 334 367 282 385 262 c 0
 420 225 557 188 772 180 c 0
 801 180 822 178 840 178 c 0
 1082 178 1338 236 1348 455 c 1
 1348 473 l 1
 1346 487 l 1
 1338 794 1060 963 874 1047 c 1
 870 1049 l 1
938 1108 m 1
 1214 969 1528 719 1528 391 c 2
 1528 369 l 1
 1518 113 1223 55 963 55 c 0
 936 55 914 57 891 57 c 0
 733 63 430 67 244 268 c 0
 178 338 156 410 156 496 c 0
 156 1031 574 981 799 1251 c 1
 825 1284 l 1
 999 1176 l 1
 971 1145 l 2
 959 1131 948 1118 938 1108 c 1
EndSplineSet
EndChar

StartChar: Da.0001
Encoding: 111 -1 111
Width: 1277
VWidth: 0
Flags: W
HStem: 915 297<311.749 419.903>
VStem: 678 180<144.221 649>
AnchorPoint: "ukaara" 743 0 basechar 0
AnchorPoint: "virama" 702 -246 basechar 0
AnchorPoint: "repha" 621 1051 basechar 0
AnchorPoint: "aakaara" 1032 1204 basechar 0
AnchorPoint: "iikaara" 1032 1204 basechar 0
AnchorPoint: "ekaara" 246 1174 basechar 0
AnchorPoint: "bindu" 702 1516 basechar 0
LayerCount: 2
Fore
SplineSet
973 1268 m 0
 1028 1268 1122 1204 1122 1161 c 0
 1122 1155 1120 1153 1118 1151 c 0
 999 1020 931 932 825 819 c 1
 858 778 862 745 862 692 c 0
 862 665 860 637 860 598 c 0
 860 563 860 524 858 485 c 0
 848 98 867 84 801 31 c 1
 807 29 l 1
 856 -84 l 1
 768 -55 l 2
 700 -32 632 -2 573 37 c 0
 544 53 526 64 514 74 c 0
 444 125 406 166 383 182 c 0
 381 184 375 186 369 190 c 0
 349 202 307 237 307 262 c 0
 307 278 320 283 340 283 c 0
 371 283 426 256 459 231 c 0
 510 196 544 168 571 145 c 0
 583 135 592 129 598 123 c 1
 604 125 613 127 623 135 c 0
 686 186 668 155 678 571 c 0
 680 598 680 622 680 649 c 1
 446 477 l 2
 442 475 436 473 424 473 c 0
 404 473 369 479 330 506 c 0
 305 522 270 552 270 575 c 0
 270 581 272 586 276 590 c 0
 401 701 479 755 596 872 c 0
 639 915 676 952 711 991 c 1
 688 989 l 1
 674 989 l 2
 608 989 520 1040 479 1079 c 1
 452 1059 453 987 420 926 c 0
 418 922 411 915 393 915 c 0
 383 915 372 918 356 922 c 0
 323 932 260 967 244 1006 c 2
 133 1257 l 1
 309 1200 l 1
 311 1196 l 1
 327 1212 342 1212 381 1212 c 0
 469 1212 564 1130 578 1116 c 1
 719 1136 800 1207 954 1264 c 0
 960 1266 967 1268 973 1268 c 0
EndSplineSet
EndChar

StartChar: Dha.0001
Encoding: 112 -1 112
Width: 1871
VWidth: 0
Flags: W
HStem: 41 123<1116.97 1414.39> 1026 123<888.416 1041.21> 1106 123<773.416 862.782>
VStem: 1538 180<264.473 436.553>
AnchorPoint: "ukaara" 1253 102 basechar 0
AnchorPoint: "virama" 918 -246 basechar 0
AnchorPoint: "repha" 983 1087 basechar 0
AnchorPoint: "aakaara" 1364 1210 basechar 0
AnchorPoint: "iikaara" 1364 1210 basechar 0
AnchorPoint: "ekaara" 541 1186 basechar 0
AnchorPoint: "bindu" 918 1516 basechar 0
LayerCount: 2
Fore
SplineSet
1718 303 m 2xd0
 1718 86 1497 57 1321 41 c 1
 1292 41 l 2
 1130 41 971 176 928 199 c 0
 756 291 762 326 725 340 c 0
 588 387 488 381 289 418 c 0
 264 422 154 475 154 522 c 0
 154 528 158 535 166 539 c 0
 485 699 796 780 1042 1026 c 1
 1034 1026 l 2xd0
 1009 1026 971 1030 922 1053 c 0
 881 1071 850 1096 840 1102 c 1
 836 1102 825 1106 807 1106 c 2
 795 1106 l 1
 777 1104 772 1028 733 956 c 0
 731 952 721 938 680 948 c 0
 649 956 586 987 561 1028 c 2
 422 1266 l 1
 590 1223 l 1
 604 1200 l 1
 616 1218 629 1227 670 1229 c 1
 684 1229 l 2xb0
 741 1229 795 1219 848 1192 c 0
 885 1174 908 1155 918 1149 c 1
 920 1149 l 1
 1059 1159 1134 1221 1288 1270 c 0
 1292 1272 1299 1274 1305 1274 c 0
 1358 1274 1454 1210 1454 1169 c 0
 1454 1163 1452 1157 1450 1155 c 0
 1286 1003 1216 889 1028 766 c 0
 827 635 674 578 492 498 c 1
 555 488 614 471 688 446 c 0
 858 385 942 280 952 276 c 0
 1138 176 1095 164 1169 164 c 2
 1190 164 l 1
 1352 178 1499 199 1532 342 c 0
 1536 358 1538 371 1538 385 c 0
 1538 489 1467 528 1395 561 c 1
 1358 559 1299 479 1217 438 c 2
 1174 418 l 1
 1014 535 l 1
 1057 557 l 1
 1127 590 1159 684 1274 684 c 2
 1282 684 l 2
 1298 684 1323 684 1370 664 c 0
 1530 596 1702 469 1718 328 c 1
 1718 303 l 2xd0
EndSplineSet
EndChar

StartChar: Na.0001
Encoding: 113 -1 113
Width: 1818
VWidth: 0
Flags: W
HStem: 944 125<451.381 573.521>
VStem: 156 180<234.768 744.991> 582 182<445.858 938.68> 913 181<-20.0056 310.289 436 944> 1214 181<469.575 936.021>
AnchorPoint: "ukaara" 1004 0 basechar 0
AnchorPoint: "virama" 883 -246 basechar 0
AnchorPoint: "repha" 991 1210 basechar 0
AnchorPoint: "aakaara" 1575 313 basechar 0
AnchorPoint: "iikaara" 1415 1192 basechar 0
AnchorPoint: "ekaara" 303 854 basechar 0
AnchorPoint: "bindu" 985 1516 basechar 0
LayerCount: 2
Fore
SplineSet
479 -10 m 1
 315 27 l 1
 276 86 l 2
 182 229 156 356 156 485 c 0
 156 616 184 749 213 899 c 0
 236 1018 348 1069 475 1069 c 0
 504 1069 539 1064 584 1044 c 0
 748 970 764 858 764 772 c 0
 764 749 762 731 762 715 c 0
 762 625 749 524 737 442 c 1
 766 454 788 461 819 461 c 0
 842 461 878 450 909 436 c 1
 901 1251 l 2
 901 1265 912 1272 928 1272 c 0
 946 1272 973 1265 991 1257 c 0
 1050 1230 1075 1192 1079 1180 c 0
 1091 1145 1094 1110 1096 1083 c 1
 1205 1132 1246 1247 1350 1253 c 1
 1354 1253 l 2
 1405 1253 1507 1196 1507 1151 c 0
 1507 1149 1505 1145 1505 1143 c 0
 1446 965 1395 815 1395 643 c 0
 1395 584 1401 522 1413 461 c 0
 1415 445 1421 436 1423 432 c 1
 1446 422 1532 395 1618 334 c 2
 1698 276 l 1
 1612 233 l 1
 1532 293 l 2
 1524 299 1450 303 1327 397 c 0
 1268 442 1241 488 1233 535 c 0
 1221 601 1214 662 1214 725 c 0
 1214 807 1223 883 1241 961 c 1
 1212 949 1175 940 1126 940 c 0
 1118 940 1108 938 1085 944 c 1
 1094 -41 l 2
 1094 -51 1086 -61 1063 -61 c 0
 1010 -61 915 -6 913 41 c 0
 909 145 890 256 874 313 c 1
 798 276 702 209 698 207 c 0
 694 205 688 203 676 203 c 0
 662 203 643 205 616 217 c 0
 583 233 526 272 526 305 c 0
 526 379 582 609 582 797 c 0
 582 852 575 907 563 944 c 1
 487 936 409 895 393 809 c 0
 364 659 336 528 336 403 c 0
 336 280 364 166 440 49 c 2
 479 -10 l 1
EndSplineSet
EndChar

StartChar: ta.0001
Encoding: 114 -1 114
Width: 1290
VWidth: 0
Flags: W
HStem: 940 305<303.752 431.903>
VStem: 633 180<201 809>
AnchorPoint: "ukaara" 723 205 basechar 0
AnchorPoint: "virama" 616 -41 basechar 0
AnchorPoint: "repha" 676 1100 basechar 0
AnchorPoint: "aakaara" 1044 1223 basechar 0
AnchorPoint: "iikaara" 1044 1223 basechar 0
AnchorPoint: "ekaara" 252 1192 basechar 0
AnchorPoint: "bindu" 616 1516 basechar 0
LayerCount: 2
Fore
SplineSet
305 412 m 0
 264 412 154 467 154 514 c 0
 154 518 156 522 158 526 c 0
 318 739 377 891 578 1079 c 1
 549 1093 516 1116 506 1122 c 1
 440 1122 481 1040 432 950 c 0
 430 946 424 940 406 940 c 0
 398 940 385 940 371 944 c 0
 338 954 278 987 258 1028 c 2
 137 1274 l 1
 303 1225 l 1
 319 1245 338 1245 383 1245 c 0
 414 1245 442 1237 469 1229 c 0
 549 1200 596 1163 598 1163 c 0
 600 1163 602 1161 604 1161 c 0
 756 1161 863 1247 969 1282 c 0
 973 1284 979 1286 985 1286 c 0
 1036 1286 1135 1223 1135 1182 c 0
 1135 1174 1130 1165 1124 1163 c 0
 987 1093 891 1084 791 1008 c 1
 814 981 819 966 819 958 c 0
 819 952 815 948 815 942 c 2
 813 117 l 1
 631 201 l 1
 633 246 l 1
 633 809 l 1
 539 690 420 524 332 420 c 0
 328 416 319 412 305 412 c 0
EndSplineSet
EndChar

StartChar: tha.0001
Encoding: 115 -1 115
Width: 1347
VWidth: 0
Flags: W
HStem: -61 122<370.743 701.12> 1130 123<576.898 839.678>
VStem: 156 180<116.467 355.843> 225 181<814.065 973.509> 850 180<248 624.534>
AnchorPoint: "ukaara" 938 0 basechar 0
AnchorPoint: "virama" 741 -246 basechar 0
AnchorPoint: "repha" 709 1192 basechar 0
AnchorPoint: "aakaara" 1102 1198 basechar 0
AnchorPoint: "iikaara" 1102 1198 basechar 0
AnchorPoint: "ekaara" 502 1147 basechar 0
AnchorPoint: "bindu" 741 1516 basechar 0
LayerCount: 2
Fore
SplineSet
864 -12 m 1xd8
 805 -47 717 -61 625 -61 c 0
 621 -61 616 -61 612 -61 c 0
 528 -61 355 -60 244 59 c 0
 172 139 156 209 156 281 c 0xe8
 156 365 187 448 248 520 c 0
 314 598 383 634 457 659 c 1
 295 735 225 852 225 942 c 0
 225 965 228 989 238 1014 c 0
 306 1180 459 1245 645 1253 c 1
 664 1253 l 2
 783 1253 909 1175 940 1157 c 1
 956 1196 994 1216 1014 1249 c 2
 1036 1284 l 1
 1212 1180 l 1
 1190 1147 l 1
 1155 1092 1116 1077 1112 1032 c 0
 1071 551 1036 412 1030 154 c 1
 1036 150 l 1
 1030 143 l 1
 1030 114 1028 86 1028 55 c 2
 1028 -88 l 1
 864 -12 l 1xd8
850 248 m 1
 854 387 867 492 883 633 c 1
 690 531 553 570 420 414 c 0
 365 348 336 273 336 199 c 0
 336 150 351 107 369 76 c 1
 406 68 455 61 502 61 c 0
 561 61 614 68 655 84 c 0
 766 125 756 170 834 233 c 1
 850 248 l 1
905 846 m 1
 911 912 920 985 928 1069 c 1
 809 1120 856 1130 786 1130 c 2
 772 1130 l 1
 612 1122 479 1067 418 915 c 0
 410 895 406 876 406 860 c 0xd8
 406 833 414 811 422 793 c 0
 445 750 461 747 471 745 c 0
 537 727 563 719 594 719 c 0
 645 719 719 750 858 844 c 0
 864 848 873 850 881 850 c 0
 889 850 897 848 905 846 c 1
EndSplineSet
EndChar

StartChar: da.0001
Encoding: 116 -1 116
Width: 1480
VWidth: 0
Flags: W
HStem: 1051 110<647.855 730.579> 1090 124<604.207 669.104> 1130 123<1125.18 1255.79>
VStem: 649 180<98 329.912>
AnchorPoint: "ukaara" 739 102 basechar 0
AnchorPoint: "virama" 764 -143 basechar 0
AnchorPoint: "repha" 756 1100 basechar 0
AnchorPoint: "aakaara" 1204 1192 basechar 0
AnchorPoint: "iikaara" 1204 1192 basechar 0
AnchorPoint: "ekaara" 399 1155 basechar 0
AnchorPoint: "bindu" 764 1516 basechar 0
LayerCount: 2
Fore
SplineSet
680 696 m 1x30
 739 678 788 649 827 618 c 1
 923 706 1034 733 1151 813 c 2
 1188 838 l 1
 1356 723 l 1
 1319 698 l 2
 1182 606 1075 585 981 489 c 1
 989 483 l 1
 965 471 l 1
 957 463 950 454 942 444 c 0
 846 317 829 215 829 61 c 2
 829 14 l 1
 649 98 l 1
 649 143 l 2
 649 299 666 418 766 551 c 1
 750 565 737 578 729 584 c 1
 588 627 488 620 293 651 c 0
 277 653 156 697 156 756 c 0
 156 766 161 774 184 774 c 2
 195 774 l 2
 250 774 295 762 346 762 c 0
 422 762 529 786 662 956 c 0
 719 1030 737 1045 737 1049 c 0
 737 1051 735 1051 733 1051 c 0x90
 698 1061 665 1080 647 1090 c 0
 645 1090 639 1087 633 1083 c 0
 586 1058 606 995 575 915 c 0
 573 911 567 903 547 903 c 0
 539 903 524 905 510 909 c 0
 477 919 415 950 397 991 c 2
 287 1239 l 1
 449 1188 l 1
 457 1198 461 1196 473 1202 c 0
 489 1210 503 1214 528 1214 c 0x50
 591 1214 655 1175 686 1161 c 1
 692 1161 l 1x90
 862 1175 959 1216 1133 1253 c 0
 1137 1253 1141 1253 1145 1253 c 0
 1198 1253 1294 1198 1294 1151 c 0
 1294 1139 1286 1132 1280 1130 c 0
 999 1048 1016 1077 838 850 c 0
 781 776 725 727 676 696 c 1
 680 696 l 1x30
EndSplineSet
EndChar

StartChar: dha.0001
Encoding: 117 -1 117
Width: 1542
VWidth: 0
Flags: W
HStem: 31 123<465.536 914.644> 1061 123<791.735 1111.21>
VStem: 156 180<278.224 624.048> 1096 178<240 811.061> 1100 182<540.641 1060.19>
AnchorPoint: "ukaara" 1190 0 basechar 0
AnchorPoint: "virama" 809 -246 basechar 0
AnchorPoint: "repha" 954 1122 basechar 0
AnchorPoint: "aakaara" 1298 1217 basechar 0
AnchorPoint: "iikaara" 1298 1217 basechar 0
AnchorPoint: "ekaara" 530 965 basechar 0
AnchorPoint: "bindu" 911 1516 basechar 0
LayerCount: 2
Fore
SplineSet
1235 1303 m 1xe8
 1411 1198 l 1
 1386 1163 l 2
 1343 1104 1298 1091 1296 1044 c 0
 1284 768 1274 549 1274 303 c 1xf0
 1282 -88 l 1
 1100 -4 l 1
 1100 86 l 1
 998 59 917 31 731 31 c 0
 602 31 401 60 258 205 c 0
 176 287 156 363 156 500 c 0
 156 723 264 858 444 1020 c 0
 579 1139 741 1184 907 1184 c 0
 970 1184 1032 1179 1100 1167 c 2
 1122 1163 l 1
 1138 1212 1183 1233 1210 1270 c 2
 1235 1303 l 1xe8
1112 1057 m 1
 1085 1059 1057 1061 1030 1061 c 0
 891 1061 743 1022 616 909 c 0
 438 749 336 625 336 418 c 0
 336 383 338 346 344 313 c 0
 354 256 379 217 393 203 c 0
 407 189 467 154 608 154 c 0
 831 154 877 200 1067 233 c 1
 1096 240 l 1
 1094 385 l 1
 1094 610 1102 815 1112 1057 c 1
EndSplineSet
EndChar

StartChar: na.0001
Encoding: 118 -1 118
Width: 1409
VWidth: 0
Flags: W
HStem: 500 123<336.579 466.35> 983 283<488.189 620.81>
VStem: 156 180<643.236 717> 754 180<199 741.767>
AnchorPoint: "ukaara" 844 205 basechar 0
AnchorPoint: "virama" 717 -41 basechar 0
AnchorPoint: "repha" 831 1094 basechar 0
AnchorPoint: "aakaara" 1163 1223 basechar 0
AnchorPoint: "iikaara" 1163 1223 basechar 0
AnchorPoint: "ekaara" 457 1217 basechar 0
AnchorPoint: "bindu" 717 1516 basechar 0
LayerCount: 2
Fore
SplineSet
1102 1286 m 0
 1157 1286 1253 1225 1253 1182 c 0
 1253 1174 1247 1165 1243 1163 c 2
 1145 1116 l 1
 1100 1091 1056 1065 1001 1049 c 1
 970 1035 938 1017 913 999 c 1
 870 972 844 940 821 903 c 1
 829 899 838 891 842 889 c 0
 926 834 936 788 936 737 c 0
 936 723 934 708 934 694 c 2
 928 279 l 1
 930 258 l 1
 934 250 934 239 934 227 c 0
 934 221 934 213 934 203 c 0
 934 193 934 180 934 164 c 2
 936 117 l 1
 754 199 l 1
 754 246 l 1
 752 283 750 309 750 319 c 1
 742 337 748 334 748 365 c 2
 754 743 l 1
 731 684 700 622 647 565 c 0
 606 522 564 500 498 500 c 0
 453 500 401 510 348 535 c 0
 325 545 307 557 293 565 c 0
 191 628 156 698 156 745 c 0
 156 753 156 766 158 774 c 2
 170 813 l 1
 350 717 l 1
 338 676 l 2
 338 674 336 672 336 664 c 0
 336 648 346 631 350 627 c 1
 354 627 361 623 375 623 c 0
 402 623 438 637 475 676 c 0
 561 768 574 881 627 979 c 1
 621 989 l 1
 617 985 610 983 598 983 c 0
 590 983 577 985 563 989 c 0
 530 999 467 1030 449 1071 c 2
 344 1300 l 1
 485 1255 l 1
 495 1263 504 1264 516 1266 c 0
 518 1266 520 1266 522 1266 c 0
 528 1266 537 1268 543 1268 c 0
 654 1268 768 1165 776 1157 c 1
 784 1157 l 1
 807 1159 828 1163 844 1167 c 1
 985 1233 l 2
 1016 1249 1048 1268 1085 1282 c 0
 1091 1284 1096 1286 1102 1286 c 0
621 989 m 1
 631 987 l 1
 651 1024 680 1059 719 1092 c 1
 692 1110 669 1131 655 1143 c 1
 632 1137 650 1071 627 997 c 0
 627 995 625 991 621 989 c 1
EndSplineSet
EndChar

StartChar: pa.0001
Encoding: 119 -1 119
Width: 1462
VWidth: 0
Flags: W
HStem: 332 123<611.432 861.179> 1028 221<578.31 697.409>
VStem: 346 180<599.262 944.336> 1059 182<-4 401 633 1145.14>
AnchorPoint: "ukaara" 1149 0 basechar 0
AnchorPoint: "virama" 825 -246 basechar 0
AnchorPoint: "repha" 492 1081 basechar 0
AnchorPoint: "aakaara" 1217 1223 basechar 0
AnchorPoint: "iikaara" 1217 1223 basechar 0
AnchorPoint: "ekaara" 246 1198 basechar 0
AnchorPoint: "bindu" 825 1516 basechar 0
LayerCount: 2
Fore
SplineSet
360 1102 m 1
 385 1036 l 1
 395 1067 l 2
 395 1069 395 1069 397 1073 c 1
 389 1079 374 1092 360 1102 c 1
645 1249 m 0
 698 1249 797 1186 797 1145 c 0
 797 1139 795 1130 791 1128 c 0
 768 1110 747 1102 727 1092 c 1
 692 1069 659 1040 610 1028 c 1
 594 1012 581 996 575 973 c 0
 555 897 526 803 526 723 c 0
 526 647 545 580 584 504 c 0
 596 481 606 471 608 469 c 0
 620 465 662 455 711 455 c 2
 748 455 l 1
 852 461 905 548 1024 616 c 1
 1055 633 l 1
 1053 1159 l 2
 1053 1222 1103 1241 1128 1276 c 2
 1153 1309 l 1
 1327 1204 l 1
 1305 1169 l 1
 1270 1120 1233 1110 1233 1077 c 2
 1241 -88 l 1
 1059 -4 l 1
 1057 401 l 1
 1010 366 958 336 874 332 c 1
 834 332 l 2
 766 332 670 334 553 406 c 0
 496 443 445 492 412 553 c 0
 367 643 346 721 346 805 c 0
 346 846 350 889 360 936 c 1
 356 936 350 940 348 940 c 0
 315 950 254 987 238 1026 c 2
 219 1069 l 1
 203 1098 176 1139 176 1176 c 0
 176 1178 176 1180 176 1182 c 2
 135 1282 l 1
 270 1237 l 1
 358 1235 436 1153 446 1145 c 1
 475 1174 524 1188 563 1206 c 1
 583 1220 604 1233 627 1245 c 0
 633 1247 637 1249 645 1249 c 0
EndSplineSet
EndChar

StartChar: ba.0001
Encoding: 121 -1 121
Width: 1290
VWidth: 0
Flags: W
HStem: 178 123<352.774 510.784> 1122 183<1001 1090.18> 1145 123<392.5 562.192>
VStem: 158 178<346.087 540.709> 653 183<-4 209 498 719.768>
AnchorPoint: "ukaara" 743 0 basechar 0
AnchorPoint: "virama" 600 -246 basechar 0
AnchorPoint: "ekaara" 322 1204 basechar 0
AnchorPoint: "iikaara" 1047 1241 basechar 0
AnchorPoint: "aakaara" 1047 1241 basechar 0
AnchorPoint: "repha" 709 1112 basechar 0
AnchorPoint: "bindu" 702 1516 basechar 0
LayerCount: 2
Fore
SplineSet
512 178 m 0xd8
 365 178 170 312 158 457 c 1
 158 459 l 2
 158 465 156 471 156 485 c 0
 156 610 232 694 324 768 c 0
 484 897 415 773 614 1090 c 1
 616 1092 l 1
 565 1119 536 1145 532 1145 c 0
 491 1145 512 1094 473 1014 c 0
 471 1010 462 1001 442 1001 c 0
 434 1001 422 1004 408 1008 c 0
 375 1018 311 1053 295 1092 c 2
 248 1200 l 1
 213 1221 l 1
 227 1245 l 1
 209 1288 l 1
 246 1276 l 1
 254 1290 l 1
 315 1253 l 1
 338 1247 l 1
 352 1263 375 1268 410 1268 c 0xb8
 443 1268 481 1259 512 1247 c 0
 588 1216 629 1178 635 1174 c 1
 645 1174 l 2
 684 1174 721 1184 750 1196 c 1
 777 1214 807 1227 842 1239 c 1
 881 1259 922 1282 969 1300 c 0
 975 1302 979 1305 985 1305 c 0
 1040 1305 1137 1241 1137 1200 c 0
 1137 1192 1134 1186 1130 1184 c 0
 1087 1153 1042 1136 1001 1122 c 1
 954 1098 l 2
 942 1092 927 1085 911 1079 c 1
 884 1059 872 1038 866 1001 c 1
 841 679 831 494 831 205 c 1
 836 -88 l 1
 653 -4 l 1
 651 209 l 1
 612 191 565 178 512 178 c 0xd8
653 498 m 1
 655 600 660 695 666 799 c 1
 603 715 594 739 492 657 c 0
 402 585 336 509 336 403 c 0
 336 399 338 385 338 377 c 0
 342 332 367 307 373 303 c 0
 375 303 381 301 389 301 c 0
 483 301 584 389 625 469 c 2
 643 504 l 1
 653 498 l 1
EndSplineSet
EndChar

StartChar: bha.0001
Encoding: 122 -1 122
Width: 1486
VWidth: 0
Flags: W
HStem: 1026 123<761.483 912.927> 1118 123<639.312 713.329>
VStem: 532 181<386.568 563.589> 1038 181<98 656.37>
AnchorPoint: "ukaara" 1128 102 basechar 0
AnchorPoint: "virama" 825 -143 basechar 0
AnchorPoint: "repha" 860 1087 basechar 0
AnchorPoint: "aakaara" 1241 1210 basechar 0
AnchorPoint: "iikaara" 1241 1210 basechar 0
AnchorPoint: "ekaara" 418 1186 basechar 0
AnchorPoint: "bindu" 825 1516 basechar 0
LayerCount: 2
Fore
SplineSet
1182 1274 m 0xb0
 1235 1274 1331 1210 1331 1169 c 0
 1331 1163 1329 1157 1327 1155 c 0
 1192 1030 1118 931 993 829 c 1
 1038 815 1080 774 1098 756 c 0
 1204 650 1219 561 1219 467 c 0
 1219 401 1210 355 1210 289 c 0
 1210 176 1219 141 1219 61 c 2
 1219 14 l 1
 1038 98 l 1
 1038 143 l 2
 1038 217 1030 254 1030 371 c 0
 1030 441 1038 488 1038 549 c 0
 1038 604 993 741 979 741 c 0
 954 741 913 729 872 709 c 0
 770 656 713 600 713 500 c 0
 713 447 729 377 770 285 c 2
 795 229 l 1
 618 287 l 1
 594 342 l 2
 555 434 534 506 532 565 c 1
 469 536 402 508 326 469 c 2
 285 449 l 1
 123 565 l 1
 166 588 l 1
 393 703 532 740 739 881 c 0
 811 930 867 977 918 1026 c 1
 911 1026 l 2xb0
 884 1026 844 1030 795 1053 c 0
 740 1078 702 1110 694 1114 c 0
 690 1114 684 1118 664 1118 c 2
 653 1118 l 1
 637 1116 643 1038 612 958 c 0
 610 950 598 938 557 948 c 0
 526 956 463 987 438 1028 c 2
 299 1266 l 1
 467 1223 l 1
 469 1221 l 1
 479 1239 489 1239 528 1241 c 1
 541 1241 l 2x70
 596 1241 649 1229 700 1204 c 0
 749 1179 781 1157 791 1149 c 1
 797 1149 l 1
 936 1157 1011 1221 1165 1270 c 0
 1169 1272 1176 1274 1182 1274 c 0xb0
EndSplineSet
EndChar

StartChar: ma.0001
Encoding: 123 -1 123
Width: 1406
VWidth: 0
Flags: W
HStem: 457 123<573.529 820.857>
VStem: 311 181<785.355 918.648> 393 180<580.004 747.108> 997 183<-4 358.112 426 1140.18>
AnchorPoint: "ukaara" 1090 0 basechar 0
AnchorPoint: "virama" 770 -246 basechar 0
AnchorPoint: "repha" 510 1081 basechar 0
AnchorPoint: "aakaara" 1161 1223 basechar 0
AnchorPoint: "iikaara" 1161 1223 basechar 0
AnchorPoint: "ekaara" 264 1198 basechar 0
AnchorPoint: "bindu" 770 1516 basechar 0
LayerCount: 2
Fore
SplineSet
379 1102 m 1x90
 397 1057 l 1
 401 1061 406 1065 416 1073 c 1
 408 1079 393 1090 379 1102 c 1x90
664 1249 m 0
 717 1249 815 1186 815 1145 c 0
 815 1139 813 1130 809 1128 c 0
 721 1062 670 1031 588 965 c 0
 555 940 536 919 522 901 c 0
 497 872 492 849 492 831 c 0xd0
 492 784 573 715 573 592 c 2
 573 580 l 1
 594 580 l 2
 784 580 890 506 999 426 c 1
 1001 659 l 1
 997 1159 l 2
 997 1222 1048 1241 1073 1276 c 2
 1098 1309 l 1
 1272 1204 l 1
 1249 1169 l 1
 1214 1120 1178 1110 1178 1077 c 2
 1182 578 l 1
 1180 -41 l 1
 1180 -88 l 1
 997 -4 l 1
 999 326 l 1
 825 451 868 457 766 457 c 2
 680 457 l 1
 584 451 487 395 426 342 c 1
 387 293 369 285 330 238 c 0
 324 232 315 227 305 227 c 0
 278 227 240 246 217 260 c 0
 166 291 154 320 154 334 c 0
 154 338 156 340 156 342 c 0
 176 377 211 416 252 451 c 1
 275 484 336 557 356 588 c 0
 385 625 393 639 393 674 c 0xb0
 393 768 311 815 311 913 c 0xd0
 311 927 313 947 319 963 c 1
 301 975 266 999 256 1026 c 2
 238 1069 l 1
 222 1098 195 1139 195 1176 c 0
 195 1178 195 1180 195 1182 c 2
 154 1282 l 1
 289 1237 l 1
 369 1235 443 1165 457 1153 c 1
 645 1245 l 2
 651 1247 656 1249 664 1249 c 0
EndSplineSet
EndChar

StartChar: ya.0001
Encoding: 124 -1 124
Width: 1484
VWidth: 0
Flags: W
HStem: 168 123<384.373 578.5> 371 121<838.21 967.053> 1016 221<665.116 784.572>
VStem: 156 180<372.344 580.25> 1075 182<-4 304.178 383 1138.59>
AnchorPoint: "ukaara" 1167 0 basechar 0
AnchorPoint: "virama" 848 -246 basechar 0
AnchorPoint: "repha" 575 1069 basechar 0
AnchorPoint: "aakaara" 1239 1223 basechar 0
AnchorPoint: "iikaara" 1239 1223 basechar 0
AnchorPoint: "ekaara" 330 1186 basechar 0
AnchorPoint: "bindu" 848 1516 basechar 0
LayerCount: 2
Fore
SplineSet
469 1026 m 1
 471 1034 475 1049 481 1061 c 1
 473 1067 458 1080 444 1090 c 1
 469 1026 l 1
805 494 m 0
 905 494 1034 416 1077 383 c 1
 1079 659 l 1
 1075 1159 l 2
 1075 1222 1126 1241 1151 1276 c 2
 1176 1309 l 1
 1350 1204 l 1
 1327 1169 l 1
 1292 1120 1255 1110 1255 1077 c 2
 1260 578 l 1
 1257 -41 l 1
 1257 -88 l 1
 1075 -4 l 1
 1077 276 l 1
 1001 319 950 365 944 369 c 0
 942 369 940 371 930 371 c 0
 811 371 801 197 621 172 c 0
 607 170 592 168 565 168 c 0
 375 168 156 315 156 530 c 0
 156 598 178 664 231 719 c 0
 319 813 445 785 539 799 c 1
 514 840 489 881 475 922 c 1
 422 922 345 963 322 1014 c 2
 303 1057 l 1
 287 1086 260 1126 260 1163 c 0
 260 1165 260 1167 260 1169 c 2
 219 1270 l 1
 354 1225 l 1
 442 1223 520 1141 530 1133 c 1
 535 1135 l 1
 566 1162 604 1176 645 1194 c 1
 665 1208 686 1221 711 1233 c 0
 717 1235 721 1237 729 1237 c 0
 782 1237 881 1174 881 1133 c 0
 881 1127 878 1118 874 1116 c 0
 851 1098 829 1087 809 1077 c 1
 776 1054 741 1028 694 1016 c 1
 669 991 645 936 645 897 c 0
 645 821 733 739 733 700 c 0
 733 692 729 686 717 682 c 1
 565 645 485 696 403 608 c 0
 356 559 336 506 336 449 c 0
 336 396 362 328 391 299 c 1
 399 297 417 291 442 291 c 0
 452 291 467 293 481 295 c 0
 587 309 608 474 778 492 c 0
 780 492 782 492 784 492 c 0
 788 492 797 494 805 494 c 0
EndSplineSet
EndChar

StartChar: va.0001
Encoding: 127 -1 127
Width: 1216
VWidth: 0
Flags: W
HStem: 1001 273<260.947 396.902> 1122 183<926 1014.18>
VStem: 168 180<468.623 700.656> 575 181<-4 212.835 287 701.556>
AnchorPoint: "ukaara" 666 0 basechar 0
AnchorPoint: "virama" 524 -246 basechar 0
AnchorPoint: "ekaara" 246 1204 basechar 0
AnchorPoint: "iikaara" 971 1241 basechar 0
AnchorPoint: "aakaara" 971 1241 basechar 0
AnchorPoint: "repha" 633 1112 basechar 0
AnchorPoint: "bindu" 627 1516 basechar 0
LayerCount: 2
Fore
SplineSet
909 1305 m 0x70
 964 1305 1061 1241 1061 1200 c 0
 1061 1192 1059 1186 1055 1184 c 0
 1012 1153 967 1136 926 1122 c 1x70
 879 1098 l 2
 867 1092 852 1085 836 1079 c 1
 809 1059 797 1038 791 1001 c 1
 766 673 754 483 754 182 c 1
 756 -41 l 1
 758 -88 l 1
 575 -4 l 1
 575 41 l 1
 573 190 l 1
 518 221 439 254 322 344 c 0
 199 438 168 546 168 655 c 0
 168 751 197 793 283 879 c 0
 342 938 414 959 549 1063 c 1
 567 1079 l 1
 510 1106 471 1137 453 1151 c 1
 414 1149 434 1094 397 1014 c 0
 395 1010 387 1001 367 1001 c 0
 359 1001 346 1004 332 1008 c 0
 299 1018 235 1053 219 1092 c 2
 172 1200 l 1
 137 1221 l 1
 152 1245 l 1
 133 1288 l 1
 170 1276 l 1
 178 1290 l 1
 238 1255 l 1
 258 1249 l 1
 270 1263 297 1274 334 1274 c 0xb0
 367 1274 403 1265 434 1253 c 0
 512 1222 553 1180 563 1174 c 1
 569 1174 l 2
 608 1174 645 1184 674 1196 c 1
 701 1214 731 1227 766 1239 c 1
 805 1259 846 1282 893 1300 c 0
 899 1302 903 1305 909 1305 c 0x70
573 287 m 1
 573 504 582 665 594 866 c 1
 531 825 488 801 455 768 c 0
 367 680 348 659 348 573 c 0
 348 467 404 389 414 381 c 0
 471 338 510 322 573 287 c 1
EndSplineSet
EndChar

StartChar: za.0001
Encoding: 128 -1 128
Width: 1812
VWidth: 0
Flags: W
HStem: 1124 123<713.471 1068.11>
VStem: 383 180<913.92 1028.73> 504 180<299.466 527.867> 1159 180<-4 731.561>
AnchorPoint: "ukaara" 1249 0 basechar 0
AnchorPoint: "virama" 893 -246 basechar 0
AnchorPoint: "repha" 870 1184 basechar 0
AnchorPoint: "aakaara" 1567 1210 basechar 0
AnchorPoint: "iikaara" 1567 1210 basechar 0
AnchorPoint: "ekaara" 541 1100 basechar 0
AnchorPoint: "bindu" 893 1516 basechar 0
LayerCount: 2
Fore
SplineSet
938 641 m 1xd0
 795 764 l 1
 850 774 l 2
 897 782 971 832 1051 895 c 1
 1038 901 l 1
 1053 940 l 2
 1069 983 1077 1020 1077 1053 c 0
 1077 1080 1069 1102 1063 1114 c 1
 1045 1118 1014 1124 973 1124 c 0
 842 1124 674 1075 623 1042 c 0
 590 1022 563 971 563 924 c 2
 563 913 l 1xd0
 582 932 l 1
 754 823 l 1
 725 793 l 1
 715 782 l 1
 735 758 l 1
 698 762 l 1
 667 727 644 692 621 659 c 1
 623 657 l 1
 676 573 684 468 684 362 c 0
 684 190 553 100 524 63 c 2
 498 31 l 1
 324 137 l 1
 348 170 l 2
 383 215 504 292 504 444 c 0xb0
 504 473 502 501 500 530 c 1
 455 501 397 479 315 467 c 2
 258 459 l 1
 117 582 l 1
 176 590 l 2
 315 610 369 667 426 743 c 1
 420 754 l 1
 432 752 l 1
 450 777 469 802 492 831 c 1
 490 833 485 836 483 838 c 0
 381 912 383 969 383 1006 c 0
 383 1067 412 1126 459 1157 c 0
 525 1200 690 1247 850 1247 c 0
 916 1247 985 1245 1073 1204 c 0
 1096 1194 1119 1179 1135 1169 c 0
 1194 1130 1225 1094 1241 1057 c 1
 1339 1145 1430 1229 1483 1268 c 2
 1518 1292 l 1
 1686 1180 l 1
 1651 1153 l 2
 1594 1110 1499 1018 1393 922 c 1
 1403 915 l 1
 1393 874 l 2
 1373 800 1347 766 1343 700 c 0
 1337 589 1335 502 1335 418 c 2
 1339 18 l 1
 1339 -88 l 1
 1159 -4 l 1
 1159 100 l 1
 1155 500 l 2
 1155 572 1157 647 1161 733 c 1
 1100 692 1042 659 993 651 c 2
 938 641 l 1xd0
EndSplineSet
EndChar

StartChar: Sa.0001
Encoding: 129 -1 129
Width: 1462
VWidth: 0
Flags: W
HStem: 332 123<611.432 948.661> 1030 219<581.099 700.572>
VStem: 346 180<599.262 945.887> 1016 221<513.243 644.713> 1057 180<-4 360 715 1140.18>
AnchorPoint: "ukaara" 1147 0 basechar 0
AnchorPoint: "virama" 825 -246 basechar 0
AnchorPoint: "repha" 492 1081 basechar 0
AnchorPoint: "aakaara" 1217 1223 basechar 0
AnchorPoint: "iikaara" 1217 1223 basechar 0
AnchorPoint: "ekaara" 246 1198 basechar 0
AnchorPoint: "bindu" 825 1516 basechar 0
LayerCount: 2
Fore
SplineSet
645 1249 m 0xe8
 698 1249 797 1186 797 1145 c 0
 797 1139 795 1130 791 1128 c 0
 766 1110 744 1097 721 1087 c 1
 690 1067 659 1044 614 1030 c 1
 594 1012 579 989 571 958 c 0
 544 870 526 795 526 723 c 0
 526 647 545 580 584 504 c 0
 596 481 606 471 608 469 c 0
 620 465 662 455 711 455 c 2
 748 455 l 1
 877 461 1016 492 1016 598 c 0xf0
 1016 625 1010 639 1006 645 c 1
 983 655 864 688 760 768 c 2
 680 827 l 1
 772 864 l 1
 850 805 l 2
 862 797 942 789 1055 715 c 1
 1053 1159 l 2
 1053 1222 1103 1241 1128 1276 c 2
 1153 1309 l 1
 1327 1204 l 1
 1305 1169 l 1
 1270 1120 1233 1110 1233 1077 c 2
 1237 397 l 1
 1237 -88 l 1
 1057 -4 l 1
 1057 360 l 1
 1000 342 933 334 874 332 c 1
 834 332 l 2
 766 332 670 334 553 406 c 0
 496 443 445 492 412 553 c 0
 367 643 346 721 346 805 c 0
 346 846 350 889 360 936 c 1
 356 936 350 940 348 940 c 0
 315 950 254 987 238 1026 c 2
 135 1282 l 1
 313 1223 l 1
 317 1212 l 1
 327 1212 301 1210 301 1210 c 1
 344 1210 408 1194 461 1155 c 1
 490 1175 522 1188 557 1204 c 1
 580 1218 600 1233 627 1245 c 0
 633 1247 637 1249 645 1249 c 0xe8
EndSplineSet
EndChar

StartChar: sa.0001
Encoding: 130 -1 130
Width: 1652
VWidth: 0
Flags: W
HStem: 535 122<221 381.625> 596 123<739.155 936.984>
VStem: 408 180<397.657 539.948> 1233 180<-4 338 459 1108.59>
AnchorPoint: "ukaara" 1323 0 basechar 0
AnchorPoint: "virama" 893 -246 basechar 0
AnchorPoint: "repha" 780 1106 basechar 0
AnchorPoint: "aakaara" 1407 1217 basechar 0
AnchorPoint: "iikaara" 1407 1217 basechar 0
AnchorPoint: "ekaara" 504 1186 basechar 0
AnchorPoint: "bindu" 893 1516 basechar 0
LayerCount: 2
Fore
SplineSet
670 1065 m 1x30
 676 1073 686 1082 698 1092 c 1
 696 1094 694 1094 690 1096 c 1
 682 1092 674 1083 670 1065 c 1x30
971 1274 m 0
 1024 1274 1122 1208 1122 1169 c 0
 1122 1161 1120 1155 1116 1153 c 0
 1061 1112 1062 1085 958 1034 c 0
 837 975 823 940 813 899 c 0
 803 856 802 799 739 719 c 1
 936 715 1063 609 1233 459 c 1
 1233 477 l 1
 1237 1110 l 2
 1237 1186 1290 1215 1319 1268 c 2
 1337 1303 l 1
 1516 1202 l 1
 1495 1165 l 2
 1460 1099 1417 1081 1417 1028 c 2
 1413 395 l 1
 1413 -88 l 1
 1233 -4 l 1
 1233 338 l 1
 1202 365 l 2
 942 588 972 596 870 596 c 2
 823 596 l 1x70
 731 594 670 594 641 555 c 0
 604 506 588 467 588 432 c 0
 588 348 652 321 750 268 c 2
 840 219 l 1
 815 139 l 1
 725 186 l 2
 608 247 408 371 408 514 c 0
 408 522 408 533 410 541 c 1
 387 537 366 535 346 535 c 0
 319 535 291 537 256 551 c 2
 166 588 l 1
 145 688 l 1
 221 657 l 1
 223 657 l 2xb0
 291 657 474 730 535 793 c 0
 588 848 608 889 618 924 c 1
 614 924 608 928 606 928 c 0
 573 938 512 975 496 1014 c 2
 393 1270 l 1
 545 1219 l 1
 559 1225 568 1223 584 1223 c 0
 633 1223 698 1194 731 1171 c 1
 813 1187 860 1231 954 1270 c 0
 960 1272 965 1274 971 1274 c 0
EndSplineSet
EndChar

StartChar: ha.0001
Encoding: 131 -1 131
Width: 1683
VWidth: 0
Flags: W
HStem: 608 123<813.49 1058.68> 1118 123<567.258 647.184>
VStem: 584 180<492.561 558.812> 1063 215<372.276 554.508>
AnchorPoint: "ukaara" 768 184 basechar 0
AnchorPoint: "virama" 874 -246 basechar 0
AnchorPoint: "repha" 780 1087 basechar 0
AnchorPoint: "aakaara" 1186 1223 basechar 0
AnchorPoint: "iikaara" 1186 1223 basechar 0
AnchorPoint: "ekaara" 338 1186 basechar 0
AnchorPoint: "bindu" 874 1516 basechar 0
LayerCount: 2
Fore
SplineSet
1126 1286 m 0
 1179 1286 1276 1223 1276 1182 c 0
 1276 1174 1274 1167 1270 1165 c 0
 1086 1042 983 969 795 852 c 0
 637 754 536 698 395 618 c 1
 465 583 529 541 584 492 c 1
 582 504 584 514 584 522 c 0
 584 659 671 731 829 731 c 0
 938 731 1045 723 1151 643 c 0
 1266 557 1280 453 1280 387 c 0
 1280 367 1278 348 1278 336 c 0
 1278 328 1280 324 1282 322 c 0
 1356 250 1401 219 1493 139 c 2
 1565 78 l 1
 1454 57 l 1
 1382 119 l 2
 1306 185 1245 225 1151 317 c 0
 1065 403 1063 482 1063 539 c 0
 1063 564 1063 584 1057 600 c 1
 1037 604 1003 608 952 608 c 0
 839 608 764 557 764 440 c 0
 764 377 788 299 813 242 c 1
 836 207 850 177 858 150 c 0
 858 146 860 143 860 141 c 0
 860 127 845 123 829 123 c 0
 761 123 690 193 682 207 c 0
 666 238 653 264 643 289 c 1
 602 355 489 459 438 498 c 0
 379 543 381 524 240 596 c 0
 238 598 228 600 205 616 c 0
 182 632 154 662 154 682 c 0
 154 688 158 692 164 696 c 0
 346 800 453 856 631 967 c 2
 748 1040 l 1
 682 1065 633 1108 623 1116 c 0
 621 1116 612 1118 596 1118 c 2
 586 1118 l 1
 568 1116 567 1036 532 958 c 0
 530 952 518 938 477 948 c 0
 446 956 383 987 358 1028 c 2
 219 1266 l 1
 387 1223 l 1
 395 1210 l 1
 405 1233 416 1239 461 1241 c 1
 473 1241 l 2
 528 1241 584 1229 637 1202 c 0
 682 1179 707 1157 719 1149 c 1
 869 1159 948 1229 1108 1282 c 0
 1112 1284 1120 1286 1126 1286 c 0
EndSplineSet
EndChar

StartChar: kSa.0001
Encoding: 132 -1 132
Width: 1824
VWidth: 0
Flags: W
HStem: 162 123<649.566 994.891> 862 256<772.375 958.707> 938 305<465.656 601.903>
VStem: 154 430<414.5 573.893> 1018 219<316.6 427.713> 1057 180<-4 176 498 682>
AnchorPoint: "ukaara" 1145 0 basechar 0
AnchorPoint: "repha" 852 1057 basechar 0
AnchorPoint: "aakaara" 1274 1204 basechar 0
AnchorPoint: "iikaara" 1274 1204 basechar 0
AnchorPoint: "ekaara" 414 1192 basechar 0
AnchorPoint: "bindu" 866 1516 basechar 0
AnchorPoint: "virama" 866 -246 basechar 0
LayerCount: 2
Fore
SplineSet
1214 1268 m 0xd4
 1267 1268 1364 1206 1364 1163 c 0
 1364 1155 1360 1147 1354 1145 c 0
 1196 1063 1088 1026 963 954 c 1
 1244 858 1439 610 1595 524 c 2
 1686 475 l 1
 1651 399 l 1
 1563 451 l 1
 1409 537 1311 616 1235 682 c 1
 1237 436 l 1
 1235 -88 l 1
 1053 -4 l 1
 1055 176 l 1
 996 166 930 168 881 164 c 0
 863 162 839 162 819 162 c 0
 774 162 706 162 610 215 c 0
 567 240 521 272 494 313 c 1
 439 381 412 441 406 494 c 1
 330 432 l 2
 326 428 317 426 305 426 c 0
 285 426 252 432 213 459 c 0
 188 475 154 505 154 528 c 0
 154 534 156 539 160 543 c 0
 287 652 373 741 475 831 c 1
 473 874 l 1
 506 860 l 1
 572 919 666 985 754 1042 c 1
 705 1071 669 1102 651 1118 c 1xd4
 610 1114 633 1040 602 952 c 0
 600 946 593 938 573 938 c 0
 565 938 553 940 541 944 c 0
 510 952 446 985 426 1026 c 2
 299 1274 l 1
 465 1227 l 1
 479 1243 493 1243 528 1243 c 2
 535 1243 l 2xb4
 568 1243 606 1235 641 1219 c 0
 731 1180 780 1126 788 1118 c 1
 944 1124 1028 1205 1196 1264 c 0
 1200 1266 1208 1268 1214 1268 c 0xd4
584 440 m 0
 584 389 606 340 649 289 c 1
 661 287 678 285 696 285 c 0
 716 285 731 285 745 287 c 0
 884 299 1018 285 1018 385 c 0xd8
 1018 408 1012 422 1008 428 c 1
 983 440 872 471 770 547 c 2
 690 606 l 1
 780 643 l 1
 860 584 l 2
 870 576 948 568 1057 498 c 1
 1057 518 l 1
 1055 788 l 1
 1053 825 l 1
 1010 848 962 862 899 862 c 0
 887 862 876 862 862 860 c 0
 813 856 741 799 655 721 c 1
 649 608 584 526 584 440 c 0
EndSplineSet
EndChar

StartChar: zeronojoin
Encoding: 133 8204 133
Width: 0
VWidth: 0
Flags: W
VStem: -90 180<-414 1204>
LayerCount: 2
Fore
SplineSet
90 -498 m 1
 -90 -414 l 1
 -90 1204 l 1
 -150 1145 l 1
 -322 1253 l 1
 -104 1470 l 1
 -334 1700 l 1
 -201 1702 l 1
 -37 1536 l 1
 150 1722 l 1
 322 1614 l 1
 104 1397 l 1
 334 1167 l 1
 201 1165 l 1
 90 1276 l 1
 90 -498 l 1
EndSplineSet
EndChar

StartChar: zerojoin
Encoding: 134 8205 134
Width: 0
VWidth: 0
Flags: W
VStem: -90 180<-414 1438>
LayerCount: 2
Fore
SplineSet
90 -498 m 1
 -90 -414 l 1
 -90 1522 l 1
 90 1438 l 1
 90 -498 l 1
EndSplineSet
EndChar

StartChar: dottedcircle
Encoding: 135 9676 135
Width: 1626
VWidth: 0
Flags: W
HStem: -35 213<753.083 907.797> -14 213<719.047 872.917> 129 213<404.083 558.953 1101.08 1256.93> 150 212<370.047 524.917 1066.07 1221.92> 477 213<241.083 395.797 1265.08 1422> 498 213<207.047 360.917 1230.07 1384.92> 825 213<404.083 558.953 1101.08 1256.93> 846 213<370.047 524.917 1067.05 1221.92> 989 213<753.083 907.797> 1010 213<719.047 872.917>
VStem: 319 291<199.021 292.972 895.021 988.979> 668 290<35.0214 128.979 1059.02 1152.98> 1016 291<200.297 291.174 894.872 987.703>
CounterMasks: 1 0038
AnchorPoint: "ekaara" 219 1229 basechar 0
AnchorPoint: "virama" 813 -205 basechar 0
AnchorPoint: "iikaara" 1407 1229 basechar 0
AnchorPoint: "aakaara" 1407 1229 basechar 0
AnchorPoint: "repha" 813 1434 basechar 0
AnchorPoint: "bindu" 813 1434 basechar 0
AnchorPoint: "ukaara" 813 -205 basechar 0
LayerCount: 2
Fore
SplineSet
403 1059 m 0x0138
 426 1059 456 1052 487 1038 c 0
 612 981 610 915 610 901 c 0
 610 858 585 825 526 825 c 0x0238
 503 825 473 832 442 846 c 0
 317 903 319 969 319 983 c 0
 319 1026 344 1059 403 1059 c 0x0138
403 362 m 0x1038
 426 362 456 356 487 342 c 0
 612 285 610 219 610 205 c 0
 610 162 585 129 526 129 c 0x2038
 503 129 473 136 442 150 c 0
 317 207 319 273 319 287 c 0
 319 330 344 362 403 362 c 0x1038
1100 362 m 0x1038
 1123 362 1153 356 1184 342 c 0
 1305 287 1307 221 1307 205 c 0
 1307 160 1282 129 1223 129 c 0x2038
 1200 129 1170 136 1139 150 c 0
 1016 205 1016 271 1016 287 c 0
 1016 332 1041 362 1100 362 c 0x1038
1100 1059 m 0x0138
 1123 1059 1153 1052 1184 1038 c 0
 1307 983 1307 917 1307 901 c 0
 1307 856 1282 825 1223 825 c 0x0238
 1200 825 1170 832 1139 846 c 0
 1014 903 1016 969 1016 983 c 0
 1016 1026 1041 1059 1100 1059 c 0x0138
240 711 m 0x0438
 263 711 293 704 324 690 c 0
 449 633 446 567 446 553 c 0
 446 510 421 477 362 477 c 0x0838
 339 477 310 484 279 498 c 0
 154 555 156 621 156 635 c 0
 156 678 181 711 240 711 c 0x0438
1264 711 m 0x0438
 1287 711 1317 704 1348 690 c 0
 1471 635 1470 569 1470 553 c 0
 1470 508 1445 477 1386 477 c 0x0838
 1363 477 1334 484 1303 498 c 0
 1180 553 1180 619 1180 635 c 0
 1180 680 1205 711 1264 711 c 0x0438
836 178 m 0x8038
 961 121 958 55 958 41 c 0
 958 -2 933 -35 874 -35 c 0x8038
 851 -35 822 -28 791 -14 c 0
 666 43 668 109 668 123 c 0
 668 166 693 199 752 199 c 0x4038
 775 199 805 192 836 178 c 0x8038
752 1223 m 0x0078
 775 1223 805 1216 836 1202 c 0
 961 1145 958 1079 958 1065 c 0
 958 1022 933 989 874 989 c 0x00b8
 851 989 822 996 791 1010 c 0
 666 1067 668 1133 668 1147 c 0
 668 1190 693 1223 752 1223 c 0x0078
EndSplineSet
EndChar

StartChar: kya
Encoding: 136 -1 136
Width: 1490
VWidth: 0
Flags: W
HStem: -129 123<484.238 887.107> 141 123<382.789 615.503> 158 106<381.618 596.071>
VStem: 639 180<284.604 926> 1001 181<128.874 440>
AnchorPoint: "virama" 670 -317 basechar 0
AnchorPoint: "ukaara" 655 -68 basechar 0
AnchorPoint: "repha" 696 1126 basechar 0
AnchorPoint: "aakaara" 1012 1214 basechar 0
AnchorPoint: "iikaara" 1012 1214 basechar 0
AnchorPoint: "ekaara" 369 1206 basechar 0
AnchorPoint: "bindu" 707 1516 basechar 0
LayerCount: 2
Fore
SplineSet
365 270 m 1xb8
 400 268 438 264 477 264 c 0
 608 264 639 272 639 483 c 2
 639 532 l 1
 641 889 l 1
 641 926 l 1
 561 844 447 693 332 578 c 0
 328 574 317 571 305 571 c 0
 285 571 254 577 217 602 c 0
 190 618 154 651 154 674 c 0
 154 678 156 682 160 686 c 0
 283 817 344 925 463 1036 c 1
 436 1046 383 1073 360 1110 c 2
 248 1284 l 1
 389 1251 l 1
 397 1259 406 1260 420 1262 c 1
 442 1262 l 2
 475 1262 510 1253 541 1241 c 0
 596 1218 625 1194 635 1188 c 1
 664 1190 685 1194 705 1198 c 1
 721 1204 742 1211 762 1217 c 2
 821 1235 l 1
 856 1249 893 1264 936 1276 c 0
 940 1278 946 1278 952 1278 c 0
 1005 1278 1102 1217 1102 1174 c 0
 1102 1164 1094 1157 1090 1155 c 0
 1022 1126 978 1117 915 1094 c 0
 886 1084 838 1071 811 1057 c 1
 1042 942 1171 733 1282 657 c 2
 1366 600 l 1
 1290 551 l 1
 1208 608 l 2
 946 792 899 916 819 963 c 1
 821 807 l 1
 819 451 l 1
 819 401 l 2
 819 190 770 141 600 141 c 0xd8
 516 141 444 146 381 158 c 1
 412 43 461 18 475 12 c 0
 493 4 537 -6 594 -6 c 2
 635 -6 l 2
 893 -6 1001 6 1001 477 c 2
 1001 524 l 1
 1182 440 l 1
 1182 395 l 2
 1182 -109 1028 -129 717 -129 c 0
 645 -129 576 -121 502 -92 c 0
 309 -18 230 116 201 229 c 1
 129 278 115 321 115 344 c 0
 115 379 131 412 188 412 c 0
 194 412 277 406 338 338 c 0
 363 311 365 295 365 279 c 2
 365 270 l 1xb8
545 1108 m 1
 555 1116 561 1118 573 1128 c 1
 569 1130 569 1135 561 1139 c 1
 557 1139 l 1
 555 1137 547 1126 545 1108 c 1
EndSplineSet
LCarets2: 2 0 0 
Ligature2: "Letter Conjunction-1" ka virAma ya
EndChar

StartChar: khya
Encoding: 137 -1 137
Width: 1601
VWidth: 0
Flags: W
HStem: -135 123<720.785 1045.32> 141 123<716.981 918.503>
VStem: 358 181<169.945 272> 418 180<569.806 769.366> 633 180<742.416 898.654> 926 180<354.459 612 780 966.049> 942 180<284.604 610.827 780 966.049>
AnchorPoint: "virama" 973 -317 basechar 0
AnchorPoint: "ukaara" 958 -68 basechar 0
AnchorPoint: "repha" 762 1085 basechar 0
AnchorPoint: "aakaara" 1237 1219 basechar 0
AnchorPoint: "iikaara" 1237 1219 basechar 0
AnchorPoint: "ekaara" 467 1151 basechar 0
AnchorPoint: "bindu" 731 1516 basechar 0
LayerCount: 2
Fore
SplineSet
633 825 m 0xea
 633 899 664 995 711 1042 c 1
 645 1062 591 1092 571 1102 c 1
 557 1100 530 1085 516 1065 c 1
 659 971 l 1
 625 944 l 1
 645 920 l 1
 602 924 l 1
 584 906 567 888 553 872 c 1
 596 809 598 751 598 692 c 0
 598 590 578 492 545 459 c 2
 514 430 l 1
 342 539 l 1
 373 569 l 2
 389 585 418 678 418 770 c 1
 391 760 356 752 315 748 c 2
 254 739 l 1
 117 864 l 1
 176 870 l 1
 274 882 313 913 354 954 c 1
 342 971 l 1
 367 967 l 1
 395 997 l 1
 323 1054 326 1092 326 1112 c 0
 326 1171 369 1225 451 1225 c 0
 471 1225 490 1221 506 1217 c 0
 664 1174 612 1147 700 1147 c 0
 772 1147 869 1163 961 1192 c 1
 961 1196 l 1
 965 1194 l 1
 1035 1217 1102 1245 1155 1276 c 1
 1194 1300 l 1
 1358 1184 l 1
 1319 1161 l 2
 1266 1130 1205 1102 1137 1079 c 1
 1125 1026 1106 985 1106 938 c 2
 1106 872 l 2xdc
 1106 722 1116 623 1122 451 c 1
 1122 401 l 2
 1122 190 1073 141 903 141 c 0
 766 141 598 243 541 272 c 1
 541 270 539 268 539 260 c 0
 539 115 633 41 682 18 c 0
 713 4 764 -12 825 -12 c 0
 843 -12 864 -10 889 -6 c 0
 1122 29 1205 74 1266 475 c 1
 1272 518 l 1
 1454 428 l 1
 1446 385 l 1
 1385 -16 1284 -90 1028 -129 c 0
 997 -133 975 -135 948 -135 c 0
 866 -135 774 -117 682 -74 c 0
 463 26 358 190 358 342 c 0
 358 377 371 401 416 401 c 0
 578 401 688 264 780 264 c 0
 911 264 942 272 942 483 c 2
 942 532 l 2
 942 561 940 587 938 612 c 1
 922 608 904 606 881 606 c 2
 870 606 l 2
 852 606 832 609 793 623 c 0
 744 641 653 690 639 758 c 0
 635 781 633 800 633 825 c 0xea
930 780 m 1
 928 835 926 891 926 954 c 2
 926 967 l 1
 893 940 866 924 852 889 c 0
 827 832 813 788 813 743 c 2
 813 741 l 1
 840 751 868 764 905 774 c 2
 930 780 l 1
EndSplineSet
LCarets2: 2 0 0 
Ligature2: "Letter Conjunction-1" kha virAma ya
EndChar

StartChar: gya
Encoding: 138 -1 138
Width: 1626
VWidth: 0
Flags: W
HStem: -133 123<707.657 1064.4> 141 123<704.717 906.503> 1024 123<640.169 923.167>
VStem: 346 180<170.578 272> 418 180<569.806 769.366> 930 180<284.604 1028.25>
AnchorPoint: "virama" 961 -317 basechar 0
AnchorPoint: "ukaara" 946 -68 basechar 0
AnchorPoint: "repha" 762 1085 basechar 0
AnchorPoint: "aakaara" 1237 1219 basechar 0
AnchorPoint: "iikaara" 1237 1219 basechar 0
AnchorPoint: "ekaara" 467 1151 basechar 0
AnchorPoint: "bindu" 731 1516 basechar 0
LayerCount: 2
Fore
SplineSet
1296 500 m 1xf4
 1479 410 l 1
 1470 367 l 1
 1409 -36 1274 -96 1014 -129 c 0
 989 -131 967 -133 944 -133 c 0
 858 -133 764 -117 668 -72 c 0
 451 28 346 190 346 342 c 0xf4
 346 377 358 401 403 401 c 0
 565 401 676 264 768 264 c 0
 899 264 930 272 930 483 c 2
 930 532 l 1
 924 883 l 2
 924 926 924 971 926 1022 c 1
 926 1030 l 1
 891 1026 856 1024 823 1024 c 0
 717 1024 602 1086 571 1102 c 1
 557 1100 530 1085 516 1065 c 1
 659 971 l 1
 625 944 l 1
 645 920 l 1
 602 924 l 1
 584 906 567 888 553 872 c 1
 596 809 598 751 598 692 c 0
 598 590 578 492 545 459 c 2
 514 430 l 1
 342 539 l 1
 373 569 l 2
 389 585 418 678 418 770 c 1xec
 391 760 356 752 315 748 c 2
 254 739 l 1
 117 864 l 1
 176 870 l 1
 274 882 313 913 354 954 c 1
 342 971 l 1
 367 967 l 1
 395 997 l 1
 323 1054 326 1092 326 1112 c 0
 326 1171 369 1225 451 1225 c 0
 471 1225 490 1221 506 1217 c 0
 664 1174 612 1147 700 1147 c 0
 772 1147 869 1163 961 1192 c 1
 961 1196 l 1
 965 1194 l 1
 1035 1217 1102 1245 1155 1276 c 1
 1194 1300 l 1
 1358 1184 l 1
 1319 1161 l 2
 1266 1130 1205 1102 1137 1079 c 1
 1123 1026 1108 987 1106 936 c 0
 1104 887 1104 842 1104 801 c 2
 1110 451 l 1
 1110 401 l 2
 1110 190 1061 141 891 141 c 0
 754 141 585 243 528 272 c 1
 528 270 526 268 526 260 c 0
 526 115 619 46 668 23 c 0
 701 7 755 -10 821 -10 c 0
 835 -10 856 -8 879 -6 c 0
 1117 23 1229 58 1290 457 c 1
 1296 500 l 1xf4
EndSplineSet
LCarets2: 2 0 0 
Ligature2: "Letter Conjunction-1" ga virAma ya
EndChar

StartChar: ghya
Encoding: 139 -1 139
Width: 1560
VWidth: 0
Flags: W
HStem: -133 123<698.027 1041.12> 141 123<690.717 887.76> 483 123<776.647 887.656>
VStem: 256 180<699.339 1037.78> 332 180<171.211 272> 590 178<759.638 1090.17> 913 181<283.651 483 630.909 1112>
AnchorPoint: "virama" 946 -317 basechar 0
AnchorPoint: "ukaara" 930 -68 basechar 0
AnchorPoint: "repha" 780 1192 basechar 0
AnchorPoint: "aakaara" 1085 1210 basechar 0
AnchorPoint: "iikaara" 1085 1210 basechar 0
AnchorPoint: "ekaara" 246 1174 basechar 0
AnchorPoint: "bindu" 705 1516 basechar 0
LayerCount: 2
Fore
SplineSet
913 483 m 1xee
 807 487 717 543 664 596 c 1
 627 580 580 575 537 573 c 1
 520 573 l 2
 493 573 455 575 389 608 c 0
 369 618 334 637 309 664 c 0
 284 689 276 709 274 729 c 0
 270 792 256 860 256 940 c 0xf6
 256 971 258 1001 264 1036 c 1
 254 1044 229 1060 219 1083 c 2
 131 1255 l 1
 205 1235 l 1
 215 1239 223 1239 233 1239 c 0
 276 1239 335 1206 360 1190 c 1
 371 1194 l 1
 387 1208 412 1227 455 1243 c 0
 459 1245 467 1247 473 1247 c 0
 516 1247 575 1209 600 1184 c 1
 602 1196 l 1
 606 1239 l 1
 635 1225 l 1
 658 1239 684 1241 696 1249 c 2
 733 1274 l 1
 901 1161 l 1
 864 1135 l 2
 819 1104 790 1115 786 1092 c 0
 780 1053 774 1010 772 965 c 0
 772 926 770 889 768 852 c 1
 768 825 l 2
 768 739 772 659 774 641 c 1
 778 631 785 618 791 608 c 0
 793 608 797 606 803 606 c 0
 834 606 885 631 897 668 c 0
 905 697 909 731 913 770 c 1
 915 1010 l 1
 913 1092 l 2
 913 1123 915 1149 915 1182 c 2
 915 1206 l 2
 915 1208 918 1212 918 1214 c 2
 918 1229 l 1
 928 1225 l 1
 1004 1268 l 1
 1047 1290 l 1
 1208 1174 l 1
 1167 1153 l 2
 1142 1139 1127 1126 1098 1112 c 1
 1096 1098 l 1
 1096 926 l 1
 1098 778 l 2
 1098 741 1096 709 1094 676 c 1
 1094 399 l 2
 1094 190 1047 141 877 141 c 0
 740 141 571 243 514 272 c 1
 514 270 512 268 512 260 c 0
 512 115 604 46 653 23 c 0
 688 7 743 -10 809 -10 c 0
 823 -10 837 -8 862 -6 c 0
 1083 19 1164 43 1225 444 c 1
 1231 487 l 1
 1413 397 l 1
 1405 354 l 1
 1344 -47 1241 -100 997 -129 c 0
 974 -131 955 -133 932 -133 c 0
 846 -133 749 -115 653 -70 c 0
 436 30 332 190 332 342 c 0
 332 377 344 401 389 401 c 0
 551 401 662 264 754 264 c 0
 885 264 913 272 913 481 c 2
 913 483 l 1xee
500 1059 m 1
 482 1045 469 1031 461 1006 c 0
 443 951 436 903 436 858 c 0
 436 803 445 747 451 698 c 1
 496 702 527 713 543 752 c 0
 576 834 584 899 588 969 c 0
 588 989 590 1010 590 1030 c 0
 590 1057 592 1081 594 1110 c 1
 571 1096 553 1087 537 1079 c 0
 529 1073 518 1065 500 1059 c 1
EndSplineSet
LCarets2: 2 0 0 
Ligature2: "Letter Conjunction-1" gha virAma ya
EndChar

StartChar: cya
Encoding: 140 -1 140
Width: 1241
VWidth: 0
Flags: W
HStem: -66 123<455.02 720.229> 209 121<404.085 606.463> 1065 215<393.375 519.716>
VStem: 614 181<333.164 623 743 896.286>
AnchorPoint: "virama" 643 -250 basechar 0
AnchorPoint: "ukaara" 629 0 basechar 0
AnchorPoint: "repha" 676 1159 basechar 0
AnchorPoint: "aakaara" 930 1237 basechar 0
AnchorPoint: "iikaara" 930 1237 basechar 0
AnchorPoint: "ekaara" 385 1214 basechar 0
AnchorPoint: "bindu" 696 1516 basechar 0
LayerCount: 2
Fore
SplineSet
621 1223 m 1
 629 1223 643 1221 649 1227 c 1
 651 1225 l 1
 678 1229 703 1241 721 1249 c 1
 770 1263 797 1278 854 1296 c 0
 856 1296 860 1298 866 1298 c 0
 886 1298 928 1291 971 1260 c 0
 994 1244 1022 1214 1022 1194 c 0
 1022 1188 1018 1184 1012 1180 c 0
 981 1164 946 1151 913 1141 c 2
 881 1128 l 2
 869 1124 858 1118 848 1116 c 1
 834 1108 817 1096 817 1073 c 1
 799 889 793 776 793 608 c 1
 795 451 l 1
 795 403 l 2
 795 249 768 207 664 207 c 0
 637 207 608 209 573 209 c 0
 503 209 420 238 340 291 c 1
 358 135 443 74 451 70 c 0
 459 66 481 57 518 57 c 0
 528 57 539 59 559 61 c 0
 778 92 844 117 905 518 c 1
 911 561 l 1
 1094 471 l 1
 1085 428 l 1
 1024 27 940 -26 698 -61 c 0
 678 -63 661 -66 641 -66 c 0
 584 -66 523 -56 455 -25 c 0
 228 75 164 252 156 410 c 1
 156 422 l 2
 156 430 154 438 154 446 c 0
 154 462 160 475 195 475 c 0
 373 475 355 332 451 332 c 0
 492 332 521 330 541 330 c 2
 543 330 l 2
 594 330 614 329 614 485 c 2
 614 532 l 1
 612 623 l 1
 608 627 l 1
 551 672 522 707 518 709 c 1
 518 709 518 707 516 709 c 0
 471 727 430 723 307 750 c 0
 297 752 262 759 225 786 c 0
 202 802 174 832 174 852 c 0
 174 858 178 862 184 866 c 0
 299 929 373 954 471 1028 c 0
 524 1067 547 1102 584 1147 c 1
 578 1149 573 1153 571 1155 c 1
 557 1149 549 1110 520 1075 c 0
 514 1069 504 1065 494 1065 c 0
 467 1065 429 1082 406 1096 c 0
 365 1121 350 1143 346 1151 c 2
 268 1296 l 1
 393 1262 l 1
 401 1270 409 1276 436 1280 c 1
 457 1280 l 2
 510 1280 584 1246 621 1223 c 1
612 743 m 1
 612 796 614 848 616 897 c 1
 565 862 522 837 477 817 c 1
 514 801 553 782 573 770 c 2
 612 743 l 1
EndSplineSet
LCarets2: 2 0 0 
Ligature2: "Letter Conjunction-1" ca virAma ya
EndChar

StartChar: chya
Encoding: 141 -1 141
Width: 1396
VWidth: 0
Flags: W
HStem: -6 121<453.022 789.749> 264 123<397.245 580.503> 670 123<363.609 508.33 821.469 1024.34> 907 123<376.147 561.277 884.854 1058.65> 1079 213<491.053 600.525>
VStem: 182 180<797.766 958> 604 180<407.604 690> 1061 180<832.704 905>
AnchorPoint: "virama" 635 -195 basechar 0
AnchorPoint: "ukaara" 621 55 basechar 0
AnchorPoint: "repha" 705 1192 basechar 0
AnchorPoint: "aakaara" 926 1243 basechar 0
AnchorPoint: "iikaara" 926 1243 basechar 0
AnchorPoint: "ekaara" 494 1225 basechar 0
AnchorPoint: "bindu" 702 1516 basechar 0
LayerCount: 2
Fore
SplineSet
1004 580 m 1
 1186 489 l 1
 1178 446 l 1
 1117 40 940 14 688 -6 c 1
 682 -6 l 2
 680 -6 663 -8 649 -8 c 0
 588 -8 525 2 453 35 c 0
 228 137 162 305 156 465 c 1
 156 479 l 2
 156 485 154 496 154 502 c 0
 154 518 160 530 195 530 c 0
 371 530 348 387 442 387 c 0
 573 387 604 395 604 606 c 2
 604 655 l 1
 602 690 l 1
 575 680 547 674 512 670 c 1
 506 670 l 2
 504 670 503 668 483 668 c 0
 444 668 383 678 313 721 c 0
 288 735 264 756 246 776 c 0
 197 825 182 870 182 913 c 0
 182 1003 291 1028 385 1032 c 1
 397 1032 l 2
 426 1032 463 1028 512 1008 c 0
 553 992 580 975 596 965 c 1
 596 998 600 1036 602 1079 c 1
 528 1083 467 1136 453 1165 c 2
 377 1307 l 1
 489 1274 l 1
 493 1278 514 1292 547 1292 c 0
 570 1292 610 1284 659 1255 c 1
 712 1261 755 1278 823 1296 c 2
 852 1305 l 1
 864 1305 l 2
 884 1305 924 1297 967 1266 c 0
 990 1250 1018 1220 1018 1200 c 0
 1018 1194 1014 1190 1008 1186 c 0
 910 1131 797 1128 791 1073 c 0
 789 1048 786 1028 784 1008 c 1
 823 1020 866 1030 913 1030 c 0
 962 1030 1016 1022 1079 993 c 0
 1104 983 1125 968 1141 958 c 0
 1223 903 1241 852 1241 817 c 0
 1241 698 1090 674 975 670 c 1
 965 670 l 2
 928 670 887 680 844 700 c 0
 815 714 794 729 778 741 c 1
 780 700 782 647 784 573 c 1
 784 524 l 2
 784 313 735 264 565 264 c 0
 499 264 416 291 340 342 c 1
 358 188 441 133 449 129 c 0
 459 125 485 115 526 115 c 0
 528 115 534 117 557 117 c 0
 797 137 936 142 997 537 c 1
 1004 580 l 1
573 879 m 1
 546 895 532 903 526 907 c 1
 522 907 522 909 520 909 c 2
 514 909 l 1
 434 905 362 880 362 831 c 0
 362 815 367 803 371 793 c 1
 375 793 l 1
 459 805 518 840 573 879 c 1
821 823 m 1
 831 815 842 805 854 795 c 1
 952 799 1061 825 1061 899 c 0
 1061 901 1059 901 1059 905 c 1
 1053 905 1046 907 1036 907 c 0
 1026 907 1016 907 1008 905 c 0
 934 893 876 862 821 823 c 1
EndSplineSet
LCarets2: 2 0 0 
Ligature2: "Letter Conjunction-1" cha virAma ya
EndChar

StartChar: jya
Encoding: 142 -1 142
Width: 1366
VWidth: 0
Flags: W
HStem: -129 123<465.436 828.191> 141 123<420.201 605.503>
VStem: 629 180<284.604 620.12>
AnchorPoint: "virama" 659 -317 basechar 0
AnchorPoint: "ukaara" 645 -68 basechar 0
AnchorPoint: "repha" 655 1114 basechar 0
AnchorPoint: "aakaara" 1122 956 basechar 0
AnchorPoint: "iikaara" 1053 1210 basechar 0
AnchorPoint: "ekaara" 342 1182 basechar 0
AnchorPoint: "bindu" 684 1516 basechar 0
LayerCount: 2
Fore
SplineSet
647 1182 m 1
 719 1194 754 1239 815 1270 c 0
 819 1272 826 1272 834 1272 c 0
 846 1272 865 1270 885 1262 c 1
 916 1268 950 1270 987 1272 c 2
 1049 1278 l 1
 1182 1153 l 1
 1118 1149 l 2
 1005 1141 971 1143 971 1094 c 0
 971 1090 973 1089 973 1087 c 0
 975 1073 1006 1051 1112 1008 c 2
 1202 971 l 1
 1223 870 l 1
 1133 905 l 2
 1082 925 930 987 846 1069 c 1
 707 979 l 1
 734 965 764 951 799 928 c 0
 910 858 964 809 1044 752 c 2
 1124 694 l 1
 1040 651 l 1
 958 711 l 2
 862 781 823 815 741 866 c 0
 710 886 686 897 623 928 c 1
 420 815 l 1
 438 809 460 798 489 784 c 0
 575 743 676 700 776 612 c 0
 792 598 809 577 809 561 c 2
 809 401 l 2
 809 190 760 141 590 141 c 0
 516 141 426 174 350 225 c 1
 366 71 447 16 461 10 c 0
 475 4 508 -6 557 -6 c 2
 582 -6 l 1
 809 8 938 -6 999 389 c 1
 1006 432 l 1
 1188 342 l 1
 1180 299 l 1
 1119 -107 951 -115 711 -129 c 1
 680 -129 l 2
 612 -129 543 -119 465 -84 c 0
 246 14 174 178 168 336 c 1
 168 348 l 2
 168 354 166 359 166 365 c 0
 166 385 170 401 209 401 c 0
 387 401 371 264 467 264 c 0
 598 264 629 272 629 483 c 2
 629 618 l 1
 596 641 555 659 483 694 c 0
 420 725 375 733 266 770 c 0
 203 793 166 834 158 854 c 0
 156 858 154 862 154 866 c 0
 154 876 162 879 164 881 c 2
 465 1047 l 1
 221 1214 l 1
 299 1264 l 1
 424 1176 l 1
 430 1207 463 1227 520 1227 c 0
 528 1227 581 1223 647 1182 c 1
EndSplineSet
LCarets2: 2 0 0 
Ligature2: "Letter Conjunction-1" ja virAma ya
EndChar

StartChar: jhya
Encoding: 143 -1 143
Width: 1277
VWidth: 0
Flags: W
HStem: -133 123<403.291 693.518> 141 123<359.63 517.848> 858 103<729 777.157>
VStem: 543 180<287.809 512.562 670 858 946.381 1091.73>
AnchorPoint: "virama" 573 -317 basechar 0
AnchorPoint: "ukaara" 559 -68 basechar 0
AnchorPoint: "repha" 582 1155 basechar 0
AnchorPoint: "aakaara" 1034 997 basechar 0
AnchorPoint: "ekaara" 383 1206 basechar 0
AnchorPoint: "iikaara" 825 1206 basechar 0
AnchorPoint: "bindu" 684 1516 basechar 0
LayerCount: 2
Fore
SplineSet
766 1268 m 2
 819 1268 915 1212 915 1165 c 0
 915 1157 911 1151 907 1149 c 0
 821 1098 733 1100 731 1053 c 2
 729 961 l 1
 743 957 760 950 778 942 c 1
 782 1059 938 1055 967 1059 c 2
 1026 1067 l 1
 1163 942 l 1
 1102 936 l 2
 1059 932 958 932 958 856 c 0
 958 846 961 833 963 827 c 1
 971 821 1005 795 1028 762 c 0
 1030 758 1046 729 1026 719 c 0
 1022 717 1016 717 1008 717 c 0
 985 717 946 725 903 756 c 0
 821 815 811 832 786 846 c 0
 784 846 770 848 725 858 c 1
 725 811 l 1
 727 598 l 2
 727 563 715 539 670 539 c 2
 653 539 l 1
 698 492 l 2
 718 472 723 457 723 451 c 2
 723 401 l 2
 723 198 680 141 526 141 c 2
 502 141 l 2
 463 141 420 153 377 176 c 0
 352 188 344 199 338 203 c 1
 344 86 385 14 403 -4 c 1
 409 -6 428 -10 446 -10 c 0
 458 -10 476 -8 492 -6 c 0
 711 19 795 6 856 401 c 1
 862 444 l 1
 1044 354 l 1
 1036 311 l 1
 975 -88 856 -104 627 -129 c 0
 611 -131 594 -133 569 -133 c 0
 518 -133 446 -125 362 -76 c 0
 327 -56 295 -29 268 -2 c 0
 186 82 160 170 156 293 c 0
 156 320 160 354 219 354 c 0
 221 354 264 346 264 346 c 1
 348 321 401 264 403 264 c 0
 507 264 543 280 543 483 c 2
 543 516 l 1
 369 690 l 2
 359 700 336 723 344 739 c 0
 346 745 359 752 375 752 c 0
 428 752 512 688 545 670 c 1
 545 672 547 674 547 680 c 2
 545 893 l 2
 545 930 543 971 543 1026 c 0
 543 1055 543 1085 545 1122 c 1
 541 1108 530 1090 518 1067 c 0
 514 1061 502 1049 461 1061 c 0
 430 1069 367 1102 344 1143 c 2
 266 1288 l 1
 379 1257 l 1
 385 1263 404 1268 414 1268 c 0
 424 1270 426 1270 430 1270 c 0
 475 1270 539 1233 559 1219 c 1
 620 1227 689 1250 752 1268 c 1
 766 1268 l 2
EndSplineSet
LCarets2: 2 0 0 
Ligature2: "Letter Conjunction-1" jha virAma ya
EndChar

StartChar: Jya
Encoding: 144 -1 144
Width: 1402
VWidth: 0
Flags: W
HStem: -131 123<517.257 842.409> 141 123<486.287 648.409> 850 102<854 900.249> 1167 123<349.797 448.897>
VStem: 225 181<132.878 246> 672 180<289.205 512.469 664.001 850 937.686 1086.86>
AnchorPoint: "virama" 702 -317 basechar 0
AnchorPoint: "ukaara" 688 -68 basechar 0
AnchorPoint: "repha" 707 1147 basechar 0
AnchorPoint: "aakaara" 1159 989 basechar 0
AnchorPoint: "ekaara" 246 1165 basechar 0
AnchorPoint: "iikaara" 950 1200 basechar 0
AnchorPoint: "bindu" 741 1516 basechar 0
LayerCount: 2
Fore
SplineSet
891 1262 m 2
 944 1262 1040 1206 1040 1159 c 0
 1040 1151 1036 1145 1032 1143 c 0
 946 1092 858 1094 856 1047 c 2
 854 952 l 1
 868 948 885 942 901 936 c 1
 907 1051 1065 1049 1092 1051 c 2
 1151 1059 l 1
 1288 934 l 1
 1227 928 l 2
 1184 924 1081 924 1081 848 c 0
 1081 840 1083 829 1085 823 c 1
 1105 811 1161 758 1161 729 c 0
 1161 723 1159 717 1151 713 c 0
 1147 711 1141 711 1133 711 c 0
 1110 711 1071 719 1028 750 c 0
 948 807 938 826 911 840 c 0
 907 842 891 842 852 850 c 1
 852 590 l 2
 852 555 840 530 795 530 c 2
 788 530 l 1
 825 496 l 2
 848 476 852 459 852 451 c 2
 852 401 l 2
 852 184 801 141 633 141 c 0
 594 141 549 153 504 176 c 0
 447 205 418 236 406 246 c 1
 406 135 450 60 481 29 c 0
 497 11 518 -8 596 -8 c 0
 598 -8 613 -6 627 -6 c 0
 629 -6 631 -6 633 -6 c 0
 834 -6 920 -4 979 389 c 1
 985 432 l 1
 1167 342 l 1
 1159 299 l 1
 1098 -98 986 -129 750 -129 c 0
 748 -129 744 -131 719 -131 c 0
 615 -131 459 -86 346 29 c 0
 260 117 225 213 225 332 c 0
 225 359 230 395 291 395 c 0
 303 395 320 393 328 391 c 0
 428 354 497 289 522 264 c 1
 639 266 672 274 672 483 c 2
 672 514 l 1
 496 680 l 1
 486 688 467 709 467 725 c 0
 467 735 475 745 500 745 c 0
 553 745 635 687 670 664 c 1
 670 664 672 666 672 672 c 2
 672 995 l 1
 674 1110 l 1
 668 1114 665 1114 659 1118 c 1
 655 1106 653 1084 645 1061 c 1
 645 1061 641 1047 612 1049 c 0
 585 1051 526 1069 485 1114 c 0
 469 1130 457 1149 449 1157 c 0
 447 1159 432 1167 426 1167 c 2
 414 1167 l 2
 400 1167 379 1139 328 1108 c 2
 289 1083 l 1
 125 1200 l 1
 164 1223 l 2
 199 1243 209 1290 291 1290 c 2
 303 1290 l 2
 336 1290 370 1284 401 1272 c 0
 442 1258 469 1239 485 1229 c 1
 495 1245 510 1255 543 1255 c 0
 590 1255 647 1224 670 1210 c 1
 740 1216 789 1244 877 1262 c 1
 891 1262 l 2
EndSplineSet
LCarets2: 2 0 0 
Ligature2: "Letter Conjunction-1" Ja virAma ya
EndChar

